<svg width="240" height="240" viewBox="0 0 240 240" fill="none" xmlns="http://www.w3.org/2000/svg">
<path d="M199.719 231.484L57.5379 236.823C44.1843 237.326 32.4281 225.059 31.2858 209.417L18.8297 38.6277C17.6893 22.9971 27.6024 9.90945 40.956 9.40679L183.136 4.05576C196.489 3.55309 208.245 15.8199 209.388 31.4623L221.846 202.263C222.976 217.895 213.073 230.981 199.719 231.484Z" fill="#EFFAF3"/>
<mask id="mask0_1258_24345" style="mask-type:alpha" maskUnits="userSpaceOnUse" x="18" y="4" width="204" height="233">
<path d="M199.719 231.484L57.5379 236.823C44.1843 237.326 32.4281 225.059 31.2858 209.417L18.8297 38.6277C17.6893 22.9971 27.6024 9.90945 40.956 9.40679L183.136 4.05576C196.489 3.55309 208.245 15.8199 209.388 31.4623L221.846 202.263C222.976 217.895 213.073 230.981 199.719 231.484Z" fill="#EFFAF3"/>
</mask>
<g mask="url(#mask0_1258_24345)">
<path d="M158.98 89.8493L155.394 90.6408L154.336 106.819L166.729 104.088C170.93 103.164 173.58 99.0152 172.657 94.8134C172.122 92.4042 170.525 90.4877 168.462 89.4898C166.941 88.7413 165.162 88.4946 163.382 88.8856L158.98 89.8493Z" fill="#F5C2A2"/>
<path d="M146.975 92.4991L146.151 105.114L148.272 108.163L150.254 107.719L154.335 106.82L155.393 90.641L148.66 92.1355L146.975 92.4991Z" fill="#2F2738"/>
<path d="M157.759 108.611L154.172 109.403L153.115 125.581L165.507 122.849C169.709 121.926 172.358 117.777 171.435 113.575C170.901 111.166 169.303 109.249 167.24 108.252C165.719 107.503 163.94 107.256 162.161 107.647L157.759 108.611Z" fill="#FF8A98"/>
<path d="M145.754 111.261L144.93 123.876L147.051 126.925L149.033 126.481L153.115 125.581L154.172 109.403L147.441 110.884L145.754 111.261Z" fill="#2F2738"/>
<path d="M157.76 108.598L154.173 109.39L153.116 125.568L165.508 122.837C169.697 121.911 172.36 117.764 171.422 113.574C170.888 111.164 169.29 109.248 167.227 108.25C165.706 107.501 163.927 107.255 162.148 107.646L157.76 108.598Z" fill="#F5C2A2"/>
<path d="M156.526 127.358L152.939 128.15L151.882 144.328L164.275 141.596C168.476 140.673 171.126 136.524 170.202 132.322C169.668 129.913 168.071 127.997 166.008 126.999C164.487 126.25 162.708 126.003 160.928 126.394L156.526 127.358Z" fill="#F5C2A2"/>
<path d="M144.533 130.01L143.71 142.625L145.818 145.672L147.812 145.229L151.881 144.328L152.938 128.15L146.218 129.646L144.533 130.01Z" fill="#2F2738"/>
<path d="M95.592 26.6762L148.751 30.1483C152.495 30.3917 155.323 33.6192 155.081 37.351L148.632 136.115L147.364 155.456C147.121 159.201 143.893 162.029 140.161 161.787L87.0028 158.315C83.271 158.073 80.4433 154.846 80.6851 151.114L81.9526 131.772L88.4021 33.0083C88.6327 29.2621 91.8602 26.4345 95.592 26.6762Z" fill="white"/>
<path d="M155.08 37.3641L148.63 136.128L81.9399 131.771L88.3894 33.0069C88.6328 29.2623 91.8603 26.4347 95.5921 26.6764L148.751 30.1485C152.495 30.3919 155.323 33.6194 155.08 37.3641Z" fill="#E4ECF9"/>
<path d="M148.63 136.128L147.363 155.47C147.119 159.214 143.892 162.042 140.16 161.8L87.0012 158.328C83.2694 158.086 80.4418 154.859 80.6836 151.127L81.9511 131.785L148.63 136.128Z" fill="white"/>
<path d="M89.6193 139.219L140.072 142.509L139.328 153.917L88.8754 150.627L89.6193 139.219Z" fill="#5CB3FF"/>
<path d="M95.6761 25.4764L148.835 28.9485C153.225 29.2329 156.566 33.0448 156.281 37.4351L148.576 155.555C148.291 159.945 144.479 163.286 140.089 163.002L86.9304 159.53C86.775 159.523 86.6212 159.504 86.4673 159.485C84.4275 159.245 82.6529 158.231 81.3906 156.76C80.0834 155.231 79.3446 153.213 79.4836 151.043L87.1894 32.9232C87.4739 28.5328 91.2858 25.1919 95.6761 25.4764ZM146.163 155.386L153.868 37.2659C154.066 34.2054 151.74 31.5478 148.667 31.3487L95.5084 27.8766C92.4352 27.6775 89.7776 30.0032 89.5785 33.0764L81.8727 151.196C81.6736 154.269 83.9992 156.927 87.0725 157.126L140.231 160.598C143.304 160.797 145.963 158.459 146.163 155.386Z" fill="#2F2738"/>
<path d="M119.472 98.3672C119.344 99.4968 118.791 100.496 117.987 101.203C117.112 101.966 115.952 102.395 114.725 102.321L110.312 102.112L110.588 97.7856L119.472 98.3672Z" fill="white"/>
<path d="M85.9466 195.151L39.114 192.1L46.4163 163.041C46.4323 163.017 46.4595 163.008 46.474 162.996L62.5615 98.699L83.8942 83.3961L82.3217 107.503L88.7459 101.362C91.8612 98.3906 96.0736 96.8566 100.361 97.1283L110.589 97.7856L110.313 102.112L114.725 102.321C115.951 102.408 117.112 101.966 117.988 101.203C118.792 100.496 119.345 99.4969 119.472 98.3672L124.741 98.7086L124.542 101.678C124.423 103.576 123.827 105.338 122.896 106.862C121.102 109.777 118.014 111.802 114.415 112.162L99.7451 113.635L90.6042 125.83L88.8326 153.01C88.6856 155.244 87.9121 157.386 86.6223 159.179C86.5583 159.275 86.4815 159.37 86.4046 159.464C86.4175 159.466 86.4431 159.469 86.4559 159.471C86.6098 159.49 86.7636 159.509 86.919 159.515L109.722 161.004L105.954 164.194L86.9185 180.29L85.9466 195.151Z" fill="#F5C2A2"/>
<path d="M82.3219 107.503L73.5941 115.844L69.628 104.483L69.8823 100.44L82.3219 107.503Z" fill="#2F2738"/>
<path d="M83.1366 162.717L105.952 164.207L111.043 159.892L86.4022 159.477C85.9493 160.085 85.4387 160.633 84.88 161.15L83.4584 162.431L83.1366 162.717Z" fill="#2F2738"/>
<path d="M75.9567 179.583L86.9133 180.298L86.7654 182.566L75.8087 181.852L75.9567 179.583Z" fill="#2F2738"/>
<path d="M28.8175 230.913L31.6669 187.284C31.9149 183.396 34.2543 179.964 37.7665 178.304L43.2149 175.726L103.53 203.138L83.3829 234.482L28.8175 230.913Z" fill="#F26524"/>
<rect x="86.9141" y="39.5972" width="49.3487" height="31.1719" rx="4" transform="rotate(3.57389 86.9141 39.5972)" fill="#9A9A9A" fill-opacity="0.7"/>
<rect x="90.8474" y="44.2935" width="8.43693" height="5.05353" transform="rotate(3.57389 90.8474 44.2935)" fill="#E4ECF9"/>
<path d="M89.9551 58.5837L130.374 61.1082L130.216 63.63L89.7976 61.1056L89.9551 58.5837Z" fill="#E4ECF9"/>
<path d="M89.5879 64.4683L108.113 65.6253L107.956 68.1471L89.4304 66.9901L89.5879 64.4683Z" fill="#E4ECF9"/>
</g>
<path d="M180.163 82.9838C193.257 86.8324 206.992 79.3373 210.84 66.2432C214.689 53.149 207.194 39.4142 194.1 35.5656C181.006 31.717 167.271 39.2121 163.422 52.3063C159.574 65.4004 167.069 79.1353 180.163 82.9838Z" fill="#5FCF86"/>
<path d="M182.605 65.7473L178.364 47.9558L185.502 40.9095L186.912 54.9026L193.058 48.8356L191.574 79.7941L187.169 61.2415L182.605 65.7473Z" fill="white"/>
</svg>
