<svg width="200" height="213" viewBox="0 0 200 213" fill="none" xmlns="http://www.w3.org/2000/svg"><path d="M155.61 199.799l-106.37-6.078c-11.303-.644-19.989-9.516-19.397-19.813L38.79 17.503C39.371 7.207 49.012-.617 60.316.038l106.369 6.078c11.304.644 19.99 9.517 19.397 19.813l-8.945 156.405c-.582 10.296-10.223 18.12-21.527 17.465z" fill="#EFFAF3"/><path d="M102.301 83.52s-22.494 3.455-31.252 13.118C59.38 109.52 46.965 149.165 47.36 158.777c.395 9.623 9.787 21.576 28.54 8.489l1.756 27.227 76.915 5.508.54-36.882s-8.187 6.426 1.299 12.005c9.475 5.58 30.794-3.032 25.257-24.35-3.502-13.459-8.561-41.935-15.855-50.907-7.293-8.973-35.158-15.718-35.158-15.718l-28.353-.63z" fill="#5FCF86"/><path d="M110.768 73.348c-10.66-.024-15.782 9.008-16.468 13.626-1.839 12.352 30.837 9.342 30.837 9.342s17.288 2.998 14.306-10.14c-2.919-12.828-17.267-12.805-28.675-12.828z" fill="#5FCF86"/><path d="M153.968 127.539a.487.487 0 01-.166-.031c-.26-.104-.385-.416-.291-.696l8.592-26.193c.094-.28.374-.426.634-.322.26.104.384.416.291.696l-8.592 26.193c-.084.218-.271.353-.468.353zm-41.007-30.804l-.031-.01c-.146-.042-14.982-2.608-18.421-11.637l.415-.166c1.746 4.592 6.452 6.826 10.089 8.737 3.771 1.975 7.636 2.515 7.989 2.619 9.912-.156 16.676-2.785 20.603-4.967 4.26-2.368 6.192-4.727 6.213-4.748l.353.302c-.083.093-1.995 2.441-6.317 4.841-3.979 2.213-10.826 4.883-20.862 5.04l-.031-.011z" fill="#000"/><path d="M112.95 96.943h-.031l-.031-.01s-.031 0-.063-.01a40.84 40.84 0 01-8.384-2.64c-5.299-2.348-8.696-5.413-10.099-9.111a.23.23 0 010-.166.225.225 0 01.104-.115l.416-.166c.093-.031.197.01.228.114 1.621 4.27 5.933 6.514 9.403 8.322l.592.312c3.231 1.694 6.525 2.317 7.605 2.525.156.03.26.052.322.062 9.871-.166 16.593-2.774 20.499-4.945 4.208-2.338 6.14-4.676 6.151-4.697a.163.163 0 01.249-.02l.353.29c.042.032.063.084.073.146 0 .052-.01.114-.041.156-.084.104-2.006 2.462-6.369 4.883-3.99 2.223-10.868 4.904-20.946 5.06h-.031c.01.01 0 .01 0 .01zm-18.192-11.74c1.413 3.501 4.706 6.42 9.818 8.686a40.41 40.41 0 008.312 2.618c.052.01.072.01.083.02h.021c10.005-.155 16.82-2.815 20.779-5.018 3.709-2.057 5.621-4.062 6.119-4.633l-.052-.052c-.478.54-2.452 2.597-6.15 4.654-3.938 2.192-10.733 4.831-20.686 4.987-.021 0-.031 0-.052-.01-.042-.01-.166-.031-.322-.063-1.091-.207-4.426-.852-7.699-2.566l-.592-.311c-3.47-1.808-7.792-4.052-9.517-8.354l-.062.042z" fill="#000"/><path d="M75.662 167.986s20.467-14.42 16.01-29.724l4.426-4.478-10.057-9.112-3.969 2.566s-6.4-2.618-12.478 1.902c-6.078 4.519-14.16 19.179-14.16 19.179l20.228 19.667zm101.08-15.574s-13.673-13.018-18.473-15.387c-4.8-2.368-14.078-9.309-20.561-9.215-6.483.083-9.423 16.26-9.423 16.26l16.249 23.916 21.371 4.198 14.058-13.32-3.221-6.452z" fill="#5FCF86"/><path d="M75.662 168.527a.484.484 0 01-.426-.27.592.592 0 01.176-.748c.166-.114 16.904-11.138 12.624-25.839a.579.579 0 01.041-.436l3.377-6.754-5.559-9.091-6.078 3.928c-.187.124-.425.083-.592-.083-.145-.156-3.709-3.855-9.36.342-5.954 4.416-16.209 18.67-16.312 18.816a.452.452 0 01-.686.083.586.586 0 01-.073-.769c.426-.592 10.452-14.535 16.53-19.044 5.382-4 9.236-1.392 10.296-.488l6.182-3.99c.218-.145.509-.073.654.166l5.985 9.787a.59.59 0 01.02.572l-3.418 6.847c4.291 15.428-12.955 26.774-13.132 26.888a.401.401 0 01-.25.083zm80.737 7.833a.413.413 0 01-.156-.031c-.093-.031-9.299-3.501-18.421-9.35-12.207-7.834-18.524-16.042-18.753-24.385l-6.784-5.589a.605.605 0 01-.198-.374.59.59 0 01.104-.416l8.759-11.896c.145-.198.394-.26.602-.135l5.528 3.169c.903-.322 4.488-1.237 13.34.342 10.286 1.85 34.275 19.782 35.293 20.551.229.166.281.509.135.759a.467.467 0 01-.685.145c-.25-.187-24.832-18.566-34.899-20.374-9.881-1.777-12.987-.343-13.018-.332a.474.474 0 01-.426-.011l-5.361-3.075-8.177 11.106 6.556 5.413c.125.104.197.26.197.426.239 19.231 36.146 32.842 36.509 32.977.26.093.395.405.312.696-.062.239-.249.384-.457.384z" fill="#000"/><path d="M100.046 143.291l14.65-.135c2.389 0 4.083-2.483 3.366-5.049l-8.374-29.933c-.468-1.662-1.413-3.356-2.951-3.356H93.563c-2.96 0-5.527 2.702-4.81 5.268l7.927 30.421c.468 1.662 1.829 2.784 3.366 2.784z" fill="#000"/><path d="M100.472 143.228h13.631c2.224 0 3.803-2.556 3.138-5.06l-8.665-29.153c-.436-1.621-1.704-2.722-3.137-2.722H91.797c-2.223 0-3.803 2.556-3.138 5.06l7.948 29.267c.437 1.621 2.431 2.608 3.865 2.608z" fill="#fff"/><path d="M114.103 143.748h-13.631c-1.714 0-3.865-1.143-4.353-2.992l-7.948-29.268c-.395-1.496-.104-3.075.8-4.249.717-.935 1.756-1.475 2.836-1.475h13.631c1.683 0 3.138 1.247 3.637 3.106l8.665 29.143c.405 1.507.104 3.096-.79 4.26-.738.956-1.745 1.475-2.847 1.475zm-22.306-36.935c-.77 0-1.486.374-2.016 1.07-.696.915-.935 2.161-.613 3.346l7.948 29.267c.353 1.309 2.047 2.224 3.356 2.224h13.631c.769 0 1.486-.374 2.016-1.07.696-.915.935-2.162.613-3.346l-8.665-29.143c-.374-1.413-1.434-2.348-2.639-2.348H91.797z" fill="#000"/><path d="M103.62 115.77h2.255c.364 0 .634-.426.519-.842l-1.433-4.831c-.073-.27-.281-.447-.52-.447h-2.254c-.364 0-.634.426-.52.842l1.32 4.852c.072.27.394.426.633.426z" fill="#000"/><path d="M91.807 116.163l-7.948 1.797c-1.32.302-2.037 1.974-1.59 3.73.457 1.798 1.964 2.951 3.294 2.515l7.75-2.536c1.143-.374 1.683-1.922 1.206-3.449-.458-1.413-1.632-2.306-2.712-2.057z" fill="#F5C2A2"/><path d="M95.443 127.301l-9.32 2.868c-1.007.311-2.16-.385-2.763-1.663l-.124-.259c-.821-1.746-.27-3.782 1.122-4.167l9.444-2.607c1.132-.312 2.4.613 2.898 2.119.54 1.652-.03 3.335-1.257 3.709z" fill="#F5C2A2"/><path d="M95.963 129.566c-.437-1.226-1.496-1.954-2.483-1.704l-6.286 1.6c-1.018.259-1.642 1.475-1.444 2.805l.104.665c.239 1.641 1.59 2.743 2.805 2.296l6.182-2.275c1.122-.395 1.641-1.964 1.122-3.387z" fill="#F5C2A2"/><path d="M95.859 134.541c-.468-.904-1.288-1.402-1.995-1.205l-5.153 1.455c-.842.239-1.237 1.361-.894 2.524l.219.738c.384 1.278 1.485 2.057 2.358 1.673l4.935-2.193c.894-.384 1.143-1.797.53-2.992z" fill="#F5C2A2"/><path d="M92.731 121.213c-1.007.312-2.067-.353-2.368-1.486-.302-1.132.27-2.296 1.278-2.597 1.007-.312 2.067.353 2.368 1.486.302 1.122-.27 2.285-1.278 2.597zm1.975 5.308c-1.008.312-2.068-.353-2.37-1.485-.3-1.133.27-2.296 1.279-2.598 1.008-.311 2.067.354 2.369 1.486.3 1.132-.27 2.296-1.278 2.597zm-.354 5.538c-.883.27-1.797-.239-2.046-1.153-.24-.904.28-1.86 1.174-2.13.883-.27 1.797.239 2.046 1.153.24.904-.28 1.86-1.174 2.13zm.478 4.925c-.644.198-1.34-.249-1.537-1.007-.198-.759.166-1.528.81-1.725.644-.197 1.34.249 1.538 1.008.207.758-.156 1.527-.81 1.724z" fill="#FFD9C1"/><path d="M93.874 121.928c.136-.051.208-.218.177-.374-.041-.166-.187-.259-.332-.207l-8.24 2.566c-.353.114-1.017.156-1.36.041-.146-.052-.302.042-.343.208-.042.166.041.333.187.374.457.156 1.236.104 1.662-.041l8.24-2.567h.01zm.115 6.297c.135-.052.218-.218.176-.374a.274.274 0 00-.343-.207l-4.893 1.631c-.364.114-2.348.654-2.868.737-.145.021-.25.177-.228.343.02.166.166.281.311.25.551-.094 2.567-.634 2.94-.759l4.894-1.631c0 .01.01.01.01.01zm.083 5.496c.135-.052.218-.218.177-.374-.042-.156-.198-.25-.343-.198a80.12 80.12 0 00-2.057.738c-.489.197-3.47 1.226-3.98 1.309a.305.305 0 00-.228.343c.02.166.166.281.311.249.572-.093 3.616-1.153 4.084-1.34.446-.176 2.015-.717 2.036-.727z" fill="#000"/><path d="M107.121 118.334l9.932-2.057c1.652-.343 3.263.852 3.585 2.65.322 1.849-.852 3.594-2.566 3.813l-10.057 1.288c-1.476.187-2.826-.966-3.003-2.577-.156-1.475.758-2.836 2.109-3.117z" fill="#F5C2A2"/><path d="M108.222 130.158l12-1.725c1.299-.187 2.296-1.35 2.379-2.795l.021-.29c.114-1.964-1.475-3.564-3.241-3.263l-12.021 2.016c-1.444.239-2.452 1.673-2.317 3.273.156 1.735 1.61 3.002 3.179 2.784z" fill="#F5C2A2"/><path d="M108.69 132.444c-.073-1.319.789-2.473 2.036-2.701l7.938-1.465c1.288-.239 2.566.571 2.971 1.88l.198.655c.498 1.6-.52 3.231-2.12 3.387l-8.135.81c-1.475.156-2.795-1.028-2.888-2.566z" fill="#F5C2A2"/><path d="M111.163 136.921c.104-1.038.81-1.87 1.714-2.015l6.577-1.07c1.07-.177 2.057.665 2.213 1.88l.093.769c.166 1.34-.727 2.566-1.912 2.618l-6.67.302c-1.195.052-2.15-1.112-2.015-2.484z" fill="#F5C2A2"/><path d="M108.451 123.353c1.299-.187 2.192-1.289 2.005-2.452-.187-1.164-1.392-1.953-2.691-1.766-1.298.187-2.192 1.288-2.005 2.452.187 1.163 1.392 1.953 2.691 1.766zm.25 5.756c1.298-.188 2.192-1.289 2.005-2.452-.187-1.164-1.393-1.954-2.691-1.767-1.299.187-2.192 1.289-2.005 2.452.187 1.154 1.392 1.954 2.691 1.767zm3.012 4.861c1.143-.166 1.943-1.059 1.787-1.994-.156-.936-1.205-1.559-2.348-1.393-1.143.167-1.943 1.06-1.787 1.995.156.935 1.205 1.559 2.348 1.392zm1.777 4.698c.831-.125 1.403-.852 1.278-1.632-.125-.779-.904-1.309-1.745-1.184-.832.125-1.403.852-1.278 1.631.135.769.914 1.299 1.745 1.185z" fill="#FFD9C1"/><path d="M107.474 124.538c-.176.01-.342-.094-.374-.26-.031-.166.094-.322.291-.353l10.619-1.496c.457-.062 1.236-.333 1.579-.592a.376.376 0 01.488.031.275.275 0 01-.031.426c-.447.353-1.361.665-1.922.737l-10.618 1.497c-.011.01-.021.01-.032.01zm2.847 5.776c-.187.011-.353-.104-.374-.259-.031-.167.104-.323.291-.343l6.358-.79c.468-.062 2.992-.499 3.637-.654.187-.042.374.052.426.207.052.167-.052.333-.239.374-.676.167-3.232.613-3.72.676l-6.358.789h-.021zm2.504 5.038c-.187.021-.353-.104-.374-.26-.021-.166.104-.322.301-.343.083-.01 2.078-.238 2.702-.28.654-.052 4.54-.499 5.163-.655.187-.041.374.052.426.208.052.166-.052.333-.239.374-.696.177-4.675.634-5.298.676-.603.041-2.65.28-2.671.28-.01-.01-.01 0-.01 0zm9.58 5.029a.456.456 0 01-.198-.042c-.249-.125-.363-.447-.26-.717l4.645-11.875c.104-.281.394-.405.644-.281.249.125.363.447.26.717l-4.645 11.876a.477.477 0 01-.446.322zm-34.172 1.672c-2.972 0-5.278-1.018-6.868-3.013-3.075-3.875-2.306-10.005-2.275-10.265.041-.301.29-.499.561-.457.27.042.457.322.416.623-.01.063-.728 5.902 2.046 9.393 1.445 1.818 3.606 2.701 6.4 2.639.312 0 .499.239.499.54.01.301-.208.55-.478.561-.114-.021-.208-.021-.301-.021zm-30.763.853h-4.292c-.27 0-.488-.249-.488-.551 0-.301.218-.55.488-.55h4.291c.27 0 .489.249.489.55 0 .302-.219.551-.489.551zm54.472-34.432c-.011 0 0 0 0 0-.281-.01-.499-.26-.489-.561l.239-14.254c.011-.302.239-.561.499-.54.27.01.488.26.478.56l-.239 14.255c0 .312-.218.54-.488.54zm6.026 5.465c-.27 0-.489-.249-.489-.55V94.625c0-.301.219-.55.489-.55s.488.249.488.55v18.774c0 .301-.218.54-.488.54zm-5.351-21.589a.45.45 0 01-.322-.136l-11.148-10.68a.585.585 0 01-.052-.769.461.461 0 01.696-.062l11.148 10.68c.208.198.229.54.052.77a.454.454 0 01-.374.197z" fill="#000"/><path d="M118.249 95.165a.477.477 0 01-.406-.24.588.588 0 01.125-.758l15.522-11.875c.229-.166.53-.104.686.145a.586.586 0 01-.125.759L118.529 95.07a.477.477 0 01-.28.094zm-43.855 26.806c-.229 0-.426-.177-.478-.437L69.76 99.623c-.052-.291.114-.582.384-.645.26-.062.53.125.582.427l4.156 21.911c.052.291-.114.582-.384.644-.032 0-.073.011-.104.011z" fill="#000"/><path d="M104.327 45.608s-12.24-3.927-12.312 5.278c-.073 10.66 12.561 9.579 12.561 9.579l-.249-14.857z" fill="#F5C2A2"/><path d="M99.287 55.715a.763.763 0 01-.613-.311l-4.56-6.37a.751.751 0 01.176-1.048.75.75 0 011.05.176l4.56 6.369a.746.746 0 01-.613 1.184z" fill="#000"/><path d="M94.53 54.126a.752.752 0 01-.749-.665.756.756 0 01.665-.831l3.356-.374c.416-.052.78.25.831.665a.756.756 0 01-.665.83l-3.356.375h-.083z" fill="#000"/><path d="M127.901 68.744l1.257 12.353s-4.53 3.013-10.494 3.678c-8.041.893-11.21-3.636-11.21-3.636l-1.288-14.504 21.735 2.109z" fill="#F5C2A2"/><path d="M127.901 68.725s-2.93 10.368-12.198 9.86c-7.47-.416-10.556-10.67-10.556-10.67l22.754.81z" fill="#000"/><path d="M99.64 35.84s-3.054 23.107 4.364 32.53c7.959 10.1 18.847 5.85 22.743 2.234 5.247-4.873 5.839-11.013 5.839-11.013s7.917.821 9.912-5.756c2.098-6.909-3.242-11.823-7.159-11.781-3.917.041-4.301.8-4.301.8l.478-7.21s-26.068-24.053-31.875.197z" fill="#F5C2A2"/><path d="M133.21 53.046a.77.77 0 01-.52-.208.753.753 0 01-.021-1.06l5.517-5.704a.753.753 0 011.06-.02c.301.29.301.758.021 1.06l-5.517 5.703a.732.732 0 01-.54.229z" fill="#000"/><path d="M138.83 53.473a.692.692 0 01-.394-.114l-3.782-2.328a.746.746 0 01-.25-1.028.747.747 0 011.029-.25l3.782 2.328a.746.746 0 01.249 1.028.711.711 0 01-.634.364zm-17.89-5.591a.748.748 0 01-.749-.727l-.135-3.824a.761.761 0 01.728-.779c.415-.041.758.312.779.727l.135 3.824a.761.761 0 01-.727.779h-.031zm-14.65.562a.747.747 0 01-.748-.727l-.135-3.824a.761.761 0 01.727-.779.747.747 0 01.779.728l.136 3.823a.762.762 0 01-.728.78h-.031zm7.668 9.475a.742.742 0 01-.717-.54c-1.746-5.912-.281-10.982-.218-11.19a.754.754 0 01.935-.51.76.76 0 01.509.936c-.011.052-1.403 4.873.218 10.338a.764.764 0 01-.509.935.794.794 0 01-.218.03zM103.682 40.63a.765.765 0 01-.519-.208.743.743 0 01-.021-1.06c1.527-1.6 4.281-1.828 4.395-1.838a.761.761 0 01.81.685.755.755 0 01-.686.81c-.02 0-2.306.198-3.428 1.383a.77.77 0 01-.551.228zm18.826-.311a.702.702 0 01-.374-.104c-1.402-.82-3.657-.374-3.678-.374a.747.747 0 11-.301-1.465c.114-.02 2.826-.561 4.738.55a.748.748 0 01.27 1.03.78.78 0 01-.655.363zm10.328 2.41s-1.787 7.21-2.722 7.002c-.935-.197-.437-11.345 2.15-12.041 2.598-.686.572 5.039.572 5.039zM115.08 64.454a.744.744 0 01-.748-.717.745.745 0 01.716-.78c.156-.01 3.824-.197 5.258-3.345a.765.765 0 01.997-.374c.374.177.54.613.374.998-1.818 4-6.369 4.218-6.566 4.228-.011-.01-.021-.01-.031-.01z" fill="#000"/><path d="M131.631 41.794s-7.886-.312-13.33-4.156c-4.603-3.241-6.535-8.083-6.535-8.083s-3.398-.28-8.084 2.889c-4.685 3.179-4.665 12.342-4.665 12.342S89.45 29.67 93.45 23.996c4-5.672 11.137-1.412 11.137-1.412s-1.672-10.078 12.53-6.774c14.203 3.304 17.943 15.283 17.943 15.283s4.769-.634 5.559 3.782c.789 4.415-.821 8.997-.821 8.997s-2.172-1.89-5.32-.561l-3.148 1.33.302-2.847z" fill="#000"/><path d="M39 120c-11.333 7.667-29.2 26-10 38 24 15 44-11 61 32s84 14.5 15.5-50.5" stroke="#EAF8F3" stroke-width="4" stroke-linejoin="round"/><path d="M174.702 83.1c9.233 1.901 18.26-4.042 20.162-13.275 1.902-9.233-4.041-18.26-13.275-20.162-9.233-1.902-18.26 4.04-20.162 13.274-1.902 9.233 4.041 18.26 13.275 20.162z" fill="#F26524"/><path d="M190.588 61.516l-16.019 10.598-5.57-8.539-1.806 1.207 6.754 10.348 17.816-11.788-1.175-1.826z" fill="#fff"/><circle cx="44.64" cy="75.915" r="41.198" transform="rotate(-10.726 44.64 75.915)" fill="#EFFAF3" stroke="#5FCF86" stroke-width="6"/><path d="M53.517 35.113a11.202 11.202 0 00-11.32 11.094c-.076 7.49 11.01 19.568 11.01 19.568S64.533 54.062 64.61 46.433c.063-6.183-4.91-11.257-11.093-11.32zm-.186 18.383a7.19 7.19 0 01-7.114-7.259 7.19 7.19 0 017.26-7.113 7.183 7.183 0 017.113 7.259c-.05 3.971-3.297 7.153-7.26 7.113z" fill="#5CB3FF"/><mask id="a" style="mask-type:alpha" maskUnits="userSpaceOnUse" x="6" y="39" width="72" height="72"><path d="M77.897 74.491c.261 19.792-15.572 36.049-35.364 36.31-19.792.261-36.049-15.572-36.31-35.365-.26-19.792 15.572-36.048 35.364-36.31 19.792-.26 36.049 15.573 36.31 35.365z" fill="#C6F1E2"/></mask><g mask="url(#a)"><path d="M20.014 89.4A6.411 6.411 0 107.71 85.787a6.411 6.411 0 0012.303 3.615zm41.596.834a6.411 6.411 0 10-12.404-3.248 6.411 6.411 0 0012.404 3.248z" fill="#000"/><path d="M66.772 81.644l-.23 9.194-42.5-1.045v.01l-41.716-.983.336-13.528c.028-.978.728-1.8 1.683-1.978l5.708-1.032 6.88-5.834c2.088-1.767 5.513-2.697 8.251-2.63l30.352.742a9.123 9.123 0 014.474 1.31l-19.397-.475 8.13 7.828 24.401.594 8.31 1.887a8.573 8.573 0 013.086 1.4c.52.374.999.81 1.417 1.299l-.762-.01-.073 3.067.136.143 1.514.041z" fill="#5FCF86"/><path d="M46.06 89.152l18.501.445-2.177-3.49-13.23-.32-3.094 3.365z" fill="#000"/><path d="M41.673 87.42l-.042 1.545 24.947.608-.016.37-25.317-.612.047-1.926.38.016z" fill="#000"/><path d="M41.306 86.718l4.671.114.027-1.121-4.67-.114-.028 1.121z" fill="#C6F1E2"/><path d="M65.319 79.152l-.06 2.45-3.187 1.906-13.23-.32-3.084-2.059.06-2.46 19.5.483z" fill="#000"/><path d="M37.542 77.718l-.021.752 3.358 2.539 4.87.121 2.49-2.4 14.64.352 2.233 2.369.136.142 1.503.042.045-2.038a7.703 7.703 0 00-.87-1.193l-28.384-.686z" fill="#fff"/><path d="M53.144 73.817l-24.4-.594-8.131-7.829 19.397.475c.01 0 .01.01.01.01l13.124 7.938z" fill="#000"/><path d="M53.145 73.817L40.03 65.879c-.01 0-.01-.01-.01-.01h.01l13.114 7.948z" fill="#000"/><path d="M-8.445 74.6l32.542.79.018-.75-32.542-.792-.018.751z" fill="#fff"/><path d="M-2.078 67.196c1.689-1.464 4.622-2.233 6.867-2.18l12.159.292c.71.022 1.383.301 1.894.788l7.349 7.056-2.06 1.469-32.173-.78-.113 4.736-.38-.006.138-5.889 6.319-5.486z" fill="#000"/><path d="M18.928 71.077l1.853.048 2.409 2.356-6.62-.16a2.314 2.314 0 012.358-2.244z" fill="#5FCF86"/><path d="M10.683 77.76l2.963.072.017-.69-2.963-.071-.017.689z" fill="#000"/><path d="M11.955 86l11.873.29.027-1.122-11.872-.29L11.955 86z" fill="#C6F1E2"/><path d="M.215 85.717l6.492.158.027-1.121-6.492-.158-.027 1.121z" fill="#FB9828"/><path d="M28.334 79.481l2.706.066.048-1.986-2.706-.066-.048 1.986z" fill="#C6F1E2"/><path d="M.171 87.957l8.165.202.294-12.046.38.005-.293 12.046 18.254.448a7.764 7.764 0 01-.04-.699 6.408 6.408 0 016.566-6.251 6.408 6.408 0 016.252 6.566 6.408 6.408 0 01-6.567 6.252 6.418 6.418 0 01-6.086-4.922 5.163 5.163 0 01-.1-.575l-26.84-.655.015-.37z" fill="#000"/><path d="M29.959 87.266a3.938 3.938 0 00-.094.712c-.007.247.017.483.05.72l1.669.04-.488.458-.722.69a3.5 3.5 0 00.981 1.036l.213-.209.255-.24.742-.7-.04 1.669a4.09 4.09 0 01-.6-.198.63.63 0 01-.145-.07c-.051-.02-.093-.05-.145-.08a3.841 3.841 0 01-.28-.172l-.234.22a3.724 3.724 0 002.109.702 3.744 3.744 0 002.703-1.044 3.789 3.789 0 00.136-5.354 3.739 3.739 0 00-2.65-1.17 3.744 3.744 0 00-2.704 1.045 3.739 3.739 0 00-1.086 1.94l.33.005c.038-.165.088-.32.148-.475.04-.104.09-.207.14-.31a.656.656 0 01.08-.146c.04-.083.09-.156.151-.239l1.148 1.21-1.668-.04zm5.345-2.057l-1.21 1.159.04-1.668c.093.02.186.049.28.078.113.03.216.07.32.12.041.02.093.04.134.06.114.05.228.11.332.19.041.01.073.03.104.061zm1.45 2.225l-1.668-.04 1.21-1.158c.073.112.126.224.179.347.01.031.031.062.042.092l.064.154c.042.092.075.194.096.297v.01l.066.298c0-.01.01 0 .01 0zm-.553 2.6l-1.158-1.209 1.668.04c0 .02-.01.031-.01.052-.02.082-.039.154-.069.227 0 .01-.01.02-.01.041-.03.093-.07.197-.11.29-.039.093-.09.186-.13.27-.06.103-.12.196-.18.29zm-2.235 1.45l.04-1.667 1.158 1.21a.486.486 0 01-.102.052.951.951 0 01-.143.074c-.072.032-.133.063-.204.095-.052.021-.093.043-.144.054-.112.042-.225.075-.328.107-.082.021-.174.043-.267.065 0 0 0 .01-.01.01zm-2.45-6.369c.03-.02.07-.042.112-.063.05-.021.091-.053.143-.074.214-.106.44-.191.665-.256l.277-.065h.01l-.04 1.668-1.168-1.21z" fill="#B8AFC4"/><path d="M33.37 86.871a1.18 1.18 0 011.159 1.22 1.18 1.18 0 01-1.22 1.158 1.18 1.18 0 01-1.158-1.22c.012-.648.56-1.17 1.22-1.158z" fill="#000"/><path d="M33.35 87.594a.48.48 0 01.469.487.481.481 0 01-.488.47.48.48 0 01-.47-.488.474.474 0 01.488-.47z" fill="#B8AFC4"/><path d="M29.556 87.972a3.744 3.744 0 001.044 2.704c.167.172.345.335.542.466l.234-.22a3.491 3.491 0 01-.982-1.036c-.02-.03-.041-.061-.052-.102a2.678 2.678 0 01-.148-.297 10.401 10.401 0 01-.128-.317 3.692 3.692 0 01-.13-.482 3.35 3.35 0 01-.05-.72c.006-.247.034-.484.093-.712l-.32-.006a3 3 0 00-.103.722z" fill="#fff"/></g></svg>