<svg width="240" height="240" viewBox="0 0 240 240" fill="none" xmlns="http://www.w3.org/2000/svg">
<path d="M190.925 223.665L54.9107 232.126C37.8551 233.191 23.1203 221.015 21.9906 204.937L11.1359 50.0006C10.0063 33.9235 22.9238 20.0341 39.9794 18.9692L175.994 10.5082C193.05 9.44335 207.784 21.6198 208.914 37.6968L219.757 192.634C220.886 208.711 207.969 222.6 190.925 223.665Z" fill="#EFFAF3"/>
<g clip-path="url(#clip0_1258_24147)">
<path d="M146.886 208.61L59.8411 177.692C58.1444 177.096 57.2495 175.212 57.8582 173.51L98.5097 58.5142C99.1047 56.8115 100.983 55.9124 102.679 56.522L189.736 87.4545C191.433 88.0503 192.328 89.9342 191.719 91.636L151.069 206.618C150.46 208.32 148.582 209.219 146.886 208.61Z" fill="#5CB3FF"/>
<path d="M159.689 101.127L117.43 86.116C116.177 85.6739 115.512 84.275 115.954 83.0183C116.395 81.7615 117.79 81.0931 119.042 81.5352L161.301 96.546C162.553 96.9881 163.219 98.387 162.777 99.6438C162.322 100.9 160.941 101.569 159.689 101.127Z" fill="#F4F4F4"/>
<path d="M167.136 118.747L100.563 95.0936C99.311 94.6515 98.6457 93.2526 99.0872 91.9958C99.5286 90.7391 100.923 90.0706 102.175 90.5127L168.748 114.166C170 114.608 170.666 116.007 170.224 117.263C169.783 118.52 168.388 119.189 167.136 118.747Z" fill="#F4F4F4"/>
<path d="M163.408 129.269L96.8357 105.617C95.5835 105.174 94.9182 103.776 95.3596 102.519C95.8011 101.262 97.1957 100.594 98.4479 101.036L165.033 124.703C166.286 125.145 166.951 126.544 166.509 127.801C166.054 129.057 164.66 129.725 163.408 129.269Z" fill="#F4F4F4"/>
<path d="M159.695 139.807L93.1081 116.153C91.8559 115.711 91.1907 114.312 91.6321 113.055C92.0735 111.799 93.4681 111.13 94.7203 111.572L161.307 135.226C162.559 135.668 163.224 137.067 162.783 138.324C162.34 139.594 160.947 140.249 159.695 139.807Z" fill="#F4F4F4"/>
<path d="M155.966 150.344L89.3943 126.677C88.1421 126.235 87.4768 124.836 87.9182 123.579C88.3597 122.322 89.7543 121.654 91.0065 122.096L157.578 145.763C158.83 146.205 159.496 147.604 159.054 148.86C158.613 150.117 157.218 150.786 155.966 150.344Z" fill="#F4F4F4"/>
<path d="M152.239 160.866L85.6665 137.213C84.4143 136.771 83.749 135.372 84.1904 134.116C84.6319 132.859 86.0265 132.19 87.2787 132.633L153.851 156.286C155.104 156.728 155.769 158.127 155.327 159.383C154.885 160.654 153.504 161.323 152.239 160.866Z" fill="#F4F4F4"/>
<path d="M148.524 171.404L81.9517 147.751C80.6994 147.309 80.0342 145.91 80.4756 144.653C80.917 143.396 82.3116 142.728 83.5638 143.17L150.137 166.823C151.389 167.265 152.054 168.664 151.613 169.921C151.171 171.177 149.777 171.846 148.524 171.404Z" fill="#F4F4F4"/>
<path d="M144.796 181.94L78.2241 158.274C76.9719 157.832 76.3066 156.433 76.7481 155.176C77.1895 153.919 78.5841 153.251 79.8363 153.693L146.409 177.346C147.661 177.788 148.326 179.187 147.885 180.444C147.443 181.714 146.048 182.383 144.796 181.94Z" fill="#F4F4F4"/>
<path d="M141.069 192.463L74.4966 168.81C73.2444 168.368 72.5791 166.969 73.0205 165.713C73.462 164.456 74.8566 163.787 76.1088 164.23L142.681 187.882C143.934 188.325 144.599 189.723 144.157 190.98C143.715 192.251 142.335 192.906 141.069 192.463Z" fill="#F4F4F4"/>
<path opacity="0.25" d="M139.992 43.0997L76.2879 32.1642C73.7948 31.737 71.4238 33.4193 70.9964 35.9211L53.8369 136.139C53.4095 138.641 55.0847 141.019 57.5778 141.446L135.041 154.755C137.534 155.182 139.905 153.5 140.332 150.998L155.131 64.587L139.992 43.0997Z" fill="#406746"/>
<path d="M137.611 40.9916L73.9095 30.0578C71.4164 29.6307 69.0454 31.3131 68.618 33.8149L51.456 134.036C51.0286 136.538 52.7036 138.915 55.1967 139.343L132.657 152.649C135.15 153.076 137.521 151.394 137.948 148.892L152.749 62.4789L137.611 40.9916Z" fill="white"/>
<path d="M135.248 54.8047C134.821 57.3066 136.496 59.6845 138.989 60.1116L152.749 62.4707L137.609 40.9965L135.248 54.8047Z" fill="#F3F2F2"/>
<path d="M138.284 59.939L152.347 64.8077L152.749 62.4833L138.284 59.939Z" fill="#C6C6C6"/>
<path d="M128.328 62.1729L89.361 55.4812C88.3119 55.3014 87.5937 54.2859 87.7737 53.2328C87.9536 52.1798 88.9659 51.4582 90.015 51.6381L128.982 58.3298C130.031 58.5096 130.749 59.5251 130.569 60.5782C130.388 61.645 129.377 62.3528 128.328 62.1729Z" fill="#DDEFFF"/>
<path d="M138.828 77.3675L74.4255 66.3007C73.3764 66.1208 72.6582 65.1053 72.8381 64.0522C73.018 62.9991 74.0304 62.2776 75.0795 62.4574L139.481 73.538C140.53 73.7179 141.248 74.7334 141.068 75.7865C140.889 76.8258 139.877 77.5474 138.828 77.3675Z" fill="#DDEFFF"/>
<path d="M137.162 87.128L72.7602 76.0612C71.7111 75.8813 70.9929 74.8658 71.1728 73.8127C71.3528 72.7596 72.3651 72.0381 73.4142 72.2179L137.816 83.2848C138.865 83.4646 139.584 84.4801 139.404 85.5332C139.21 86.5854 138.211 87.3079 137.162 87.128Z" fill="#DDEFFF"/>
<path d="M135.484 96.8739L71.082 85.807C70.0329 85.6272 69.3147 84.6117 69.4946 83.5586C69.6745 82.5055 70.6869 81.7839 71.736 81.9638L136.138 93.0306C137.187 93.2105 137.905 94.226 137.725 95.2791C137.545 96.3459 136.533 97.0537 135.484 96.8739Z" fill="#DDEFFF"/>
<path d="M133.82 106.634L69.4174 95.5673C68.3683 95.3874 67.6501 94.3719 67.8301 93.3188C68.01 92.2657 69.0223 91.5442 70.0714 91.724L134.474 102.791C135.523 102.971 136.241 103.986 136.061 105.039C135.881 106.092 134.869 106.814 133.82 106.634Z" fill="#DDEFFF"/>
<path d="M132.155 116.381L67.7531 105.314C66.704 105.134 65.9858 104.119 66.1657 103.066C66.3457 102.013 67.358 101.291 68.4071 101.471L132.809 112.538C133.858 112.718 134.577 113.733 134.397 114.786C134.202 115.852 133.204 116.561 132.155 116.381Z" fill="#DDEFFF"/>
<path d="M130.477 126.14L66.0744 115.074C65.0253 114.894 64.3071 113.878 64.487 112.825C64.667 111.772 65.6793 111.051 66.7284 111.23L131.131 122.297C132.18 122.477 132.898 123.493 132.718 124.546C132.537 125.613 131.526 126.32 130.477 126.14Z" fill="#DDEFFF"/>
<path d="M108.011 135.812C108.018 135.495 107.702 135.28 107.426 135.483C107.064 135.75 106.689 136.002 106.279 136.168C106.081 136.238 105.885 136.294 105.687 136.364C105.289 136.545 105.081 136.366 105.074 135.84C105.438 135.546 105.006 134.992 104.631 135.258C104.153 135.599 103.531 136.056 102.905 135.932C102.728 135.893 102.528 135.796 102.328 135.7C102.458 135.612 102.588 135.51 102.707 135.38C102.811 135.276 102.792 135.136 102.746 135.009C102.657 134.685 102.507 134.454 102.398 134.225C104.007 132.811 105.425 130.955 106.155 129.095C106.289 128.731 105.893 128.469 105.59 128.671C104.194 129.574 102.918 130.734 102.039 132.156C101.73 132.661 101.459 133.21 101.515 133.822C101.525 133.878 101.535 133.947 101.558 134.004C101.165 134.324 100.774 134.616 100.371 134.866C99.8109 135.216 99.2274 135.496 98.5836 135.647C98.1218 135.755 97.435 135.931 97.1623 135.47C98.2158 134.959 99.0927 134.201 98.7202 133.167C98.162 131.61 96.433 133.791 96.266 135.065C95.7566 135.267 95.2244 135.398 94.6811 135.486C94.2211 135.567 94.3246 136.292 94.7846 136.212C95.1614 136.14 95.7632 136 96.3841 135.778C97.1472 137.363 99.9811 135.974 100.946 135.346C101.234 135.158 101.524 134.942 101.8 134.725C101.981 135.111 101.998 135.056 101.454 135.366C101.182 135.528 101.157 135.9 101.465 136.044C102.012 136.315 102.577 136.726 103.213 136.685C103.407 136.67 103.603 136.628 103.787 136.557C103.794 136.654 103.843 136.754 103.921 136.815C104.879 137.541 106.178 137.074 107.194 136.491C106.954 137.623 106.249 138.696 105.338 139.355C103.89 140.407 102.14 140.001 100.542 139.578C100.094 139.466 99.8156 140.139 100.263 140.251C101.996 140.711 103.869 141.139 105.494 140.112C106.915 139.252 107.996 137.498 108.011 135.812ZM97.536 133.78C98.1276 133.377 97.6879 134.191 97.4831 134.371C97.3514 134.487 97.1932 134.587 97.0359 134.674C97.0652 134.441 97.3769 133.894 97.536 133.78ZM102.351 133.061C102.526 132.506 103.061 131.905 103.435 131.46C103.854 130.962 104.325 130.509 104.834 130.1C104.179 131.26 103.278 132.376 102.293 133.306C102.312 133.238 102.317 133.156 102.351 133.061Z" fill="#DDEFFF"/>
<path d="M120.872 144.666C117.112 143.809 114.744 140.045 115.601 136.258C116.457 132.484 120.21 130.105 123.984 130.962C127.744 131.818 130.113 135.583 129.256 139.37C128.4 143.143 124.632 145.522 120.872 144.666ZM123.638 132.446C120.692 131.782 117.745 133.634 117.066 136.603C116.402 139.559 118.245 142.515 121.204 143.194C124.15 143.859 127.097 142.007 127.776 139.038C128.455 136.068 126.597 133.125 123.638 132.446Z" fill="#DDEFFF"/>
<path d="M139.605 129.547L139.509 129.564C138.504 129.657 137.542 129.822 136.6 130.035L135.222 130.378L133.886 130.793C132.113 131.362 130.404 132.026 128.783 132.811C127.119 133.524 125.559 134.45 124.023 135.377C123.157 135.892 122.335 136.455 121.511 137.04C121.087 136.624 120.663 136.207 120.213 135.812C119.609 135.246 118.93 134.721 118.253 134.174C117.551 133.647 116.847 133.144 116.044 132.702L115.976 132.652C115.93 132.626 115.859 132.621 115.808 132.664C115.734 132.705 115.703 132.817 115.746 132.888C117.42 135.628 119.169 138.303 120.916 141.001C121.002 141.144 121.213 141.181 121.361 141.099C124.455 139.269 127.525 137.437 130.576 135.535L135.161 132.729C136.697 131.801 138.189 130.825 139.702 129.874C139.753 129.831 139.779 129.787 139.784 129.719C139.768 129.604 139.701 129.531 139.605 129.547Z" fill="#F26A2B"/>
</g>
<g clip-path="url(#clip1_1258_24147)">
<path d="M25.9124 182.09C37.1858 182.09 46.3247 172.951 46.3247 161.677C46.3247 150.404 37.1858 141.265 25.9124 141.265C14.6389 141.265 5.5 150.404 5.5 161.677C5.5 172.951 14.6389 182.09 25.9124 182.09Z" fill="#5FCF86"/>
<path d="M17.9926 166.33L21.1445 170.743C24.0212 174.777 29.6945 175.729 33.7288 172.852L34.5999 172.233C38.6342 169.356 39.5855 163.683 36.7087 159.649L33.5569 155.236C32.8922 154.296 31.5856 154.078 30.6458 154.743L18.4855 163.419C17.5342 164.084 17.3164 165.391 17.9926 166.33Z" fill="white"/>
<path d="M20.1473 160.692L18.027 157.723C16.5714 155.683 17.0413 152.829 19.0928 151.374C21.1329 149.918 23.9868 150.388 25.4423 152.44L27.5627 155.408L29.6028 153.952L27.4939 150.984C25.236 147.809 20.812 147.076 17.6373 149.334C14.4625 151.591 13.729 156.015 15.9869 159.19L18.1072 162.159L20.1473 160.692Z" fill="white"/>
<path d="M29.7057 162.571C29.0181 161.608 27.6886 161.39 26.7258 162.078C25.7631 162.766 25.5453 164.095 26.233 165.058C26.7488 165.78 27.6198 166.078 28.4336 165.906L29.4994 167.396C29.763 167.763 30.2903 167.854 30.657 167.591C31.0238 167.327 31.1155 166.8 30.8519 166.433L29.786 164.943C30.2215 164.221 30.2215 163.293 29.7057 162.571Z" fill="#5FCF86"/>
</g>
<path d="M233.773 56.8946L197.353 78.8571C196.646 79.2871 195.713 79.0551 195.283 78.3409L166.089 30.246C165.655 29.5364 165.881 28.6046 166.593 28.1789L203.022 6.21614C203.729 5.78606 204.663 6.01807 205.093 6.73232L234.282 54.8228C234.712 55.5371 234.485 56.4688 233.773 56.8946Z" fill="#5FCF86"/>
<path d="M199.139 20.912L181.458 31.5741C180.935 31.8908 180.242 31.7188 179.922 31.1943C179.602 30.6697 179.771 29.9777 180.293 29.661L197.974 18.9989C198.497 18.6822 199.19 18.8541 199.51 19.3787C199.825 19.9078 199.661 20.5953 199.139 20.912Z" fill="#F4F4F4"/>
<path d="M207.6 23.4115L179.746 40.2062C179.223 40.5229 178.53 40.3509 178.21 39.8264C177.89 39.3018 178.058 38.6098 178.581 38.2931L206.435 21.4984C206.958 21.1816 207.651 21.3536 207.971 21.8782C208.291 22.4027 208.123 23.0948 207.6 23.4115Z" fill="#F4F4F4"/>
<path d="M210.269 27.8154L182.415 44.6101C181.892 44.9268 181.199 44.7549 180.879 44.2303C180.559 43.7058 180.727 43.0137 181.25 42.697L209.113 25.902C209.636 25.5853 210.33 25.7573 210.649 26.2818C210.965 26.811 210.797 27.5031 210.269 27.8154Z" fill="#F4F4F4"/>
<path d="M212.947 32.2193L185.089 49.0186C184.566 49.3353 183.873 49.1633 183.553 48.6388C183.233 48.1142 183.401 47.4222 183.924 47.1055L211.783 30.3062C212.306 29.9894 212.999 30.1614 213.319 30.686C213.643 31.2149 213.47 31.9026 212.947 32.2193Z" fill="#F4F4F4"/>
<path d="M215.622 36.6277L187.763 53.418C187.24 53.7347 186.547 53.5628 186.227 53.0382C185.907 52.5137 186.075 51.8216 186.598 51.5049L214.457 34.7146C214.98 34.3978 215.673 34.5698 215.993 35.0944C216.313 35.6189 216.145 36.3109 215.622 36.6277Z" fill="#F4F4F4"/>
<path d="M218.291 41.0318L190.437 57.8265C189.914 58.1432 189.22 57.9712 188.901 57.4467C188.581 56.9221 188.749 56.2301 189.272 55.9134L217.126 39.1187C217.649 38.802 218.342 38.9739 218.662 39.4985C218.986 40.0274 218.823 40.7148 218.291 41.0318Z" fill="#F4F4F4"/>
<path d="M220.969 45.4353L193.115 62.23C192.592 62.5467 191.899 62.3747 191.579 61.8502C191.259 61.3256 191.427 60.6336 191.95 60.3169L219.804 43.5222C220.327 43.2055 221.02 43.3774 221.34 43.902C221.66 44.4265 221.492 45.1186 220.969 45.4353Z" fill="#F4F4F4"/>
<path d="M223.643 49.8438L195.784 66.6342C195.261 66.9509 194.568 66.7789 194.248 66.2543C193.928 65.7298 194.096 65.0378 194.619 64.721L222.473 47.9263C222.996 47.6096 223.69 47.7816 224.01 48.3061C224.334 48.835 224.166 49.5271 223.643 49.8438Z" fill="#F4F4F4"/>
<path d="M226.313 54.2482L198.459 71.0428C197.936 71.3596 197.243 71.1876 196.923 70.6631C196.603 70.1385 196.771 69.4465 197.294 69.1297L225.148 52.335C225.671 52.0183 226.364 52.1903 226.684 52.7149C227.009 53.2437 226.84 53.9268 226.313 54.2482Z" fill="#F4F4F4"/>
<defs>
<clipPath id="clip0_1258_24147">
<rect width="137.316" height="173.501" fill="white" transform="translate(58.3855 37.3499)"/>
</clipPath>
<clipPath id="clip1_1258_24147">
<rect width="52.8854" height="52.8854" fill="white" transform="translate(5.5 134.77)"/>
</clipPath>
</defs>
</svg>
