<svg width="240" height="240" viewBox="0 0 240 240" fill="none" xmlns="http://www.w3.org/2000/svg">
<g clip-path="url(#clip0_1258_24061)">
<path d="M20.8658 57.8632L11.0673 195.366C9.90655 211.032 23.8808 222.968 43.6587 220.73L182.391 203.631C190.086 202.592 197.061 198.601 201.813 192.52C206.564 186.439 208.711 178.754 207.792 171.121L191.843 44.3531C190.885 36.7415 186.911 29.8182 180.797 25.1052C174.682 20.3923 166.927 18.2755 159.236 19.2205L45.121 33.2901C28.3429 35.3565 22.7351 39.0641 20.8658 57.8632Z" fill="#EFFAF3"/>
<mask id="mask0_1258_24061" style="mask-type:alpha" maskUnits="userSpaceOnUse" x="11" y="11" width="236" height="218">
<path d="M21.7413 52.9415L11.0806 201.335C9.69008 218.242 26.4308 231.123 50.1242 228.708L216.321 210.255C225.54 209.133 233.896 204.827 239.588 198.264C245.28 191.701 247.852 183.408 246.75 175.17L227.644 38.3613C226.496 30.1468 221.736 22.6751 214.412 17.5888C207.087 12.5025 197.796 10.2181 188.582 11.2379L50.7983 26.422C30.6986 28.6521 23.9807 32.6533 21.7413 52.9415Z" fill="#EAF8F3"/>
</mask>
<g mask="url(#mask0_1258_24061)">
<path d="M203.004 182.219C195.621 182.19 189.669 173.868 189.709 163.631C189.749 153.394 195.766 145.119 203.148 145.148C210.531 145.176 216.483 153.498 216.443 163.735C216.403 173.972 210.386 182.248 203.004 182.219Z" fill="url(#paint0_linear_1258_24061)"/>
<path d="M195.981 145.119L203.148 145.147L203.004 182.189L195.836 182.161L195.981 145.119Z" fill="url(#paint1_linear_1258_24061)"/>
<path d="M195.836 182.191C190.207 182.169 185.677 173.853 185.717 163.616C185.757 153.379 190.352 145.098 195.981 145.12C201.61 145.142 206.14 153.458 206.1 163.695C206.06 173.932 201.465 182.213 195.836 182.191Z" fill="url(#paint2_linear_1258_24061)"/>
<path d="M194.882 178.762C190.79 178.746 187.499 171.968 187.531 163.622C187.564 155.277 190.908 148.524 195 148.54C199.092 148.556 202.383 155.335 202.35 163.68C202.318 172.026 198.974 178.778 194.882 178.762Z" fill="#13192E"/>
<path d="M174.342 117.397L177.227 114.584L181.523 114.27C183.036 114.156 184.222 112.298 184.231 110.015C184.241 107.671 182.978 105.743 181.405 105.737L178.895 105.727C177.473 105.722 176.168 106.979 175.585 108.929L174.911 111.15L172.392 113.363C171.512 114.141 171.354 115.973 172.075 117.058C172.707 117.931 173.644 118.085 174.342 117.397Z" fill="#0EA971"/>
<path d="M220.168 170.269C220.157 173.063 217.761 174.766 209.595 174.734C201.43 174.702 168.954 173.224 162.21 173.197C155.466 173.171 80.9811 172.009 80.9811 172.009C80.9811 172.009 75.9383 139.003 93.2479 136.337C110.558 133.671 220.168 170.269 220.168 170.269Z" fill="#13192E"/>
<path d="M108.482 184.945C98.5943 184.906 90.617 174.989 90.6646 162.794C90.7122 150.599 98.7666 140.745 108.655 140.783C118.543 140.822 126.52 150.739 126.472 162.934C126.425 175.129 118.37 184.983 108.482 184.945Z" fill="url(#paint3_linear_1258_24061)"/>
<path d="M99.0671 140.746L108.654 140.783L108.482 184.914L98.8949 184.877L99.0671 140.746Z" fill="url(#paint4_linear_1258_24061)"/>
<path d="M98.8949 184.907C91.362 184.878 85.294 174.968 85.3415 162.773C85.3891 150.578 91.5343 140.716 99.0673 140.746C106.6 140.775 112.668 150.685 112.621 162.88C112.573 175.075 106.428 184.937 98.8949 184.907Z" fill="url(#paint5_linear_1258_24061)"/>
<path d="M97.6408 180.816C92.1623 180.795 87.7526 172.721 87.7914 162.782C87.8302 152.844 92.3028 144.805 97.7813 144.826C103.26 144.847 107.669 152.921 107.631 162.86C107.592 172.798 103.119 180.837 97.6408 180.816Z" fill="#151C32"/>
<path d="M97.6965 166.306C96.7443 166.303 95.978 164.887 95.9848 163.145C95.9916 161.403 96.7689 159.993 97.7211 159.997C98.6732 160.001 99.4396 161.416 99.4328 163.158C99.426 164.901 98.6486 166.31 97.6965 166.306Z" fill="url(#paint6_linear_1258_24061)"/>
<path d="M97.6375 181.567C103.202 181.589 107.801 173.345 107.841 163.161C107.88 153.007 103.376 144.698 97.7815 144.676C92.2168 144.654 87.6179 152.898 87.5781 163.082C87.5384 173.266 92.0426 181.545 97.6375 181.567ZM97.7766 145.938C102.978 145.958 107.182 153.695 107.145 163.188C107.108 172.682 102.844 180.356 97.6423 180.336C92.4406 180.315 88.2367 172.578 88.2736 163.115C88.3107 153.622 92.5748 145.917 97.7766 145.938Z" fill="url(#paint7_linear_1258_24061)"/>
<path d="M97.7047 164.353L99.713 145.705C99.713 145.705 96.9342 144.793 95.5698 145.689L97.7047 164.353Z" fill="url(#paint8_linear_1258_24061)"/>
<path d="M97.0715 163.511L107.425 161.148C107.425 161.148 107.052 156.009 106.183 153.962L97.0715 163.511Z" fill="url(#paint9_linear_1258_24061)"/>
<path d="M97.3204 162.159L101.699 179.36C101.699 179.36 104.278 177.117 105.073 174.927L97.3204 162.159Z" fill="url(#paint10_linear_1258_24061)"/>
<path d="M98.1062 162.162L90.4645 175.14C90.4645 175.14 92.4157 178.873 93.8041 179.6L98.1062 162.162Z" fill="url(#paint11_linear_1258_24061)"/>
<path d="M98.343 163.515L89.2445 154.346C89.2445 154.346 87.8959 158.908 87.9462 161.522L98.343 163.515Z" fill="url(#paint12_linear_1258_24061)"/>
<path d="M5.80619 177.123C-2.72888 177.09 -9.6146 168.522 -9.57348 157.986C-9.53237 147.45 -2.58 138.937 5.95507 138.97C14.4901 139.003 21.3759 147.571 21.3347 158.107C21.2936 168.642 14.3413 177.156 5.80619 177.123Z" fill="url(#paint13_linear_1258_24061)"/>
<path d="M220.997 174.778C225.672 170.17 229.536 164.327 229.536 164.327L229.615 144.019C229.615 144.019 224.372 131.321 179.977 115.345C179.977 115.345 164.46 100.324 138.553 89.7079C105.238 86.3634 57.697 85.9075 49.7704 86.6276C37.5177 87.6913 23.2839 92.6829 7.02904 104.066C-9.19557 115.448 -19.6507 120.875 -21.3174 129.491C-22.7677 136.875 -20.6011 155.18 -20.2896 160.588C-20.2327 161.52 -19.8732 162.392 -19.2711 163.116L-15.5345 166.585C-15.5345 166.585 -21.1698 138.143 -4.44545 138.209C12.2789 138.274 8.85379 171.217 8.85379 171.217L86.3284 173.472C85.3628 157.426 85.7635 139.973 99.8002 139.006C116.045 137.898 118.751 157.556 118.685 174.379L164.957 174.56L169.298 170.281L217.082 170.467L220.997 174.778Z" fill="#5FCF86"/>
<path d="M50.2672 90.9554C57.258 89.781 63.0634 90.1341 66.8382 91.5608C70.6131 92.9875 82.8446 105.112 87.571 110.688C92.2976 116.235 92.2911 117.887 92.2848 119.509C92.2785 121.131 85.1832 133.571 84.4248 141.92C83.6664 150.269 82.1447 160.447 83.2741 165.529L38.8474 165.355C38.8776 165.355 37.4713 107.218 50.2672 90.9554Z" fill="#5FCF86"/>
<path d="M50.2675 90.9553C47.3719 96.7121 41.424 109.637 39.7023 124.591C38.0107 139.576 37.8354 161.235 37.8195 165.321C33.1621 165.303 13.1413 165.225 13.1413 165.225C12.3414 145.454 8.682 137.689 2.10183 134.388C2.11672 130.573 2.42125 114.532 5.46523 109.497C8.53946 104.462 33.9886 85.2438 50.2675 90.9553Z" fill="#5FCF86"/>
<path d="M215.355 140.298C217.653 140.307 222.823 148.408 222.823 148.408C222.823 148.408 219.286 163.656 215.253 166.374C211.225 167.71 176.298 166.673 176.298 166.673C176.298 166.673 163.645 154.096 161.819 149.372C162.739 146.011 170.682 141.175 171.744 140.158C180.516 139.832 192.579 140.87 196.874 140.887C201.168 140.904 211.058 140.912 215.355 140.298Z" fill="url(#paint14_linear_1258_24061)"/>
<path d="M162.342 139.55C159.755 143.536 158.384 146.264 156.234 147.007C154.083 147.78 135.879 147.168 129.413 145.761C122.916 144.383 115.618 138.977 115.091 134.619C115.569 128.312 127.81 130.072 131.47 130.087C135.129 130.101 158.508 137.793 162.342 139.55Z" fill="#5DDCAF"/>
<path d="M217.595 139.406C217.592 140.307 221.502 145.821 222.833 145.826C224.164 145.831 226.297 141.844 226.305 139.831C226.312 137.848 220.16 133.167 218.465 133.551C216.77 133.935 217.6 138.174 217.595 139.406Z" fill="#5DDCAF"/>
<path d="M63.542 91.6379C72.7743 97.3218 84.9121 110.197 88.1905 114.836C91.4689 119.476 64.167 117.477 53.2191 117.434C42.2409 117.391 44.1737 118.089 44.1828 115.776C44.1905 113.794 48.3364 97.647 52.9261 91.7467C53.6255 90.788 62.4848 91.3033 63.542 91.6379Z" fill="url(#paint15_linear_1258_24061)"/>
<path d="M47.5753 91.005C49.2961 91.7928 40.6412 108.643 40.0667 116.361C34.7728 116.701 12.0021 116.072 9.29064 113.387C9.54043 111.375 15.5935 102.507 26.0809 96.539C32.2036 93.078 41.4375 90.5905 47.5753 91.005Z" fill="url(#paint16_linear_1258_24061)"/>
<path d="M71.6798 91.0387C80.0712 95.1872 93.9377 114.588 97.3821 115.443C100.827 116.298 174.325 114.512 174.325 114.512C167.1 105.891 145.399 94.7511 139.784 91.9654C134.14 89.1795 80.3059 89.2999 71.6798 91.0387Z" fill="url(#paint17_linear_1258_24061)"/>
<path d="M142.716 139.143C142.918 141.518 141.398 143.615 139.34 143.787C137.283 143.96 135.414 142.18 135.212 139.775C135.01 137.401 136.53 135.304 138.587 135.131C140.675 134.959 142.513 136.769 142.716 139.143Z" fill="white"/>
<path d="M150.844 140.858C151.017 142.841 149.74 144.579 148.016 144.722C146.291 144.866 144.754 143.388 144.581 141.374C144.407 139.39 145.684 137.653 147.409 137.509C149.133 137.366 150.67 138.844 150.844 140.858Z" fill="white"/>
<path d="M145.377 169.918C143.49 169.91 141.968 167.833 141.977 165.277C141.987 162.722 143.526 160.657 145.413 160.664C147.301 160.671 148.823 162.749 148.813 165.304C148.803 167.859 147.265 169.925 145.377 169.918Z" fill="#0EA971"/>
<path d="M147.604 165.299C147.597 166.952 146.594 168.3 145.384 168.295C144.144 168.29 143.181 166.934 143.188 165.282C143.194 163.629 144.197 162.281 145.407 162.286C146.647 162.291 147.61 163.647 147.604 165.299Z" fill="#0EA971"/>
<path d="M226.212 163.774C226.203 166.027 225.016 167.825 223.595 167.819C222.143 167.814 221.001 166.007 221.009 163.753C221.018 161.5 222.205 159.702 223.626 159.707C225.048 159.713 226.221 161.52 226.212 163.774Z" fill="#0EA971"/>
<path d="M225.304 163.77C225.299 165.212 224.538 166.411 223.6 166.407C222.663 166.404 221.911 165.229 221.917 163.757C221.923 162.285 222.683 161.116 223.621 161.12C224.528 161.123 225.31 162.298 225.304 163.77Z" fill="#0EA971"/>
<path d="M183.247 160.962L211.191 161.071C211.645 161.073 212.039 160.714 212.041 160.233L212.063 154.585C212.065 154.134 211.703 153.742 211.22 153.741L183.275 153.632C182.822 153.63 182.427 153.989 182.425 154.469L182.403 160.117C182.431 160.598 182.793 160.96 183.247 160.962Z" fill="url(#paint18_linear_1258_24061)"/>
<path d="M194.848 148.42L200.231 148.441C201.411 148.445 202.383 147.487 202.387 146.316C202.392 145.144 201.428 144.179 200.248 144.174L194.864 144.153C193.685 144.149 192.713 145.106 192.709 146.278C192.704 147.45 193.668 148.415 194.848 148.42Z" fill="url(#paint19_linear_1258_24061)"/>
<path d="M79.3697 119.879L74.9955 117.038L68.4643 116.682C66.1663 116.553 64.3893 114.684 64.3982 112.401C64.4073 110.057 66.3503 108.142 68.7093 108.151L72.5501 108.166C74.7276 108.175 76.6582 109.444 77.5277 111.4L78.517 113.627L82.3189 115.865C83.6466 116.652 83.8814 118.485 82.7582 119.562C81.8474 120.46 80.4557 120.575 79.3697 119.879Z" fill="#0EA971"/>
<path d="M54.4795 127.684C54.4759 128.615 53.1124 129.241 50.5717 129.231C48.0311 129.221 42.8302 128.87 42.6556 127.097C43.8387 126.2 52.9101 126.806 54.4795 127.684Z" fill="#0EA971"/>
<path d="M15.5166 122.274C15.513 123.206 14.4217 123.832 12.3952 123.824C10.3688 123.816 6.19618 123.47 6.05187 121.696C6.993 120.799 14.2497 121.398 15.5166 122.274Z" fill="#0EA971"/>
</g>
<path d="M131.811 15.1103C119.205 15.1715 109.041 25.4485 109.093 38.0826C109.155 53.3638 132.066 77.659 132.066 77.659C132.066 77.659 154.779 53.4233 154.715 37.8614C154.664 25.2474 144.397 15.0493 131.811 15.1103ZM131.964 52.6114C123.9 52.6505 117.31 46.1247 117.277 38.0228C117.244 29.9411 123.76 23.3316 131.844 23.2924C139.928 23.2532 146.498 29.7792 146.531 37.881C146.544 45.9829 140.028 52.5723 131.964 52.6114Z" fill="#F26A2B"/>
</g>
<defs>
<linearGradient id="paint0_linear_1258_24061" x1="202.99" y1="182.284" x2="203.204" y2="127.417" gradientUnits="userSpaceOnUse">
<stop stop-color="#2C3E63"/>
<stop offset="1" stop-color="#13192E"/>
</linearGradient>
<linearGradient id="paint1_linear_1258_24061" x1="199.406" y1="182.27" x2="199.62" y2="127.403" gradientUnits="userSpaceOnUse">
<stop stop-color="#2C3E63"/>
<stop offset="1" stop-color="#13192E"/>
</linearGradient>
<linearGradient id="paint2_linear_1258_24061" x1="195.821" y1="182.256" x2="196.035" y2="127.389" gradientUnits="userSpaceOnUse">
<stop stop-color="#2C3E63"/>
<stop offset="1" stop-color="#13192E"/>
</linearGradient>
<linearGradient id="paint3_linear_1258_24061" x1="108.482" y1="185.027" x2="108.737" y2="119.646" gradientUnits="userSpaceOnUse">
<stop stop-color="#2C3E63"/>
<stop offset="1" stop-color="#13192E"/>
</linearGradient>
<linearGradient id="paint4_linear_1258_24061" x1="103.681" y1="185.008" x2="103.936" y2="119.627" gradientUnits="userSpaceOnUse">
<stop stop-color="#2C3E63"/>
<stop offset="1" stop-color="#13192E"/>
</linearGradient>
<linearGradient id="paint5_linear_1258_24061" x1="98.8816" y1="184.99" x2="99.1367" y2="119.608" gradientUnits="userSpaceOnUse">
<stop stop-color="#2C3E63"/>
<stop offset="1" stop-color="#13192E"/>
</linearGradient>
<linearGradient id="paint6_linear_1258_24061" x1="97.6247" y1="182.363" x2="97.7672" y2="145.847" gradientUnits="userSpaceOnUse">
<stop stop-color="#EBEFF7"/>
<stop offset="1" stop-color="#B3B6C2"/>
</linearGradient>
<linearGradient id="paint7_linear_1258_24061" x1="97.6254" y1="182.361" x2="97.7678" y2="145.848" gradientUnits="userSpaceOnUse">
<stop stop-color="#EBEFF7"/>
<stop offset="1" stop-color="#B3B6C2"/>
</linearGradient>
<linearGradient id="paint8_linear_1258_24061" x1="97.4983" y1="182.36" x2="97.6408" y2="145.848" gradientUnits="userSpaceOnUse">
<stop stop-color="#EBEFF7"/>
<stop offset="1" stop-color="#B3B6C2"/>
</linearGradient>
<linearGradient id="paint9_linear_1258_24061" x1="102.159" y1="182.381" x2="102.302" y2="145.865" gradientUnits="userSpaceOnUse">
<stop stop-color="#EBEFF7"/>
<stop offset="1" stop-color="#B3B6C2"/>
</linearGradient>
<linearGradient id="paint10_linear_1258_24061" x1="101.131" y1="182.374" x2="101.274" y2="145.862" gradientUnits="userSpaceOnUse">
<stop stop-color="#EBEFF7"/>
<stop offset="1" stop-color="#B3B6C2"/>
</linearGradient>
<linearGradient id="paint11_linear_1258_24061" x1="94.2219" y1="182.347" x2="94.3644" y2="145.835" gradientUnits="userSpaceOnUse">
<stop stop-color="#EBEFF7"/>
<stop offset="1" stop-color="#B3B6C2"/>
</linearGradient>
<linearGradient id="paint12_linear_1258_24061" x1="93.05" y1="182.345" x2="93.1925" y2="145.83" gradientUnits="userSpaceOnUse">
<stop stop-color="#EBEFF7"/>
<stop offset="1" stop-color="#B3B6C2"/>
</linearGradient>
<linearGradient id="paint13_linear_1258_24061" x1="5.80583" y1="177.214" x2="6.02624" y2="120.73" gradientUnits="userSpaceOnUse">
<stop stop-color="#2C3E63"/>
<stop offset="1" stop-color="#13192E"/>
</linearGradient>
<linearGradient id="paint14_linear_1258_24061" x1="222.811" y1="153.689" x2="161.824" y2="153.451" gradientUnits="userSpaceOnUse">
<stop stop-color="#2C3E63"/>
<stop offset="1" stop-color="#13192E"/>
</linearGradient>
<linearGradient id="paint15_linear_1258_24061" x1="88.4988" y1="104.647" x2="44.0699" y2="104.474" gradientUnits="userSpaceOnUse">
<stop stop-color="#2C3E63"/>
<stop offset="1" stop-color="#13192E"/>
</linearGradient>
<linearGradient id="paint16_linear_1258_24061" x1="47.7707" y1="103.722" x2="9.36039" y2="103.572" gradientUnits="userSpaceOnUse">
<stop stop-color="#2C3E63"/>
<stop offset="1" stop-color="#13192E"/>
</linearGradient>
<linearGradient id="paint17_linear_1258_24061" x1="131.628" y1="93.4477" x2="103.701" y2="124.077" gradientUnits="userSpaceOnUse">
<stop stop-color="#2C3E63"/>
<stop offset="1" stop-color="#13192E"/>
</linearGradient>
<linearGradient id="paint18_linear_1258_24061" x1="180.489" y1="147.677" x2="224.341" y2="173.362" gradientUnits="userSpaceOnUse">
<stop stop-color="#EBEFF7"/>
<stop offset="1" stop-color="#B3B6C2"/>
</linearGradient>
<linearGradient id="paint19_linear_1258_24061" x1="197.549" y1="144.159" x2="197.539" y2="146.724" gradientUnits="userSpaceOnUse">
<stop stop-color="#EBEFF7"/>
<stop offset="1" stop-color="#B3B6C2"/>
</linearGradient>
<clipPath id="clip0_1258_24061">
<rect width="240" height="240" fill="white"/>
</clipPath>
</defs>
</svg>
