<svg width="201" height="200" viewBox="0 0 201 200" fill="none" xmlns="http://www.w3.org/2000/svg">
<path d="M149.922 175.955L39.2894 182.194C28.8988 182.781 19.9905 174.816 19.3969 164.398L12.9283 50.6505C12.336 40.2404 20.2888 31.3193 30.6793 30.7325L141.31 24.485C151.701 23.8982 160.609 31.8635 161.203 42.2815L167.673 156.037C168.257 166.448 160.312 175.368 149.922 175.955Z" fill="#C6F1E2"/>
<mask id="mask0_155_11679" style="mask-type:alpha" maskUnits="userSpaceOnUse" x="12" y="24" width="156" height="159">
<path d="M149.487 176.17L38.8548 182.409C28.4643 182.996 19.5559 175.031 18.9623 164.613L12.4937 50.8655C11.9014 40.4554 19.8542 31.5343 30.2448 30.9474L140.876 24.7C151.266 24.1132 160.175 32.0785 160.768 42.4965L167.238 156.252C167.823 166.663 159.878 175.583 149.487 176.17Z" fill="#EFFAF3"/>
</mask>
<g mask="url(#mask0_155_11679)">
<path d="M149.487 176.17L38.8543 182.409C28.4638 182.996 19.5554 175.031 18.9618 164.613L12.4932 50.8655C11.9009 40.4554 19.8538 31.5343 30.2443 30.9474L140.875 24.7C151.266 24.1132 160.174 32.0785 160.768 42.4965L167.238 156.252C167.822 166.663 159.877 175.583 149.487 176.17Z" fill="#EFFAF3"/>
<path d="M83.137 83.1845L85.5195 83.7103L86.2218 94.457L77.9901 92.6424C75.1991 92.029 73.4391 89.273 74.0526 86.482C74.4073 84.8816 75.4685 83.6086 76.8388 82.9457C77.8493 82.4486 79.0308 82.2847 80.213 82.5444L83.137 83.1845Z" fill="#F5C2A2"/>
<path d="M91.1107 84.9443L91.6577 93.3238L90.2489 95.349L88.9326 95.054L86.2214 94.4567L85.5191 83.71L89.9913 84.7027L91.1107 84.9443Z" fill="black"/>
<path d="M83.9481 95.6454L86.3305 96.1712L87.0328 106.918L78.8012 105.103C76.0101 104.49 74.2502 101.734 74.8636 98.9429C75.2184 97.3425 76.2795 96.0696 77.6499 95.4067C78.6603 94.9095 79.8418 94.7456 81.024 95.0053L83.9481 95.6454Z" fill="#FF8A98"/>
<path d="M91.9223 97.4052L92.4692 105.785L91.0604 107.81L89.7441 107.515L87.0329 106.918L86.3306 96.1709L90.8018 97.1552L91.9223 97.4052Z" fill="black"/>
<path d="M83.9473 95.6376L86.3298 96.1633L87.0321 106.91L78.8004 105.095C76.0179 104.481 74.2494 101.726 74.8724 98.9425C75.2272 97.3421 76.2884 96.0691 77.6587 95.4063C78.6691 94.9091 79.8506 94.7452 81.0328 95.0049L83.9473 95.6376Z" fill="#F5C2A2"/>
<path d="M84.7669 108.099L87.1494 108.624L87.8517 119.371L79.62 117.556C76.829 116.943 75.069 114.187 75.6824 111.396C76.0372 109.796 77.0984 108.523 78.4687 107.86C79.4792 107.363 80.6607 107.199 81.8429 107.458L84.7669 108.099Z" fill="#F5C2A2"/>
<path d="M92.7326 109.859L93.2795 118.239L91.8792 120.263L90.5545 119.969L87.8517 119.371L87.1494 108.624L91.6132 109.618L92.7326 109.859Z" fill="black"/>
<path d="M125.243 41.2209L89.932 43.5272C87.4446 43.6889 85.5664 45.8327 85.727 48.3116L90.0111 113.916L90.853 126.763C91.0147 129.251 93.1586 131.129 95.6374 130.968L130.948 128.662C133.427 128.501 135.305 126.357 135.145 123.879L134.303 111.031L130.019 45.427C129.865 42.9385 127.722 41.0603 125.243 41.2209Z" fill="white"/>
<path d="M85.7274 48.3173L90.0115 113.921L134.311 111.027L130.026 45.4231C129.865 42.9357 127.721 41.0575 125.242 41.218L89.9314 43.5244C87.4441 43.686 85.5658 45.8299 85.7274 48.3173Z" fill="#E4ECF9"/>
<path d="M90.0118 113.923L90.8538 126.77C91.0154 129.258 93.1593 131.136 95.6382 130.975L130.949 128.669C133.428 128.509 135.306 126.365 135.145 123.886L134.303 111.038L90.0118 113.923Z" fill="white"/>
<path d="M129.21 115.975L95.6968 118.16L96.1909 125.738L129.704 123.553L129.21 115.975Z" fill="#35D199"/>
<path d="M96.6178 71.3486L97.1479 79.5228L89.6602 80.0109L89.7116 80.8432L97.1993 80.3551L97.8018 89.601L90.3142 90.0892L90.3656 90.9215L97.8532 90.4334L99.1224 109.86L102.442 109.647L101.805 99.843L112.217 99.1649L114.676 95.8423L117.964 97.8813L108.984 109.483L110.091 109.415L123.423 92.1976L131.604 98.3416L131.321 93.9672L126.372 90.2494L125.607 78.5076L130.298 78.2021L130.247 77.3698L125.555 77.6753L124.59 62.932L129.282 62.6265L129.231 61.7942L124.539 62.0997L123.697 49.1828L120.377 49.3959L121.219 62.3127L113.706 62.804L112.864 49.8872L110.368 50.0499L111.21 62.9668L103.354 63.4833L91.0782 51.3022L89.9713 51.3703L107.215 68.4687L100.066 73.1429L99.8219 69.4379L88.5013 62.2396L88.77 66.3564L96.6178 71.3486ZM111.399 65.7447L107.936 68.0074L104.151 64.2577L111.278 63.7884L111.399 65.7447ZM122.234 77.8798L109.66 78.6965L109.109 70.2137L113.988 67.0231L113.764 63.6183L121.27 63.1365L122.234 77.8798ZM101.18 90.2107L113.772 89.392L114.151 95.1639L111.787 98.345L101.761 99.0011L101.18 90.2107ZM100.526 80.1325L122.286 78.7121L123.107 91.2512L118.479 97.2293L114.974 95.0444L114.551 88.4997L101.129 89.3784L100.526 80.1325ZM100.257 76.0071L108.311 70.7451L108.829 78.7564L100.475 79.3002L100.257 76.0071Z" fill="white"/>
<path d="M92.375 110.289L96.562 110.016L95.38 91.8892L91.193 92.1622L92.375 110.289Z" fill="#DDEFFF"/>
<path d="M118.983 107.611L126.42 97.9922L123.46 95.704L116.024 105.323L118.983 107.611Z" fill="#DDEFFF"/>
<path d="M116.326 90.4389L120.932 90.1385L120.315 80.6686L115.708 80.969L116.326 90.4389Z" fill="#DDEFFF"/>
<path d="M103.243 86.725L113.972 86.0254L113.651 81.1021L102.922 81.8017L103.243 86.725Z" fill="#DDEFFF"/>
<path d="M90.9761 88.7574L95.1631 88.4844L94.7622 82.3366L90.5752 82.6097L90.9761 88.7574Z" fill="#DDEFFF"/>
<path d="M104.723 109.483L106.88 109.342L106.356 101.302L104.198 101.442L104.723 109.483Z" fill="#DDEFFF"/>
<path d="M114.459 75.2132L111.638 75.399L111.77 77.3021L119.677 76.7792L119.005 66.487L114.084 69.4753L114.459 75.2132Z" fill="#DDEFFF"/>
<path d="M102.835 76.3018L102.935 77.8717L106.975 77.6125L106.735 73.9331L102.835 76.3018Z" fill="#DDEFFF"/>
<path d="M101.351 69.7872L103.329 69.6582L103.078 65.8137L101.1 65.9427L101.351 69.7872Z" fill="#DDEFFF"/>
<path d="M94.06 62.7429L97.5112 66.1719L99.6642 64.0049L96.2129 60.5759L94.06 62.7429Z" fill="#DDEFFF"/>
<path d="M90.4133 59.1197L91.9106 60.6074L94.0636 58.4405L92.5662 56.9528L90.4133 59.1197Z" fill="#DDEFFF"/>
<path d="M115.225 61.8902L118.693 61.6641L118.544 59.3865L115.077 59.6126L115.225 61.8902Z" fill="#DDEFFF"/>
<path d="M114.95 57.6636L118.418 57.4375L118.09 52.4029L114.622 52.629L114.95 57.6636Z" fill="#DDEFFF"/>
<path d="M108.322 64.6406C108.855 64.6091 109.319 65.0097 109.352 65.5504C109.383 66.0826 108.983 66.5473 108.442 66.5798C107.91 66.6112 107.445 66.2107 107.413 65.67C107.381 65.1378 107.79 64.672 108.322 64.6406Z" fill="#DDEFFF"/>
<path d="M114.995 97.5753C115.527 97.5438 115.992 97.9444 116.024 98.4851C116.056 99.0173 115.655 99.482 115.114 99.5145C114.582 99.546 114.117 99.1454 114.085 98.6047C114.053 98.0725 114.455 97.6163 114.995 97.5753Z" fill="#DDEFFF"/>
<path d="M127.543 75.2549L129.144 75.1505L128.466 64.7473L126.864 64.8517L127.543 75.2549Z" fill="#DDEFFF"/>
<path d="M126.019 51.8779L127.621 51.7734L127.435 48.9307L125.834 49.0352L126.019 51.8779Z" fill="#DDEFFF"/>
<path d="M103.946 62.1888L109.117 61.8516L108.356 50.1726L103.184 50.5098L103.946 62.1888Z" fill="#DDEFFF"/>
<path d="M125.874 108.106L131.277 107.754L130.925 102.351L125.522 102.703L125.874 108.106Z" fill="#DDEFFF"/>
<path d="M97.2685 54.5434L100.899 54.3066L100.662 50.6762L97.0318 50.913L97.2685 54.5434Z" fill="#DDEFFF"/>
<path d="M128.189 85.1005L129.79 84.9961L129.509 80.6807L127.907 80.7851L128.189 85.1005Z" fill="#DDEFFF"/>
<path d="M90.0454 74.5172L94.2324 74.2441L94.1001 72.2149L89.9131 72.4879L90.0454 74.5172Z" fill="#DDEFFF"/>
<path d="M112.255 66.0916L111.579 55.8346L112.41 55.7746L113.112 66.5213L99.0768 75.8371L100.586 99.0813L107.576 98.6203L107.627 99.4527L99.8139 99.9639L98.2109 75.4084L112.255 66.0916Z" fill="#5CB3FF"/>
<path d="M112.163 57.0591C112.854 56.9733 113.345 56.3433 113.259 55.652C113.174 54.9607 112.544 54.4698 111.852 54.5556C111.161 54.6414 110.67 55.2714 110.756 55.9627C110.842 56.654 111.472 57.1449 112.163 57.0591Z" fill="white"/>
<path d="M111.959 55C112.405 54.9706 112.793 55.3115 112.813 55.75C112.843 56.196 112.502 56.5841 112.063 56.604C111.617 56.6334 111.229 56.2924 111.209 55.8539C111.171 55.409 111.513 55.0294 111.959 55Z" fill="#37A385"/>
<path d="M106.426 98.6932L108.862 98.5379C108.692 98.0056 108.17 97.6294 107.587 97.6672C106.995 97.7061 106.531 98.1441 106.426 98.6932Z" fill="white"/>
<path d="M106.404 99.0075C106.419 99.1959 106.467 99.3716 106.555 99.5249C106.78 99.9466 107.238 100.218 107.743 100.182C108.257 100.144 108.667 99.8248 108.836 99.3716C108.902 99.2077 108.932 99.0311 108.917 98.8427C108.913 98.7395 108.892 98.6383 108.854 98.5393L106.417 98.6946C106.405 98.8 106.4 98.9043 106.404 99.0075Z" fill="white"/>
<path d="M107.617 98.1131C108.062 98.0837 108.451 98.4247 108.47 98.8632C108.5 99.3091 108.159 99.6973 107.72 99.7171C107.274 99.7465 106.886 99.4056 106.866 98.9671C106.83 98.5307 107.171 98.1425 107.617 98.1131Z" fill="#37A385"/>
<path d="M106.958 90.9896C107.017 90.9822 107.085 90.9738 107.146 90.9749C107.206 90.9675 107.275 90.9675 107.336 90.9687C109.556 90.9526 110.91 93.4389 109.773 95.3525L107.665 98.917L105.107 95.6548C103.74 93.905 104.752 91.2633 106.958 90.9896Z" fill="#5FCF86"/>
<path d="M119.341 50.6577C120.222 51.6291 120.15 53.1339 119.178 54.0153C118.207 54.8967 116.702 54.8241 115.821 53.8527C114.939 52.8812 115.012 51.3764 115.983 50.495C116.954 49.6051 118.46 49.6863 119.341 50.6577Z" fill="white"/>
<path d="M117.988 51.8804L119.471 52.5437L116.263 53.4433L117.468 50.3367L117.988 51.8804Z" fill="#5FCF86"/>
<path d="M125.187 40.4241L89.8761 42.7304C86.9598 42.9194 84.7407 45.4514 84.9296 48.3677L90.0482 126.829C90.2371 129.745 92.7692 131.964 95.6855 131.776L130.996 129.469C131.099 129.465 131.202 129.452 131.304 129.44C132.659 129.28 133.837 128.606 134.676 127.629C135.544 126.614 136.035 125.273 135.943 123.832L130.824 45.3706C130.635 42.4543 128.103 40.2351 125.187 40.4241ZM91.6511 126.717L86.5325 48.2553C86.4013 46.2224 87.9461 44.4571 89.9875 44.3248L125.298 42.0185C127.34 41.8862 129.105 43.431 129.237 45.4724L134.356 123.934C134.488 125.975 132.943 127.74 130.902 127.873L95.5911 130.179C93.5497 130.311 91.7834 128.758 91.6511 126.717Z" fill="black"/>
<path d="M109.38 88.8418C109.465 89.5922 109.832 90.2555 110.366 90.7254C110.948 91.2325 111.718 91.5174 112.533 91.4681L115.464 91.3292L115.281 88.4554L109.38 88.8418Z" fill="white"/>
<path d="M131.649 153.131L162.758 151.104L157.907 131.802C157.897 131.786 157.879 131.78 157.869 131.772L147.183 89.0625L133.013 78.8975L134.057 94.9106L129.79 90.8316C127.721 88.8576 124.922 87.8387 122.074 88.0192L115.281 88.4558L115.464 91.3295L112.533 91.4684C111.719 91.5262 110.948 91.2328 110.366 90.7257C109.832 90.2559 109.464 89.5925 109.38 88.8421L105.88 89.0688L106.013 91.0411C106.091 92.3023 106.487 93.4723 107.106 94.485C108.297 96.4209 110.349 97.7659 112.739 98.0054L122.484 98.9838L128.556 107.084L129.732 125.139C129.83 126.622 130.344 128.046 131.201 129.236C131.243 129.3 131.294 129.363 131.345 129.426C131.337 129.427 131.32 129.429 131.311 129.43C131.209 129.443 131.107 129.456 131.003 129.46L115.857 130.449L118.359 132.568L131.004 143.259L131.649 153.131Z" fill="#F5C2A2"/>
<path d="M134.057 94.9093L139.855 100.45L142.489 92.9033L142.32 90.2179L134.057 94.9093Z" fill="black"/>
<path d="M133.516 131.585L118.36 132.575L114.979 129.709L131.346 129.433C131.647 129.837 131.986 130.201 132.357 130.544L133.302 131.395L133.516 131.585Z" fill="black"/>
<path d="M138.285 142.789L131.007 143.264L131.105 144.771L138.383 144.296L138.285 142.789Z" fill="black"/>
<path d="M169.597 176.885L167.705 147.904C167.54 145.322 165.986 143.041 163.653 141.939L160.034 140.226L119.97 158.435L133.352 179.255L169.597 176.885Z" fill="#F26524"/>
<path d="M100.794 122.985L100.582 119.827L102.036 119.73C102.07 119.727 102.114 119.726 102.168 119.725C102.222 119.723 102.272 119.724 102.318 119.728C102.524 119.742 102.696 119.792 102.834 119.876C102.974 119.961 103.08 120.073 103.154 120.211C103.228 120.349 103.272 120.505 103.283 120.678C103.295 120.851 103.273 121.011 103.217 121.159C103.162 121.305 103.07 121.429 102.943 121.532C102.817 121.634 102.654 121.706 102.454 121.747C102.409 121.756 102.359 121.764 102.304 121.771C102.25 121.777 102.207 121.782 102.174 121.784L101.309 121.842L101.383 122.945L100.794 122.985ZM101.276 121.349L102.117 121.292C102.149 121.29 102.186 121.286 102.226 121.28C102.267 121.275 102.304 121.266 102.338 121.255C102.434 121.227 102.508 121.183 102.559 121.124C102.613 121.064 102.648 120.999 102.667 120.927C102.686 120.855 102.694 120.786 102.689 120.718C102.685 120.651 102.668 120.583 102.639 120.515C102.611 120.445 102.567 120.384 102.506 120.332C102.447 120.28 102.368 120.247 102.269 120.231C102.234 120.225 102.196 120.222 102.155 120.224C102.114 120.223 102.077 120.225 102.045 120.227L101.204 120.283L101.276 121.349Z" fill="white"/>
<path d="M105.711 122.654L105.499 119.496L106.088 119.457L106.3 122.614L105.711 122.654Z" fill="white"/>
<path d="M110.271 122.412C109.919 122.436 109.613 122.388 109.353 122.267C109.093 122.145 108.887 121.965 108.735 121.728C108.585 121.489 108.498 121.208 108.476 120.882C108.455 120.556 108.502 120.265 108.619 120.009C108.738 119.752 108.918 119.547 109.159 119.393C109.401 119.237 109.698 119.147 110.05 119.124C110.456 119.096 110.8 119.165 111.083 119.33C111.365 119.493 111.572 119.725 111.702 120.026L111.118 120.213C111.035 120.011 110.908 119.858 110.736 119.754C110.563 119.648 110.346 119.604 110.083 119.621C109.847 119.637 109.653 119.698 109.501 119.804C109.351 119.909 109.242 120.051 109.174 120.229C109.107 120.405 109.081 120.609 109.095 120.84C109.11 121.071 109.163 121.27 109.253 121.437C109.344 121.603 109.472 121.728 109.637 121.812C109.801 121.896 110.002 121.931 110.238 121.915C110.5 121.897 110.71 121.824 110.866 121.696C111.023 121.568 111.129 121.4 111.183 121.19L111.787 121.297C111.699 121.613 111.526 121.871 111.267 122.072C111.009 122.272 110.677 122.385 110.271 122.412Z" fill="white"/>
<path d="M114.133 122.086L113.921 118.929L114.51 118.89L114.608 120.354L115.915 118.795L116.639 118.746L115.23 120.396L116.954 121.896L116.206 121.947L114.623 120.573L114.722 122.047L114.133 122.086Z" fill="white"/>
<path d="M123.096 121.549C122.815 121.568 122.565 121.533 122.345 121.445C122.126 121.357 121.95 121.224 121.817 121.047C121.686 120.869 121.611 120.656 121.595 120.406L121.461 118.426L122.057 118.381L122.19 120.352C122.198 120.471 122.227 120.575 122.277 120.666C122.329 120.756 122.396 120.832 122.477 120.892C122.558 120.952 122.649 120.995 122.751 121.021C122.852 121.048 122.956 121.058 123.062 121.051C123.171 121.044 123.274 121.02 123.369 120.98C123.466 120.938 123.551 120.882 123.623 120.813C123.695 120.742 123.75 120.658 123.788 120.562C123.826 120.465 123.84 120.359 123.833 120.242L123.7 118.271L124.296 118.23L124.43 120.215C124.447 120.465 124.401 120.686 124.293 120.88C124.187 121.074 124.03 121.229 123.823 121.346C123.619 121.462 123.376 121.53 123.096 121.549Z" fill="white"/>
<path d="M126.938 121.224L126.725 118.067L128.18 117.969C128.214 117.967 128.258 117.965 128.312 117.964C128.366 117.962 128.416 117.963 128.462 117.968C128.667 117.982 128.839 118.031 128.978 118.116C129.118 118.2 129.224 118.312 129.297 118.451C129.372 118.588 129.415 118.744 129.427 118.918C129.439 119.09 129.417 119.25 129.361 119.398C129.305 119.544 129.214 119.669 129.087 119.771C128.961 119.874 128.798 119.945 128.598 119.987C128.553 119.996 128.502 120.004 128.447 120.01C128.394 120.017 128.351 120.021 128.318 120.023L127.453 120.082L127.527 121.184L126.938 121.224ZM127.419 119.588L128.26 119.532C128.293 119.529 128.329 119.526 128.37 119.52C128.411 119.514 128.448 119.506 128.481 119.495C128.578 119.466 128.651 119.422 128.703 119.363C128.756 119.304 128.792 119.238 128.81 119.166C128.83 119.095 128.838 119.025 128.833 118.958C128.828 118.891 128.812 118.823 128.782 118.754C128.755 118.684 128.711 118.623 128.65 118.572C128.591 118.52 128.512 118.486 128.412 118.471C128.377 118.464 128.34 118.462 128.299 118.463C128.258 118.463 128.221 118.464 128.189 118.466L127.348 118.523L127.419 119.588Z" fill="white"/>
</g>
<path d="M197.551 51.516C198.923 38.1178 190.373 25.6229 177.4 22.0667C163.209 18.178 148.423 26.1076 143.851 40.1568C141.484 47.4322 142.166 54.5246 145.626 61.3416C145.844 61.7689 145.883 62.0963 145.672 62.5551C144.231 65.6856 142.832 68.8321 141.407 71.9702C141.215 72.3902 141.071 72.7947 141.39 73.2091C141.728 73.6518 142.171 73.5927 142.642 73.487C146.207 72.6873 149.776 71.8997 153.342 71.0913C153.708 71.0097 153.98 71.0611 154.289 71.2765C167.364 80.4438 185.308 76.7226 193.63 63.1248C195.79 59.6025 197.129 55.6314 197.551 51.516Z" fill="#5CB3FF"/>
<path d="M156.475 54.517L156.109 54.304L156.139 54.3233L156.475 54.517Z" fill="url(#paint0_linear_155_11679)"/>
<path d="M168.674 40.2417C169.409 40.377 170.18 40.4027 170.961 40.3055C175.101 39.7922 178.051 36.0072 177.54 31.8675C177.279 29.7512 176.126 27.8341 174.379 26.6076C172.841 25.5268 170.967 25.061 169.102 25.2916C167.097 25.5402 165.308 26.555 164.065 28.1466C162.822 29.7409 162.275 31.7225 162.523 33.7269C162.942 37.086 165.509 39.6615 168.674 40.2417ZM171.288 25.946C172.267 26.1253 173.203 26.5131 174.035 27.0978C175.643 28.2263 176.704 29.9938 176.945 31.9408C177.416 35.7529 174.7 39.2359 170.888 39.7075C167.076 40.1792 163.593 37.4633 163.122 33.6512C162.892 31.8051 163.396 29.9808 164.542 28.514C165.685 27.0469 167.332 26.1117 169.178 25.8845C169.888 25.7987 170.6 25.821 171.288 25.946Z" fill="white"/>
<path d="M168.583 42.8185C168.788 41.8503 170.219 41.103 171.433 40.9885C171.814 40.9524 172.194 40.9053 172.572 40.8473C173.78 40.662 175.348 41.0343 175.782 41.9255C176.267 42.9192 177.035 44.4354 177.035 44.4354L173.561 44.8665L171.453 45.1287L167.979 45.5598C167.979 45.5571 168.355 43.9003 168.583 42.8185ZM170.032 43.7742C170.958 43.6595 172.323 43.4905 172.323 43.4905C172.323 43.4905 173.688 43.3215 174.614 43.2068C175.54 43.0921 174.683 42.335 174.683 42.335L174.325 42.0123C174.024 41.7387 173.644 41.6078 173.273 41.6557L172.115 41.8003L170.957 41.9449C170.585 41.9901 170.247 42.2086 170.024 42.5494L169.758 42.9507C169.753 42.9474 169.106 43.8888 170.032 43.7742Z" fill="white"/>
<path d="M170.005 44.1676L172.37 43.8753L174.734 43.5831C177.465 43.2451 179.978 45.203 180.315 47.9364L181.353 60.1776C181.691 62.9084 180.195 65.3069 177.465 65.6449L175.1 65.9371L172.735 66.2294C170.004 66.5674 167.969 64.6076 167.631 61.8769L165.651 49.7513C165.316 47.0181 167.274 44.5056 170.005 44.1676Z" fill="white"/>
<path d="M171.426 48.259L172.89 48.0786L174.354 47.8982C176.044 47.6899 177.598 48.9018 177.809 50.5923L178.453 58.1695C178.661 59.8597 177.737 61.344 176.046 61.5523L174.583 61.7327L173.119 61.9131C171.429 62.1214 170.168 60.9101 169.96 59.2199L168.735 51.7148C168.524 50.0243 169.736 48.4699 171.426 48.259Z" fill="#5FCF86"/>
<path d="M177.925 52.1797L169.031 53.2803" stroke="white" stroke-width="0.9805" stroke-miterlimit="10"/>
<path d="M178.337 56.543L169.713 57.6122" stroke="white" stroke-width="0.9805" stroke-miterlimit="10"/>
<path d="M173.203 51.7328L173.372 51.7125C173.924 51.6455 174.318 51.139 174.249 50.5872L174.18 50.0248C174.172 49.9701 174.122 49.9299 174.068 49.9377L172.093 50.1813C172.039 50.1892 171.998 50.2389 172.006 50.2937L172.075 50.8561C172.148 51.4055 172.654 51.8001 173.203 51.7328Z" stroke="white" stroke-width="0.4884" stroke-miterlimit="10"/>
<path d="M173.825 49.9646L173.79 49.6779C173.741 49.2685 173.364 48.9761 172.957 49.0284C172.547 49.0778 172.255 49.4547 172.307 49.8618L172.342 50.1485" stroke="white" stroke-width="0.4884" stroke-miterlimit="10"/>
<path d="M172.932 50.5971C172.917 50.477 173.001 50.3698 173.121 50.3552C173.241 50.3407 173.349 50.4245 173.363 50.5446C173.378 50.6648 173.294 50.772 173.174 50.7866C173.054 50.8011 172.946 50.7173 172.932 50.5971Z" stroke="white" stroke-width="0.4884" stroke-miterlimit="10"/>
<path d="M173.246 51.3716L173.174 50.7873" stroke="white" stroke-width="0.4884" stroke-miterlimit="10"/>
<path d="M174.329 60.8031L174.498 60.7829C175.05 60.7158 175.444 60.2093 175.374 59.6575L175.306 59.0951C175.298 59.0404 175.248 59.0002 175.194 59.008L173.219 59.2516C173.165 59.2595 173.124 59.3092 173.132 59.364L173.201 59.9264C173.271 60.4782 173.777 60.8728 174.329 60.8031Z" stroke="white" stroke-width="0.4884" stroke-miterlimit="10"/>
<path d="M174.918 59.0426C175.081 58.558 174.843 58.1749 174.452 58.0455C174.06 57.9188 173.637 58.1339 173.507 58.5249" stroke="white" stroke-width="0.4884" stroke-miterlimit="10"/>
<path d="M174.055 59.6694C174.04 59.5493 174.124 59.442 174.244 59.4275C174.365 59.4129 174.472 59.4968 174.486 59.6169C174.501 59.737 174.417 59.8443 174.297 59.8588C174.177 59.8734 174.07 59.7895 174.055 59.6694Z" stroke="white" stroke-width="0.4884" stroke-miterlimit="10"/>
<path d="M174.368 60.4439L174.297 59.8595" stroke="white" stroke-width="0.4884" stroke-miterlimit="10"/>
<path d="M175.216 54.3247C175.226 54.253 175.231 54.1807 175.249 54.1124C175.276 54.01 175.31 53.9085 175.34 53.8064C175.356 53.7568 175.386 53.7196 175.432 53.6946C175.512 53.649 175.588 53.5975 175.654 53.5315C175.687 53.4972 175.735 53.4752 175.781 53.4529C175.829 53.4283 175.852 53.3902 175.832 53.3504C175.812 53.3079 175.77 53.2901 175.722 53.3175C175.656 53.3538 175.592 53.3958 175.528 53.4404C175.479 53.4757 175.434 53.5196 175.382 53.5493C175.285 53.604 175.218 53.6779 175.183 53.7875C175.127 53.9597 175.074 54.1295 175.066 54.3146C174.964 54.3148 174.861 54.315 174.761 54.3155C174.48 54.3215 174.199 54.3572 173.924 54.4096C173.748 54.4427 173.574 54.4867 173.399 54.536C173.329 54.5558 173.264 54.5921 173.203 54.6317C173.073 54.7153 172.946 54.7992 172.826 54.892C172.676 55.0086 172.506 55.0855 172.334 55.1593C172.1 55.2592 171.87 55.3729 171.638 55.481C171.612 55.4945 171.589 55.5137 171.563 55.5272C171.488 55.5734 171.452 55.6397 171.454 55.7262C171.459 55.8292 171.462 55.9319 171.478 56.0334C171.491 56.1156 171.553 56.1732 171.615 56.2227C171.63 56.235 171.651 56.2399 171.673 56.2395C171.778 56.2422 171.883 56.2423 171.985 56.2421C172.015 56.2424 172.036 56.2473 172.061 56.2687C172.26 56.4484 172.567 56.4073 172.711 56.1796C172.728 56.1543 172.745 56.1453 172.775 56.1403C173.465 56.0363 174.153 55.9294 174.843 55.8228C174.873 55.8178 174.889 55.8248 174.907 55.851C175.017 55.9891 175.162 56.0472 175.335 56.0139C175.503 55.98 175.614 55.8781 175.666 55.7137C175.674 55.6849 175.686 55.6727 175.717 55.6623C175.801 55.6306 175.885 55.5962 175.963 55.5503C176.055 55.4951 176.086 55.4066 176.07 55.2998C176.05 55.1765 176.025 55.0552 175.952 54.948C175.927 54.9103 175.919 54.8582 175.907 54.8112C175.882 54.7196 175.835 54.6474 175.754 54.5959C175.588 54.4817 175.421 54.3782 175.216 54.3247ZM171.938 56.097C171.879 56.0963 171.822 56.0959 171.766 56.0954C171.677 56.0943 171.625 56.0485 171.615 55.9612C171.608 55.9012 171.617 55.8428 171.609 55.7827C171.598 55.7061 171.626 55.6523 171.696 55.6218C171.705 55.6173 171.713 55.6128 171.719 55.608C171.963 55.4957 172.201 55.3801 172.446 55.276C172.599 55.2109 172.746 55.1399 172.878 55.0376C172.981 54.9565 173.093 54.8872 173.2 54.8121C173.287 54.7536 173.372 54.6923 173.477 54.6654C173.962 54.5349 174.455 54.4591 174.959 54.4626C175.102 54.4639 175.244 54.4678 175.374 54.5432C175.476 54.6022 175.577 54.6639 175.679 54.7256C175.722 54.7517 175.745 54.7891 175.759 54.8364C175.78 54.8978 175.791 54.9664 175.826 55.0212C175.889 55.1194 175.91 55.224 175.926 55.3362C175.93 55.3743 175.921 55.4058 175.887 55.4238C175.821 55.4602 175.756 55.4912 175.688 55.5246C175.585 55.247 175.408 55.129 175.172 55.172C174.946 55.2134 174.826 55.387 174.826 55.6755C174.146 55.7805 173.464 55.8853 172.78 55.9898C172.786 55.845 172.742 55.7245 172.639 55.6302C172.533 55.533 172.407 55.5011 172.264 55.5268C172.075 55.5558 171.846 55.7613 171.938 56.097ZM174.974 55.6234C174.955 55.4678 175.061 55.3277 175.217 55.3061C175.373 55.2871 175.515 55.3962 175.534 55.5492C175.553 55.7074 175.445 55.8445 175.286 55.8659C175.136 55.8881 174.993 55.779 174.974 55.6234ZM172.069 55.9811C172.05 55.8255 172.159 55.6858 172.314 55.6668C172.47 55.6478 172.61 55.7566 172.629 55.9122C172.647 56.0705 172.536 56.2073 172.378 56.2287C172.227 56.2482 172.088 56.1367 172.069 55.9811Z" fill="white"/>
<path d="M172.302 42.4286L172.028 42.4624C171.911 42.4772 171.806 42.3936 171.791 42.2788L171.373 38.9117C171.359 38.7942 171.442 38.6896 171.557 38.6745L171.83 38.6407C171.948 38.6259 172.052 38.7095 172.067 38.8243L172.485 42.1914C172.503 42.3091 172.419 42.4137 172.302 42.4286Z" fill="url(#paint1_linear_155_11679)"/>
<path d="M172.044 42.6041L172.309 42.5694L171.774 38.2493L171.509 38.2813L172.044 42.6041Z" fill="url(#paint2_linear_155_11679)"/>
<path d="M153.645 63.8343C153.645 63.8343 153.458 64.1035 153.084 64.1484C153.084 64.1484 152.937 64.295 152.762 64.3739C152.536 64.4746 152.339 64.6322 152.214 64.8484C152.201 64.8687 152.183 64.8857 152.163 64.8998L151.448 65.2734L151.209 65.1355L150.969 64.9975L150.94 64.1911C150.939 64.1668 150.945 64.1431 150.958 64.1202C151.082 63.9066 151.124 63.6575 151.098 63.4095C151.078 63.2187 151.134 63.0169 151.134 63.0169C150.986 62.67 151.13 62.3749 151.13 62.3749L151.809 61.4071L152.254 60.9408L152.541 60.1482L153.025 59.7426C153.225 59.5746 153.352 59.3343 153.385 59.0735L153.438 58.6072L153.93 57.7603L154.204 57.6134C154.53 57.4367 154.737 57.0996 154.743 56.7282C154.746 56.4886 154.851 56.2621 155.031 56.1055L155.096 56.0476C155.259 55.9054 155.371 55.7147 155.419 55.5067L155.533 55.0089L156.732 52.9491L157.904 53.6309L159.077 54.3128L157.877 56.3725L157.502 56.7166C157.344 56.862 157.233 57.0527 157.19 57.2639L157.173 57.3484C157.124 57.5834 156.979 57.7841 156.773 57.9056C156.454 58.0938 156.262 58.4406 156.269 58.8133L156.278 59.1242L155.786 59.9712L155.407 60.2474C155.194 60.4034 155.052 60.6313 155.003 60.8905L154.888 61.5121L154.342 62.1513L154.157 62.7684L153.645 63.8343Z" fill="url(#paint3_linear_155_11679)"/>
<path d="M150.56 65.4636L151.234 65.8567L158.953 52.5896L158.276 52.1963L150.56 65.4636Z" fill="url(#paint4_linear_155_11679)"/>
<path d="M162.251 40.1519C162.873 39.6149 164.192 39.8401 165.053 40.3766C165.321 40.5445 165.596 40.7049 165.877 40.8553C166.768 41.3382 167.615 42.3746 167.457 43.1805C167.277 44.0812 167.024 45.4677 167.024 45.4677L164.514 44.0061L162.99 43.1209L160.48 41.662C160.478 41.6564 161.558 40.7516 162.251 40.1519ZM162.728 41.5113C163.397 41.9012 164.383 42.4749 164.383 42.4749C164.383 42.4749 165.37 43.0486 166.039 43.4384C166.708 43.8283 166.521 42.8978 166.521 42.8978L166.448 42.5048C166.388 42.1724 166.201 41.8969 165.931 41.7397L165.095 41.2516L164.258 40.7636C163.989 40.6063 163.657 40.5802 163.338 40.6928L162.961 40.8237C162.961 40.8237 162.059 41.1214 162.728 41.5113Z" fill="white"/>
<path d="M157.846 42.0002C159.738 40.2277 162.461 41.4578 164.336 42.5896C166.212 43.7215 168.64 45.3687 168.026 47.9203C167.382 50.6063 162.408 53.4004 160.526 54.3733C160.085 54.6 159.557 54.5887 159.13 54.3396L157.899 53.6222L156.669 52.9047C156.239 52.6554 155.967 52.2041 155.948 51.7088C155.86 49.5915 155.831 43.8895 157.846 42.0002Z" fill="white"/>
<path d="M160.307 45.9734L163.353 47.7464C163.836 48.0282 164.46 47.8608 164.739 47.38L165.342 46.3451C165.624 45.862 165.456 45.2381 164.976 44.9593L161.929 43.1862C161.446 42.9045 160.822 43.0719 160.543 43.5526L159.94 44.5876C159.661 45.071 159.826 45.6946 160.307 45.9734Z" fill="#5CB3FF"/>
<path d="M160.455 45.9427L163.309 47.6015C163.759 47.8637 164.344 47.7084 164.606 47.2583L165.17 46.2894C165.432 45.8393 165.276 45.2545 164.826 44.9923L161.973 43.3335C161.523 43.0714 160.938 43.2266 160.676 43.6767L160.112 44.6456C159.85 45.0957 160.005 45.6806 160.455 45.9427Z" fill="#35D199"/>
<path d="M165.059 41.6414L164.82 41.5035C164.718 41.4444 164.683 41.3141 164.742 41.2124L166.447 38.2801C166.506 38.1784 166.636 38.1433 166.738 38.2023L166.977 38.3403C167.079 38.3993 167.114 38.5296 167.055 38.6314L165.35 41.5636C165.291 41.6654 165.161 41.7004 165.059 41.6414Z" fill="url(#paint5_linear_155_11679)"/>
<path d="M164.749 41.6233L164.98 41.7577L167.17 37.994L166.938 37.8596L164.749 41.6233Z" fill="url(#paint6_linear_155_11679)"/>
<path d="M16.5606 103.841C25.4305 106.448 34.7344 101.371 37.3414 92.5012C39.9484 83.6313 34.8713 74.3274 26.0014 71.7204C17.1314 69.1134 7.82752 74.1905 5.22052 83.0604C2.61352 91.9304 7.69063 101.234 16.5606 103.841Z" fill="#5FCF86"/>
<g clip-path="url(#clip0_155_11679)">
<path d="M17.0732 91.7886L14.3778 80.4798L18.915 76.0009L19.8114 84.8954L23.718 81.039L22.7746 100.717L19.9746 88.9246L17.0732 91.7886Z" fill="white"/>
</g>
<path d="M21.2109 165.173C24.317 165.161 26.8214 161.66 26.8046 157.352C26.7878 153.045 24.2562 149.564 21.15 149.576C18.0439 149.588 15.5395 153.089 15.5563 157.396C15.5731 161.703 18.1048 165.185 21.2109 165.173Z" fill="url(#paint7_linear_155_11679)"/>
<path d="M24.1661 149.564L21.1504 149.576L21.2112 165.161L24.2269 165.149L24.1661 149.564Z" fill="url(#paint8_linear_155_11679)"/>
<path d="M24.2264 165.161C26.5947 165.151 28.5009 161.652 28.4841 157.345C28.4673 153.038 26.5338 149.554 24.1655 149.563C21.7973 149.573 19.8911 153.072 19.9079 157.379C19.9247 161.686 21.8582 165.17 24.2264 165.161Z" fill="url(#paint9_linear_155_11679)"/>
<path d="M24.628 163.719C26.3497 163.712 27.7344 160.86 27.7207 157.349C27.707 153.838 26.3001 150.997 24.5784 151.003C22.8567 151.01 21.472 153.862 21.4857 157.373C21.4994 160.885 22.9063 163.726 24.628 163.719Z" fill="#13192E"/>
<path d="M33.2689 137.901L32.0554 136.717L30.248 136.585C29.6116 136.537 29.1123 135.755 29.1086 134.795C29.1047 133.809 29.636 132.998 30.2977 132.995L31.3538 132.991C31.9518 132.989 32.501 133.518 32.746 134.338L33.0296 135.272L34.0894 136.204C34.4596 136.531 34.5263 137.302 34.2227 137.758C33.9569 138.125 33.5627 138.19 33.2689 137.901Z" fill="#0EA971"/>
<path d="M13.9892 160.146C13.9938 161.321 15.0018 162.038 18.4374 162.024C21.873 162.011 35.5367 161.389 38.3743 161.378C41.2118 161.367 72.5504 160.878 72.5504 160.878C72.5504 160.878 74.6721 146.991 67.3893 145.869C60.1065 144.747 13.9892 160.146 13.9892 160.146Z" fill="#13192E"/>
<path d="M60.9793 166.32C65.1396 166.304 68.4959 162.132 68.4759 157.001C68.4559 151.87 65.0671 147.724 60.9068 147.74C56.7466 147.756 53.3903 151.929 53.4103 157.06C53.4303 162.191 56.8191 166.337 60.9793 166.32Z" fill="url(#paint10_linear_155_11679)"/>
<path d="M64.9404 147.724L60.9067 147.74L60.9792 166.308L65.0128 166.292L64.9404 147.724Z" fill="url(#paint11_linear_155_11679)"/>
<path d="M65.0128 166.304C68.1822 166.292 70.7353 162.122 70.7153 156.991C70.6953 151.861 68.1097 147.711 64.9403 147.724C61.771 147.736 59.2179 151.905 59.2379 157.036C59.2579 162.167 61.8435 166.316 65.0128 166.304Z" fill="url(#paint12_linear_155_11679)"/>
<path d="M65.5408 164.583C67.8458 164.574 69.7011 161.177 69.6848 156.996C69.6685 152.814 67.7867 149.432 65.4817 149.441C63.1767 149.45 61.3213 152.847 61.3376 157.028C61.354 161.21 63.2358 164.592 65.5408 164.583Z" fill="#151C32"/>
<path d="M65.5169 158.478C65.9175 158.476 66.2399 157.881 66.237 157.148C66.2341 156.415 65.9071 155.822 65.5065 155.823C65.106 155.825 64.7836 156.42 64.7864 157.153C64.7893 157.886 65.1163 158.479 65.5169 158.478Z" fill="url(#paint13_linear_155_11679)"/>
<path d="M65.542 164.899C63.2007 164.909 61.2658 161.44 61.249 157.155C61.2324 152.883 63.1274 149.387 65.4814 149.378C67.8227 149.369 69.7576 152.837 69.7743 157.122C69.7911 161.407 67.896 164.89 65.542 164.899ZM65.4835 149.909C63.2949 149.917 61.5262 153.173 61.5417 157.167C61.5573 161.161 63.3514 164.39 65.54 164.381C67.7285 164.373 69.4973 161.117 69.4817 157.136C69.4661 153.142 67.6721 149.9 65.4835 149.909Z" fill="url(#paint14_linear_155_11679)"/>
<path d="M65.5136 157.657L64.6686 149.811C64.6686 149.811 65.8378 149.427 66.4119 149.804L65.5136 157.657Z" fill="url(#paint15_linear_155_11679)"/>
<path d="M65.7796 157.302L61.4239 156.308C61.4239 156.308 61.5809 154.146 61.9465 153.285L65.7796 157.302Z" fill="url(#paint16_linear_155_11679)"/>
<path d="M65.6755 156.733L63.8332 163.97C63.8332 163.97 62.7479 163.027 62.4135 162.105L65.6755 156.733Z" fill="url(#paint17_linear_155_11679)"/>
<path d="M65.3447 156.734L68.5599 162.195C68.5599 162.195 67.7389 163.765 67.1548 164.071L65.3447 156.734Z" fill="url(#paint18_linear_155_11679)"/>
<path d="M65.245 157.303L69.0727 153.446C69.0727 153.446 69.6401 155.365 69.6189 156.465L65.245 157.303Z" fill="url(#paint19_linear_155_11679)"/>
<path d="M113.171 158.596L105.128 158.4L105.073 144.256L115.125 147.415L113.171 158.596Z" fill="#13192E"/>
<path d="M104.179 163.029C107.77 163.015 110.667 159.41 110.65 154.977C110.633 150.545 107.707 146.963 104.116 146.977C100.525 146.991 97.6283 150.595 97.6456 155.028C97.6629 159.461 100.588 163.043 104.179 163.029Z" fill="url(#paint20_linear_155_11679)"/>
<path d="M107.603 146.975L104.116 146.988L104.179 163.028L107.665 163.014L107.603 146.975Z" fill="url(#paint21_linear_155_11679)"/>
<path d="M107.665 163.015C110.406 163.005 112.614 159.403 112.596 154.97C112.579 150.537 110.343 146.952 107.603 146.963C104.862 146.974 102.654 150.576 102.671 155.009C102.689 159.441 104.925 163.026 107.665 163.015Z" fill="url(#paint22_linear_155_11679)"/>
<path d="M111.706 154.974C111.72 158.589 110.116 161.528 108.118 161.536C106.12 161.543 104.493 158.617 104.479 155.002C104.465 151.387 106.069 148.449 108.067 148.441C110.065 148.446 111.692 151.359 111.706 154.974Z" fill="#151C32"/>
<path d="M108.729 155.112C108.727 154.48 108.445 153.963 108.101 153.964C107.757 153.966 107.48 154.485 107.482 155.117C107.484 155.749 107.766 156.266 108.11 156.265C108.454 156.263 108.731 155.744 108.729 155.112Z" fill="url(#paint23_linear_155_11679)"/>
<path d="M108.066 148.415C106.043 148.423 104.401 151.438 104.415 155.129C104.43 158.82 106.096 161.821 108.119 161.813C110.142 161.806 111.784 158.791 111.77 155.1C111.756 151.409 110.102 148.407 108.066 148.415ZM108.117 161.371C106.221 161.378 104.671 158.578 104.657 155.128C104.644 151.677 106.172 148.865 108.068 148.858C109.964 148.85 111.515 151.65 111.528 155.101C111.542 158.552 110.013 161.364 108.117 161.371Z" fill="url(#paint24_linear_155_11679)"/>
<path d="M108.091 154.671L107.405 161.449C107.405 161.449 108.424 161.773 108.906 161.443L108.091 154.671Z" fill="url(#paint25_linear_155_11679)"/>
<path d="M108.321 154.974L104.571 155.86C104.571 155.86 104.718 157.718 105.052 158.462L108.321 154.974Z" fill="url(#paint26_linear_155_11679)"/>
<path d="M108.247 155.467L106.606 149.23C106.606 149.23 105.681 150.055 105.391 150.852L108.247 155.467Z" fill="url(#paint27_linear_155_11679)"/>
<path d="M107.954 155.468L110.697 150.73C110.697 150.73 109.979 149.38 109.469 149.117L107.954 155.468Z" fill="url(#paint28_linear_155_11679)"/>
<path d="M107.863 154.977L111.197 158.288C111.197 158.288 111.674 156.63 111.658 155.682L107.863 154.977Z" fill="url(#paint29_linear_155_11679)"/>
<path d="M13.6402 162.043C11.673 160.104 10.0474 157.646 10.0474 157.646L10.0141 149.101C10.0141 149.101 12.22 143.759 30.8989 137.037C30.8989 137.037 37.4273 130.717 48.3276 126.251C62.3445 124.843 82.3467 124.652 85.6817 124.955C90.8369 125.402 96.8257 127.502 103.665 132.291C110.491 137.081 114.89 139.364 115.591 142.989C116.201 146.096 115.29 153.797 115.159 156.073C115.135 156.465 114.984 156.832 114.73 157.136L113.158 158.596C113.158 158.596 115.529 146.629 108.492 146.657C101.456 146.684 102.897 160.545 102.897 160.545L70.3004 161.493C70.7067 154.742 70.5381 147.399 64.6323 146.992C57.7974 146.526 56.659 154.797 56.6866 161.875L37.2184 161.951L35.3917 160.151L15.2873 160.229L13.6402 162.043Z" fill="#5FCF86"/>
<path d="M85.4723 126.776C82.531 126.282 80.0885 126.43 78.5003 127.031C76.912 127.631 71.7658 132.732 69.7772 135.078C67.7885 137.412 67.7912 138.107 67.7939 138.79C67.7966 139.472 70.7818 144.706 71.1009 148.219C71.42 151.731 72.0602 156.014 71.585 158.152L90.2771 158.079C90.2644 158.079 90.856 133.618 85.4723 126.776Z" fill="#35D199"/>
<path d="M85.4724 126.775C86.6907 129.197 89.1932 134.635 89.9176 140.927C90.6293 147.231 90.703 156.344 90.7097 158.063C92.6693 158.056 101.093 158.023 101.093 158.023C101.429 149.704 102.969 146.437 105.738 145.049C105.731 143.444 105.603 136.694 104.322 134.576C103.029 132.457 92.3215 124.372 85.4724 126.775Z" fill="#35D199"/>
<path d="M16.0141 147.536C15.0471 147.539 12.8717 150.948 12.8717 150.948C12.8717 150.948 14.3601 157.363 16.0569 158.507C17.7515 159.069 32.4466 158.632 32.4466 158.632C32.4466 158.632 37.7703 153.341 38.5387 151.353C38.1515 149.939 34.8097 147.905 34.3627 147.477C30.672 147.339 25.5966 147.776 23.7898 147.783C21.9829 147.79 17.822 147.794 16.0141 147.536Z" fill="url(#paint30_linear_155_11679)"/>
<path d="M38.3189 147.221C39.407 148.898 39.9841 150.046 40.8888 150.359C41.7935 150.684 49.4527 150.426 52.1734 149.834C54.9069 149.255 57.9774 146.98 58.1993 145.147C57.9981 142.493 52.8475 143.234 51.3079 143.24C49.7682 143.246 39.932 146.482 38.3189 147.221Z" fill="#EFFAF3"/>
<path d="M15.0708 147.161C15.0722 147.541 13.4271 149.86 12.8672 149.862C12.3074 149.864 11.4101 148.187 11.4068 147.34C11.4035 146.506 13.9916 144.536 14.7049 144.698C15.4181 144.86 15.0687 146.643 15.0708 147.161Z" fill="#EFFAF3"/>
<path d="M79.8878 127.062C76.0034 129.454 70.8966 134.871 69.5172 136.823C68.1379 138.775 79.6249 137.933 84.2311 137.915C88.85 137.897 88.0368 138.191 88.033 137.218C88.0297 136.384 86.2854 129.59 84.3543 127.108C84.0601 126.705 80.3326 126.921 79.8878 127.062Z" fill="url(#paint31_linear_155_11679)"/>
<path d="M86.6054 126.796C85.8814 127.127 89.5228 134.217 89.7645 137.464C91.9919 137.607 101.572 137.342 102.713 136.213C102.608 135.366 100.061 131.635 95.6489 129.124C93.0728 127.668 89.1878 126.621 86.6054 126.796Z" fill="url(#paint32_linear_155_11679)"/>
<path d="M76.4637 126.811C72.9331 128.557 67.0989 136.72 65.6497 137.079C64.2005 137.439 33.277 136.687 33.277 136.687C36.3167 133.06 45.4473 128.373 47.8095 127.201C50.1844 126.029 72.8343 126.08 76.4637 126.811Z" fill="url(#paint33_linear_155_11679)"/>
<path d="M46.5764 147.05C46.4913 148.048 47.1309 148.931 47.9965 149.003C48.862 149.076 49.648 148.327 49.7331 147.315C49.8183 146.316 49.1787 145.434 48.3131 145.362C47.4348 145.289 46.6616 146.051 46.5764 147.05Z" fill="white"/>
<path d="M43.1563 147.771C43.0832 148.605 43.6205 149.336 44.346 149.397C45.0716 149.457 45.7181 148.835 45.7911 147.988C45.8642 147.153 45.3269 146.422 44.6014 146.362C43.8759 146.302 43.2294 146.924 43.1563 147.771Z" fill="white"/>
<path d="M45.456 159.997C46.2501 159.994 46.8904 159.12 46.8862 158.045C46.882 156.97 46.2349 156.101 45.4408 156.104C44.6467 156.107 44.0063 156.981 44.0105 158.056C44.0147 159.131 44.6619 160 45.456 159.997Z" fill="#0EA971"/>
<path d="M44.5196 158.053C44.5223 158.748 44.9444 159.315 45.4534 159.313C45.9751 159.311 46.38 158.741 46.3773 158.046C46.3746 157.351 45.9525 156.783 45.4435 156.785C44.9218 156.787 44.5169 157.358 44.5196 158.053Z" fill="#0EA971"/>
<path d="M11.4461 157.413C11.4498 158.361 11.949 159.118 12.5471 159.115C13.1578 159.113 13.6384 158.353 13.6347 157.405C13.631 156.457 13.1318 155.7 12.5337 155.703C11.9357 155.705 11.4424 156.465 11.4461 157.413Z" fill="#0EA971"/>
<path d="M11.8281 157.411C11.8304 158.018 12.1505 158.522 12.545 158.521C12.9394 158.519 13.2556 158.025 13.2532 157.406C13.2508 156.786 12.9307 156.295 12.5363 156.296C12.1546 156.298 11.8257 156.792 11.8281 157.411Z" fill="#0EA971"/>
<path d="M29.5231 156.23L17.7658 156.276C17.5749 156.277 17.4089 156.126 17.4081 155.923L17.3988 153.547C17.3981 153.357 17.5502 153.193 17.7537 153.192L29.511 153.146C29.7019 153.145 29.8679 153.296 29.8687 153.498L29.878 155.875C29.866 156.077 29.7139 156.229 29.5231 156.23Z" fill="url(#paint34_linear_155_11679)"/>
<path d="M24.6417 150.952L22.3767 150.961C21.8805 150.963 21.4717 150.56 21.4698 150.067C21.4679 149.574 21.8735 149.168 22.3697 149.166L24.6347 149.158C25.1309 149.156 25.5397 149.559 25.5416 150.051C25.5435 150.544 25.1379 150.95 24.6417 150.952Z" fill="url(#paint35_linear_155_11679)"/>
<path d="M73.228 138.945L75.0684 137.75L77.8163 137.6C78.7832 137.546 79.5308 136.759 79.5271 135.798C79.5232 134.812 78.7057 134.007 77.7132 134.011L76.0972 134.017C75.1811 134.02 74.3688 134.555 74.003 135.378L73.5867 136.315L71.9871 137.256C71.4285 137.587 71.3297 138.358 71.8023 138.812C72.1855 139.189 72.7711 139.238 73.228 138.945Z" fill="#0EA971"/>
<path d="M83.7004 142.228C83.7019 142.62 84.2755 142.883 85.3444 142.879C86.4132 142.875 88.6013 142.727 88.6747 141.981C88.177 141.604 84.3606 141.859 83.7004 142.228Z" fill="#0EA971"/>
<path d="M100.093 139.953C100.095 140.344 100.554 140.608 101.407 140.605C102.259 140.601 104.015 140.456 104.075 139.71C103.679 139.332 100.626 139.584 100.093 139.953Z" fill="#0EA971"/>
<path d="M111.448 137.697C112.555 137.693 114.841 139.934 114.846 141.109C114.85 142.272 108.625 141.437 108.109 139.694C107.89 139 109.767 137.514 111.448 137.697Z" fill="url(#paint36_linear_155_11679)"/>
<defs>
<linearGradient id="paint0_linear_155_11679" x1="180.517" y1="56.9134" x2="120.775" y2="50.7435" gradientUnits="userSpaceOnUse">
<stop/>
<stop offset="1" stop-color="#797979"/>
</linearGradient>
<linearGradient id="paint1_linear_155_11679" x1="172.279" y1="40.5084" x2="170.887" y2="40.6808" gradientUnits="userSpaceOnUse">
<stop stop-color="#F1EFFF"/>
<stop offset="1" stop-color="#9C9C9C"/>
</linearGradient>
<linearGradient id="paint2_linear_155_11679" x1="172.042" y1="40.4096" x2="171.51" y2="40.4754" gradientUnits="userSpaceOnUse">
<stop stop-color="#F1EFFF"/>
<stop offset="1" stop-color="#797979"/>
</linearGradient>
<linearGradient id="paint3_linear_155_11679" x1="153.295" y1="58.6453" x2="158.327" y2="61.5719" gradientUnits="userSpaceOnUse">
<stop stop-color="#F1EFFF"/>
<stop offset="0.2341" stop-color="#D7D5E0"/>
<stop offset="0.5645" stop-color="#B7B6BB"/>
<stop offset="0.8316" stop-color="#A3A3A4"/>
<stop offset="1" stop-color="#9C9C9C"/>
</linearGradient>
<linearGradient id="paint4_linear_155_11679" x1="155.093" y1="59.223" x2="153.743" y2="58.4377" gradientUnits="userSpaceOnUse">
<stop stop-color="#F1EFFF"/>
<stop offset="1" stop-color="#9C9C9C"/>
</linearGradient>
<linearGradient id="paint5_linear_155_11679" x1="166.203" y1="40.0987" x2="164.991" y2="39.3935" gradientUnits="userSpaceOnUse">
<stop stop-color="#F1EFFF"/>
<stop offset="1" stop-color="#9C9C9C"/>
</linearGradient>
<linearGradient id="paint6_linear_155_11679" x1="166.074" y1="39.8768" x2="165.611" y2="39.6077" gradientUnits="userSpaceOnUse">
<stop stop-color="#F1EFFF"/>
<stop offset="1" stop-color="#797979"/>
</linearGradient>
<linearGradient id="paint7_linear_155_11679" x1="21.2166" y1="165.2" x2="21.1265" y2="142.116" gradientUnits="userSpaceOnUse">
<stop stop-color="#2C3E63"/>
<stop offset="1" stop-color="#13192E"/>
</linearGradient>
<linearGradient id="paint8_linear_155_11679" x1="22.7252" y1="165.195" x2="22.6351" y2="142.11" gradientUnits="userSpaceOnUse">
<stop stop-color="#2C3E63"/>
<stop offset="1" stop-color="#13192E"/>
</linearGradient>
<linearGradient id="paint9_linear_155_11679" x1="24.2329" y1="165.188" x2="24.1428" y2="142.103" gradientUnits="userSpaceOnUse">
<stop stop-color="#2C3E63"/>
<stop offset="1" stop-color="#13192E"/>
</linearGradient>
<linearGradient id="paint10_linear_155_11679" x1="60.9795" y1="166.355" x2="60.8721" y2="138.847" gradientUnits="userSpaceOnUse">
<stop stop-color="#2C3E63"/>
<stop offset="1" stop-color="#13192E"/>
</linearGradient>
<linearGradient id="paint11_linear_155_11679" x1="62.999" y1="166.347" x2="62.8916" y2="138.839" gradientUnits="userSpaceOnUse">
<stop stop-color="#2C3E63"/>
<stop offset="1" stop-color="#13192E"/>
</linearGradient>
<linearGradient id="paint12_linear_155_11679" x1="65.0185" y1="166.339" x2="64.9111" y2="138.83" gradientUnits="userSpaceOnUse">
<stop stop-color="#2C3E63"/>
<stop offset="1" stop-color="#13192E"/>
</linearGradient>
<linearGradient id="paint13_linear_155_11679" x1="65.5471" y1="165.233" x2="65.4871" y2="149.87" gradientUnits="userSpaceOnUse">
<stop stop-color="#EBEFF7"/>
<stop offset="1" stop-color="#B3B6C2"/>
</linearGradient>
<linearGradient id="paint14_linear_155_11679" x1="65.5471" y1="165.233" x2="65.4871" y2="149.871" gradientUnits="userSpaceOnUse">
<stop stop-color="#EBEFF7"/>
<stop offset="1" stop-color="#B3B6C2"/>
</linearGradient>
<linearGradient id="paint15_linear_155_11679" x1="65.6004" y1="165.233" x2="65.5405" y2="149.871" gradientUnits="userSpaceOnUse">
<stop stop-color="#EBEFF7"/>
<stop offset="1" stop-color="#B3B6C2"/>
</linearGradient>
<linearGradient id="paint16_linear_155_11679" x1="63.6391" y1="165.241" x2="63.5792" y2="149.879" gradientUnits="userSpaceOnUse">
<stop stop-color="#EBEFF7"/>
<stop offset="1" stop-color="#B3B6C2"/>
</linearGradient>
<linearGradient id="paint17_linear_155_11679" x1="64.072" y1="165.239" x2="64.0121" y2="149.877" gradientUnits="userSpaceOnUse">
<stop stop-color="#EBEFF7"/>
<stop offset="1" stop-color="#B3B6C2"/>
</linearGradient>
<linearGradient id="paint18_linear_155_11679" x1="66.979" y1="165.227" x2="66.9191" y2="149.865" gradientUnits="userSpaceOnUse">
<stop stop-color="#EBEFF7"/>
<stop offset="1" stop-color="#B3B6C2"/>
</linearGradient>
<linearGradient id="paint19_linear_155_11679" x1="67.4718" y1="165.225" x2="67.4118" y2="149.863" gradientUnits="userSpaceOnUse">
<stop stop-color="#EBEFF7"/>
<stop offset="1" stop-color="#B3B6C2"/>
</linearGradient>
<linearGradient id="paint20_linear_155_11679" x1="104.179" y1="163.067" x2="104.086" y2="139.303" gradientUnits="userSpaceOnUse">
<stop stop-color="#2C3E63"/>
<stop offset="1" stop-color="#13192E"/>
</linearGradient>
<linearGradient id="paint21_linear_155_11679" x1="105.924" y1="163.06" x2="105.831" y2="139.295" gradientUnits="userSpaceOnUse">
<stop stop-color="#2C3E63"/>
<stop offset="1" stop-color="#13192E"/>
</linearGradient>
<linearGradient id="paint22_linear_155_11679" x1="107.668" y1="163.054" x2="107.576" y2="139.289" gradientUnits="userSpaceOnUse">
<stop stop-color="#2C3E63"/>
<stop offset="1" stop-color="#13192E"/>
</linearGradient>
<linearGradient id="paint23_linear_155_11679" x1="108.071" y1="148.128" x2="108.122" y2="161.399" gradientUnits="userSpaceOnUse">
<stop stop-color="#EBEFF7"/>
<stop offset="1" stop-color="#B3B6C2"/>
</linearGradient>
<linearGradient id="paint24_linear_155_11679" x1="108.071" y1="148.128" x2="108.123" y2="161.399" gradientUnits="userSpaceOnUse">
<stop stop-color="#EBEFF7"/>
<stop offset="1" stop-color="#B3B6C2"/>
</linearGradient>
<linearGradient id="paint25_linear_155_11679" x1="108.117" y1="148.126" x2="108.169" y2="161.398" gradientUnits="userSpaceOnUse">
<stop stop-color="#EBEFF7"/>
<stop offset="1" stop-color="#B3B6C2"/>
</linearGradient>
<linearGradient id="paint26_linear_155_11679" x1="106.422" y1="148.133" x2="106.474" y2="161.405" gradientUnits="userSpaceOnUse">
<stop stop-color="#EBEFF7"/>
<stop offset="1" stop-color="#B3B6C2"/>
</linearGradient>
<linearGradient id="paint27_linear_155_11679" x1="106.796" y1="148.132" x2="106.848" y2="161.404" gradientUnits="userSpaceOnUse">
<stop stop-color="#EBEFF7"/>
<stop offset="1" stop-color="#B3B6C2"/>
</linearGradient>
<linearGradient id="paint28_linear_155_11679" x1="109.307" y1="148.122" x2="109.359" y2="161.394" gradientUnits="userSpaceOnUse">
<stop stop-color="#EBEFF7"/>
<stop offset="1" stop-color="#B3B6C2"/>
</linearGradient>
<linearGradient id="paint29_linear_155_11679" x1="109.734" y1="148.121" x2="109.785" y2="161.393" gradientUnits="userSpaceOnUse">
<stop stop-color="#EBEFF7"/>
<stop offset="1" stop-color="#B3B6C2"/>
</linearGradient>
<linearGradient id="paint30_linear_155_11679" x1="12.877" y1="153.17" x2="38.5366" y2="153.07" gradientUnits="userSpaceOnUse">
<stop stop-color="#2C3E63"/>
<stop offset="1" stop-color="#13192E"/>
</linearGradient>
<linearGradient id="paint31_linear_155_11679" x1="69.3875" y1="132.536" x2="88.0805" y2="132.463" gradientUnits="userSpaceOnUse">
<stop stop-color="#2C3E63"/>
<stop offset="1" stop-color="#13192E"/>
</linearGradient>
<linearGradient id="paint32_linear_155_11679" x1="86.5232" y1="132.146" x2="102.684" y2="132.083" gradientUnits="userSpaceOnUse">
<stop stop-color="#2C3E63"/>
<stop offset="1" stop-color="#13192E"/>
</linearGradient>
<linearGradient id="paint33_linear_155_11679" x1="51.241" y1="127.825" x2="62.9912" y2="140.712" gradientUnits="userSpaceOnUse">
<stop stop-color="#2C3E63"/>
<stop offset="1" stop-color="#13192E"/>
</linearGradient>
<linearGradient id="paint34_linear_155_11679" x1="30.6834" y1="150.64" x2="12.2333" y2="161.447" gradientUnits="userSpaceOnUse">
<stop stop-color="#EBEFF7"/>
<stop offset="1" stop-color="#B3B6C2"/>
</linearGradient>
<linearGradient id="paint35_linear_155_11679" x1="23.5054" y1="149.16" x2="23.5096" y2="150.239" gradientUnits="userSpaceOnUse">
<stop stop-color="#EBEFF7"/>
<stop offset="1" stop-color="#B3B6C2"/>
</linearGradient>
<linearGradient id="paint36_linear_155_11679" x1="110.942" y1="137.658" x2="112.202" y2="144.139" gradientUnits="userSpaceOnUse">
<stop stop-color="#FF5521"/>
<stop offset="1" stop-color="#DE3214"/>
</linearGradient>
<clipPath id="clip0_155_11679">
<rect width="14.6168" height="20.3012" fill="white" transform="translate(8.5127 86.2695) rotate(-44.6293)"/>
</clipPath>
</defs>
</svg>
