<svg width="201" height="200" viewBox="0 0 201 200" fill="none" xmlns="http://www.w3.org/2000/svg"><g clip-path="url(#clip0_155_11899)"><path d="M137.279 178.6l-96.06-2.051c-10.21-.217-18.246-7.095-17.94-15.358l4.425-125.49c.287-8.273 8.798-14.78 19.009-14.57l96.036 2.082c10.203.223 18.246 7.102 17.94 15.359l-4.425 125.491c-.24 8.277-8.777 14.781-18.985 14.537z" fill="#EFFAF3"/><path d="M75.01 101.489s19.973 1.521 27.473 9.782c7.499 8.26-2.41 60.076-2.942 60.796-.532.72-7.405 3.501-31.64 3.043-24.236-.458-31.923-1.414-32.731-2.525-.808-1.11-7.345-60.352-1.448-65.3 5.898-4.948 26.666-7.31 41.287-5.796z" fill="#5FCF86"/><path d="M63.107 91.137l.29 12.992s2.43 3.69 10.044 4.134c5.668.336 7.634-.99 7.634-.99l-.936-6.563-.922-6.403-13.794-2.692-2.316-.478z" fill="#F5C2A2"/><path d="M65.423 91.594c.068.434.204.854.404 1.245 3.056 6.43 11.034 7.648 14.312 7.87l-.922-6.402-13.794-2.713z" fill="#000"/><path d="M81.486 64.625s7.176 16.156 4.712 25.251c-2.464 9.095-10.771 7.735-15.753 6.012a16.412 16.412 0 01-7.29-4.746 7.002 7.002 0 01-7.749-2.693c-3.124-4.288-1.252-9.243 1.387-10.394 2.639-1.151 5.79.734 5.79.734l-2.491-4.713s10.158-23.945 21.394-9.451z" fill="#F5C2A2"/><path d="M80.846 85.158h-.141a.478.478 0 01-.31-.592c.93-2.996-1.313-6.24-1.346-6.275a.458.458 0 01.114-.673.464.464 0 01.673.115c.108.148 2.532 3.648 1.468 7.088a.478.478 0 01-.458.337zM61.849 86.35a.498.498 0 01-.344-.148l-4.396-4.666a.471.471 0 010-.673.478.478 0 01.673 0l4.396 4.659a.466.466 0 010 .673.45.45 0 01-.33.155z" fill="#000"/><path d="M57.197 85.097a.484.484 0 01-.472-.404.472.472 0 01.398-.532l3.042-.464a.472.472 0 01.315.873.471.471 0 01-.173.062l-3.043.458-.068.007z" fill="#000"/><path d="M138.351 136.025l.457-2.902s11.128-8.475 17.975-11.269c2.881-1.172 6.913-.195 3.514 3.622a16.13 16.13 0 00-2.76 4.503s5.5-1.737 9.276-4.241c2.417-1.595 5.945-8.031 8.018-6.638 3.292 2.215-.491 8.503-.491 8.503s1.71-7.964 4.961-4.854c3.252 3.11-5.608 18.722-9.822 22.451-4.214 3.73-26.45 8.079-26.45 8.079l-4.678-17.254z" fill="#F5C2A2"/><path d="M161.778 133.365a.48.48 0 01-.341-.121.475.475 0 01-.033-.667.476.476 0 01.326-.155c4.848-.471 9.466-4.779 9.513-4.82a.475.475 0 11.673.674c-.195.188-4.894 4.57-10.098 5.075l-.04.014z" fill="#000"/><path d="M167.54 136.981a.514.514 0 01-.242-.067l-9.741-5.918a.474.474 0 01.134-.863.47.47 0 01.357.055l9.479 5.749 4.389-3.292a.483.483 0 01.534-.031.465.465 0 01.139.126.468.468 0 01-.094.673l-4.652 3.487a.478.478 0 01-.303.081z" fill="#000"/><path d="M148.805 136.813a.491.491 0 01-.148-.956 21.636 21.636 0 008.752-5.588.501.501 0 01.74.673 22.272 22.272 0 01-9.223 5.877l-.121-.006z" fill="#000"/><path d="M93.085 105.394s15.019 4.134 19.859 24.707c2.02 8.596 23.831-2.155 23.831-2.155l10.509 27.474s-21.543 29.122-59.188 1.535c-10.811-7.904 4.989-51.561 4.989-51.561z" fill="#5FCF86"/><path d="M66.897 175.159s10.839-.451 13.209-.775c2.37-.323 12.79 1.347 13.16-.457l-3.938-2.834s10.516 1.231 13.754-.452c3.238-1.683 4.167-2.632 4.955-5.217.787-2.585-5.702-3.702-5.702-3.702s4.22-2.633-1.145-4.881c-5.365-2.249-28.55-5.588-38.204.464-9.653 6.052 3.911 17.854 3.911 17.854z" fill="#F5C2A2"/><path d="M102.355 162.192a.404.404 0 01-.155 0 28.352 28.352 0 00-11.586-1.07.478.478 0 01-.445-.753.455.455 0 01.31-.183 28.948 28.948 0 0112.03 1.111.468.468 0 01.29.599.469.469 0 01-.444.296z" fill="#000"/><path d="M33.688 107.273s-41.334 23.152-31.74 57.182c6.825 24.235 72.88 14.81 72.88 14.81l-.748-28.658-35.497-5.56-4.895-37.774z" fill="#5FCF86"/><path d="M32.302 147.004c-2.397 0-4.349-.296-4.82-1.185-.29-.552-.095-1.198.592-1.918 4.282-4.484 14.407.956 14.81 1.191a.47.47 0 01.106.754.47.47 0 01-.26.128 74.126 74.126 0 01-10.428 1.03zm.579-3.925a5.483 5.483 0 00-4.12 1.475c-.35.363-.518.673-.444.828.552 1.043 6.806.761 12.79-.115-1.824-.834-5.25-2.188-8.226-2.188z" fill="#000"/><path d="M80.375 102.372s4.133 13.874 2.74 13.605c-1.394-.269-9.674-7.681-9.674-7.681s-6.53 8.078-8.51 8.139c-1.978.06-1.824-15.302-1.824-15.302s1.69 4.672 9.014 5.722c7.325 1.05 8.254-4.483 8.254-4.483z" fill="#fff"/><path d="M72.06 72.617a.47.47 0 01-.087-.936l3.642-.673a.471.471 0 01.55.562.472.472 0 01-.375.367l-3.635.673-.094.007zm11.344-.673h-.141l-2.33-.727a.473.473 0 01.283-.902l2.33.727a.478.478 0 01.31.592.471.471 0 01-.452.31zm-.936 6.456a.471.471 0 01-.47-.405l-.438-3.009a.465.465 0 01.1-.37l1.071-1.3a.473.473 0 11.734.6l-.943 1.144.41 2.8a.465.465 0 01-.396.532l-.068.007zm-8.273.632a.47.47 0 01-.465-.404l-.444-3.01a.465.465 0 01.108-.37l1.07-1.299a.479.479 0 01.846.257.473.473 0 01-.112.349l-.936 1.138.41 2.807a.477.477 0 01-.396.532h-.081zm-8.772 68.586h-.094c-.162 0-16.271-2.255-22.626-1.636a.474.474 0 01-.364-.09.464.464 0 01-.183-.327.475.475 0 01.267-.473.461.461 0 01.185-.045c6.477-.626 22.216 1.548 22.89 1.636a.47.47 0 01-.075.935z" fill="#000"/><path d="M63.673 80.33s4.308-3.076 3.931-7.573c-.377-4.497-1.393-5.62-1.393-5.62a63.636 63.636 0 009.889-1.098 45.214 45.214 0 005.332-1.414l1.48 3.73c1.293-.088 3.252-9.809-.228-13.067-2.444-2.282-12.313 2.551-12.313 2.551s-11.04-2.302-17.254 5.662c-6.213 7.964 1.198 16.978 1.198 16.978s1.825-4.073 9.358-.148z" fill="#000"/><path d="M75.73 59.967s2.726-7.876-2.949-9.135c-5.675-1.259-10.232 5.81-10.232 5.81s-.169-3.905-4.383-2.572c-4.214 1.333-7.937 13.8-5.843 14.723 2.093.922 23.407-8.826 23.407-8.826zm3.581 30.536a2.2 2.2 0 01-.363 0c-2.128-.31-2.97-2.437-3.003-2.525a.464.464 0 01.054-.437.464.464 0 01.384-.209h5.641a.471.471 0 01.43.673c-.046.095-1.164 2.498-3.143 2.498zm-2.127-2.249a2.875 2.875 0 001.898 1.286c.95.141 1.697-.673 2.12-1.286h-4.018zm25.171 79.35a.511.511 0 01-.256-.074c-2.956-1.885-11.445-1.266-11.519-1.259a.473.473 0 01-.067-.942c.357 0 8.88-.674 12.118 1.407a.468.468 0 01.027.775.473.473 0 01-.283.093h-.02z" fill="#000"/><path d="M131.192 163.344l6.321 4.687 33.07-44.594-6.321-4.688-33.07 44.595z" fill="#1A2E35"/><path d="M167.776 146.651l-12.932-7.463-4.442 7.696 12.933 7.463 4.441-7.696z" fill="#1A2E35"/><path d="M172.451 147.27l-8.408-4.852-6.228 10.792 8.407 4.853 6.229-10.793z" fill="#1A2E35"/><path d="M178.81 144.951s-6.463 1.959-11.155 5.655c-4.692 3.696-12.003 16.406-12.003 16.406s44.397 12.279 44.841 8.879c.445-3.399-21.683-30.94-21.683-30.94z" fill="#1A2E35"/><path d="M100.483 156.22a.465.465 0 01-.464-.424 93.242 93.242 0 00-1.596-11.02.467.467 0 01.93-.088 93.848 93.848 0 011.595 11.027.462.462 0 01-.107.341.473.473 0 01-.317.164h-.041z" fill="#000"/><path d="M150.537 98.919a27.742 27.742 0 01-31.788-19.456c-.067-.229-.135-.457-.189-.673 0-.094-.054-.188-.074-.283a27.688 27.688 0 01-.659-10.044c0-.195.04-.39.067-.579a27.228 27.228 0 011.912-6.92c.121-.31.256-.613.397-.916a27.734 27.734 0 0116.846-14.793 27.73 27.73 0 0122.28 2.5c.471.27.929.56 1.38.856a27.747 27.747 0 0111.839 28.602 27.738 27.738 0 01-22.018 21.76l.007-.054z" fill="#EFFAF3" stroke="#5FCF86" stroke-width="6"/><path d="M129.311 79.463a4.89 4.89 0 00-4.256-6.262 4.897 4.897 0 00-4.776 2.611 4.897 4.897 0 002.974 6.964 4.895 4.895 0 006.058-3.313zm31.728.626a4.885 4.885 0 00-4.44-6.114 4.887 4.887 0 104.44 6.114z" fill="#000"/><path d="M164.977 73.54l-.148 6.058v.956l-3.871-.094-9.31-.229-7.526-.188-2.202-.054-1.743-.04h-3.178l-2.188-.054-2.396-.06-3.158-.075-9.323-.296h-1.185c-.067-.23-.135-.458-.189-.673 0-.095-.054-.189-.074-.283a27.688 27.688 0 01-.659-10.044c0-.195.04-.39.067-.58a27.228 27.228 0 011.912-6.92c.121-.31.256-.612.397-.915l20.943.511a7.026 7.026 0 013.413.997l-14.81-.357 6.2 5.971 18.614.451 6.341 1.44a6.476 6.476 0 012.35 1.065 6.35 6.35 0 011.084.996h-.552v.586l-.047 1.757.094.1 1.144-.026z" fill="#F26524"/><path d="M149.177 79.262l14.137.343-1.662-2.693-10.098-.242-2.377 2.592z" fill="#000"/><path d="M145.832 77.943v1.178l19.024.465v.282l-19.307-.47V77.93l.283.013z" fill="#000"/><path d="M145.555 77.404l3.562.087v-.855l-3.562-.087v.855z" fill="#C6F1E2"/><path d="M163.866 71.634l-.04 1.871-2.43 1.455-10.098-.243-2.356-1.575.047-1.878 14.877.37z" fill="#000"/><path d="M142.681 70.545v.572l2.558 1.939 3.716.088 1.899-1.832 11.168.27 1.703 1.81.101.108h1.151l.034-1.548a6.061 6.061 0 00-.673-.916l-21.657-.491z" fill="#fff"/><path d="M154.583 67.568l-18.614-.458-6.2-5.971 14.81.363 10.004 6.066zm0 0l-10.004-6.058 10.004 6.058z" fill="#000"/><path d="M132.442 68.195v.572l-14.602-.35c0-.195.04-.39.067-.58l14.535.358z" fill="#fff"/><path d="M134.024 67.063l-1.569 1.118-14.554-.35a27.228 27.228 0 011.912-6.92l7.162.167a2.175 2.175 0 011.441.6l5.608 5.385z" fill="#000"/><path d="M128.483 65.475l1.414.04 1.838 1.798-5.049-.121a1.767 1.767 0 011.797-1.717z" fill="#F26524"/><path d="M122.196 70.57l2.261.06v-.524l-2.261-.061v.525z" fill="#000"/><path d="M123.165 76.859l9.055.222v-.855l-9.055-.222v.855zm12.495-4.975l2.06.053.04-1.514-2.067-.054-.033 1.515z" fill="#C6F1E2"/><path d="M144.364 78.561a4.89 4.89 0 01-4.253 4.735 4.888 4.888 0 01-5.327-3.483 2.718 2.718 0 01-.067-.235 4.862 4.862 0 01-.081-.444l-5.217-.128-9.647-.216h-1.212c0-.094-.053-.188-.074-.283h1.926l.074-3.029.148-6.16h.289l-.141 5.73-.081 3.46 8.752.208 5.15.128v-.532a4.896 4.896 0 011.517-3.42 4.889 4.889 0 018.257 3.663l-.013.006z" fill="#000"/><path d="M141.557 76.44a2.888 2.888 0 00-4.08-.1 2.82 2.82 0 00-.828 1.48h.243a2.13 2.13 0 01.114-.356c.03-.082.066-.16.108-.236a.38.38 0 01.06-.115c.033-.064.071-.125.115-.181l.875.922h-1.259a2.794 2.794 0 00-.074.538c0 .185.013.37.04.553h1.259l-.37.35-.545.518.033.047c.186.292.429.544.714.74l.161-.161.196-.182.383-.363.182-.169v1.273a3.309 3.309 0 01-.458-.148l-.114-.054-.108-.06-.202-.129-.168.162a2.875 2.875 0 004.106-.794 2.882 2.882 0 00-.383-3.535zm.175.6c.05.084.095.172.134.262a.342.342 0 01.034.074c0 .04.034.08.047.114a.88.88 0 01.074.23l.054.228h-1.265l.922-.909zm-1.65-1.172c.075 0 .142.04.216.06.083.023.164.052.242.088l.101.047c.09.04.176.09.256.148.032.006.06.023.081.047l-.922.882.026-1.272zm-2.019.316l.087-.047.108-.054a2.96 2.96 0 01.512-.195l.208-.054v1.273l-.915-.923zm2.787 4.51l-.081.041-.108.054-.154.074-.108.04-.256.081-.202.054v-1.272l.162.175.747.754zm1.171-1.608a.829.829 0 01-.054.175c-.022.075-.049.15-.08.222-.034.074-.074.141-.101.209l-.142.222-.882-.922h1.273l.006.094h-.02z" fill="#B8AFC4"/><path d="M139.497 77.525a.91.91 0 01.866 1.109.916.916 0 01-.734.696.91.91 0 01-1.061-.923.917.917 0 01.929-.882z" fill="#000"/><path d="M139.483 78.07a.372.372 0 01.357.377.367.367 0 01-.23.332.365.365 0 01-.14.025.37.37 0 010-.734h.013z" fill="#B8AFC4"/><path d="M136.589 78.36a2.838 2.838 0 00.801 2.067c.125.13.263.25.41.356l.175-.168a2.71 2.71 0 01-.747-.794l-.04-.075a1.39 1.39 0 01-.108-.228l-.101-.243a3.267 3.267 0 01-.101-.363 2.548 2.548 0 010-.552 2.45 2.45 0 01.067-.546h-.242c-.06.177-.099.36-.114.546z" fill="#fff"/><path fill-rule="evenodd" clip-rule="evenodd" d="M163.998 56.985a18.172 18.172 0 01-4.174 3.494c-.545.318-1.114.593-1.703.821a3.285 3.285 0 01-1.312.276 3.24 3.24 0 01-1.253-.471 11.876 11.876 0 01-1.541-1.084 18.168 18.168 0 01-3.602-4.093c-2.329-3.588-4.079-8.873-2.625-15.712a2.3 2.3 0 01.612-1.172c.31-.329.707-.562 1.145-.673a89.897 89.897 0 014.557-1.003 20.642 20.642 0 014.591-.519 21.23 21.23 0 014.457 1.206c1.468.525 2.915 1.09 4.356 1.682.413.176.77.462 1.03.828.26.368.409.803.43 1.253.411 7.014-2.093 11.976-4.968 15.167z" fill="#fff"/><path fill-rule="evenodd" clip-rule="evenodd" d="M168.98 41.851a2.384 2.384 0 00-1.434-2.094 92.202 92.202 0 00-4.356-1.682 20.857 20.857 0 00-4.456-1.212 21.037 21.037 0 00-4.591.518c-1.744.337-3.521.754-4.558 1.003a2.326 2.326 0 00-1.144.673c-.316.319-.53.724-.613 1.165-.054.25-.101.492-.141.734 0 .135-.054.262-.074.397-.021.135-.054.337-.074.505a1.754 1.754 0 00-.041.27c0 .154-.04.302-.054.457-.013.155-.047.377-.06.566-.014.188-.041.538-.054.8v2.155a.364.364 0 010 .08c0 .196 0 .391.04.58.041.188.034.404.054.605v.095c0 .033 0 .242.047.363s.054.424.088.626c.033.202.074.425.114.633l.142.673c.06.256.127.512.195.761.134.465.276.916.431 1.346a15.256 15.256 0 00.781 1.898c.094.196.188.391.289.58.195.384.404.747.613 1.097l.323.512a18.111 18.111 0 003.601 4.086c.481.406.997.769 1.542 1.084a3.13 3.13 0 001.252.471 3.18 3.18 0 001.279-.296 11.79 11.79 0 001.69-.835 18.414 18.414 0 004.174-3.5l.491-.573a19.985 19.985 0 001.522-2.114l.303-.511a19.83 19.83 0 00.484-.909c.027-.06.135-.256.195-.39.061-.135.128-.263.189-.404.061-.142.081-.175.114-.263.034-.087.101-.215.142-.33.04-.114.094-.222.134-.336.041-.115.122-.317.182-.478.061-.162.115-.33.175-.498.061-.169.115-.37.175-.56 0-.06.034-.114.047-.174.054-.182.101-.364.155-.552v-.034c.061-.242.121-.491.175-.747.054-.256.101-.492.148-.74.047-.25.088-.506.121-.761.034-.256.088-.674.122-.997 0-.195.033-.39.047-.592.013-.202 0-.478.04-.72.053-.81.064-1.62.034-2.43zm-11.532 8.678a.56.56 0 01-.256.155.927.927 0 01-.303.033.71.71 0 01-.289-.08.684.684 0 01-.243-.189l-2.14-2.49a.765.765 0 01-.148-.263.76.76 0 01-.041-.303c.01-.102.039-.2.088-.29a.91.91 0 01.181-.242c.082-.062.173-.112.27-.148.1-.02.203-.02.303 0 .1.008.198.033.289.074.09.047.17.111.236.188l1.636 1.906 1.346-1.145 3.07-2.632a.788.788 0 01.559-.189.827.827 0 01.531.27c.133.16.198.365.182.572a.773.773 0 01-.262.525l-2.693 2.309-2.316 1.939z" fill="#5CB3FF"/></g><defs><clipPath id="clip0_155_11899"><path fill="#fff" transform="translate(.5 18)" d="M0 0h200v163.735H0z"/></clipPath></defs></svg>