<svg width="200" height="200" viewBox="0 0 200 200" fill="none" xmlns="http://www.w3.org/2000/svg"><path d="M165.196 190.87l-109.81 6.83c-13.77.86-25.666-8.97-26.578-21.95L20.044 50.663c-.912-12.98 9.517-24.193 23.287-25.053l109.81-6.831c13.77-.86 25.666 8.97 26.578 21.95l8.754 125.088c.912 12.979-9.517 24.193-23.277 25.053z" fill="#EFFAF3"/><mask id="a" style="mask-type:alpha" maskUnits="userSpaceOnUse" x="11" y="0" width="178" height="200"><path d="M163.952 192.31l-115.667 7.631c-14.504.961-27.035-10.021-27.996-24.522L11.06 35.678C10.098 21.178 21.082 8.65 35.587 7.69L151.254.058c14.504-.96 27.035 10.022 27.995 24.523l9.221 139.741c.96 14.501-10.025 27.028-24.518 27.988z" fill="#EAF8F3"/></mask><g mask="url(#a)"><path d="M38.533 73.752s-8.796 20.867-2.353 25.242a29.621 29.621 0 0012.094 4.97s20.186-7.323 17.085-14.205C60.5 79.007 38.533 73.752 38.533 73.752z" fill="#F5C2A2"/><path d="M62.752 37.898l6.338 17.688a.444.444 0 00.243.258l17.5 6.888a1.416 1.416 0 01.96 1.148 1.43 1.43 0 01-.598 1.376L72.135 76.55a.433.433 0 00-.172.34l-.048 19.355a1.423 1.423 0 01-.79 1.277 1.409 1.409 0 01-1.489-.149L53.5 85.296a.407.407 0 00-.384-.066l-18.888 6.046a1.41 1.41 0 01-1.858-1.048 1.424 1.424 0 01.064-.795l6.167-18.26a.418.418 0 00-.05-.372L28.03 55.056a1.427 1.427 0 011.187-2.258l18.925-.616a.454.454 0 00.323-.16l11.758-14.573a1.424 1.424 0 011.407-.581 1.416 1.416 0 011.122 1.03z" fill="#F26524"/><path d="M59.708 198.842s-6.377 53.607-8.334 105.323a31397.476 31397.476 0 00-3.254 89.117l54.973 1.935 2.199-102.75-1.276-93.625H59.708z" fill="#24AB7B"/><path d="M126.115 198.841s5.629 19.789 8.796 36.654c3.166 16.865 8.158 39.579 8.158 39.579s18.603 53.189-15.019 58.708c-45.957 7.542-48.222-73.572-48.222-73.572l-.725-35.643-21.308-9.147 2.969-30.783 65.351 14.204z" fill="#24AB7B"/><path d="M160.44 58.205s9.807-15.26 12.446-26.386c2.639-11.126 1.012-15.392-.594-16.073-1.605-.682-4.771 5.959-4.771 5.959s2.199-10.51-1.342-11.786c-3.54-1.275-6.442 7.696-6.442 7.696s-.001-7.806-3.189-7.014c-3.188.791-7.19 17.766-7.19 17.766s-.814-8.971-3.276-8.4c-2.463.572-6.333 12.842-5.498 17.745a47.799 47.799 0 004.156 11.258l15.7 9.235z" fill="#F5C2A2"/><path d="M107.469 90.067s21.747 6.596 22.164 28.584c.418 21.988-40.328 24.187-40.328 24.187s-23.638 2.331-30.059-13.193c-6.42-15.524 14.645-24.956 14.645-24.956s25.706-20.251 33.578-14.622z" fill="#000"/><path d="M94.825 122.697s18.097-23.044 25.111-38.678c7.015-15.633 18.141-41.777 18.141-41.777l35.469 13.589s-9.412 31.245-22.099 55.872c-12.688 24.626-21.264 37.159-21.264 37.159s-.484 52.574-1.209 53.541c-.726.968-20.428 5.365-42.571 4.134-22.143-1.231-26.98-4.397-28.19-5.101-1.21-.704 9.17-69.614 9.17-69.614a45.162 45.162 0 0127.442-9.125z" fill="#5FCF86"/><path d="M97.441 110.252l-.483 13.193s-2.529 3.716-10.291 4.046c-5.761.263-7.74-1.122-7.74-1.122l1.055-6.596 1.034-6.597 14.073-2.55 2.352-.374z" fill="#F5C2A2"/><path d="M97.441 109.613a4.409 4.409 0 01-.418 1.276c-3.21 6.486-13.72 8.663-17.041 8.795l1.033-6.597 16.426-3.474z" fill="#000"/><path d="M79.19 82.986s-7.564 16.315-5.167 25.638c2.397 9.323 10.863 8.026 15.942 6.355a16.735 16.735 0 007.476-4.728 7.146 7.146 0 007.939-2.616c3.232-4.398 1.407-9.39-1.254-10.599a7.43 7.43 0 00-5.915.66l2.617-4.727s-10.005-24.561-21.637-9.983z" fill="#F5C2A2"/><path d="M78.399 94.442a.55.55 0 01-.528-.396 1.737 1.737 0 00-.682-.857 1.802 1.802 0 00-1.407 0 .55.55 0 01-.653-.769.528.528 0 01.323-.265 2.771 2.771 0 012.2 0c.575.34 1.005.88 1.209 1.517a.552.552 0 01-.396.682l-.066.088zm9.785 1.056a.549.549 0 01-.418-.198 2.199 2.199 0 00-3.034-.528.55.55 0 01-.937-.385.527.527 0 01.167-.384 3.166 3.166 0 014.552.681.55.55 0 01-.418.902l.088-.088zm-11.501-5.805a.55.55 0 110-1.099l3.233-.484a.55.55 0 01.616.462.55.55 0 01-.462.638l-3.21.483h-.177zm12.095 1.341h-.22l-3.739-1.584a.529.529 0 01-.285-.725.55.55 0 01.703-.286L88.997 90a.571.571 0 01.286.726.549.549 0 01-.505.308zm-9.5 12.028a.529.529 0 01-.528-.484 11.653 11.653 0 011.892-8.575.55.55 0 01.77 0 .571.571 0 010 .77 10.795 10.795 0 00-1.65 7.739.51.51 0 01-.275.542.507.507 0 01-.209.052v-.044zm5.146 5.518a4.019 4.019 0 01-2.837-1.561.527.527 0 010-.528.552.552 0 01.374-.351l4.904-1.254a.548.548 0 01.483 0 .592.592 0 01.198.462 3.514 3.514 0 01-2.199 3.012 2.4 2.4 0 01-.923.22zm-1.32-1.605a2.04 2.04 0 001.782.44 1.894 1.894 0 001.254-1.232l-3.035.792zm15.086-2.551a.506.506 0 01-.485-.329.532.532 0 01.087-.603.52.52 0 01.177-.123l6.597-3.012a.547.547 0 01.744.69.568.568 0 01-.282.321l-6.597 3.012-.242.044z" fill="#000"/><path d="M104.104 105.964a.523.523 0 01-.203-.038.524.524 0 01-.171-.116l-2.858-2.903a.55.55 0 01-.059-.828.545.545 0 01.428-.16.553.553 0 01.4.219l2.925 2.88a.534.534 0 01.166.385.523.523 0 01-.166.385.561.561 0 01-.21.143.569.569 0 01-.252.033zm-15.326-22.01a12.63 12.63 0 00-7.718 1.803 10.709 10.709 0 00-4.772 4.728 11.234 11.234 0 012.925-11.61c5.343-5.431 15.612-6.926 21.527-.506 5.915 6.42 5.541 12.116 5.541 12.116l-8.07 7.212S85.765 95.3 88.778 83.954zm64.538-38.215a.547.547 0 01-.529-.385.546.546 0 01-.021-.231c1.429-11.588-3.716-16.25-3.76-16.293a.552.552 0 01-.225-.61.56.56 0 01.29-.343.55.55 0 01.638.117c.242.198 5.652 5.036 4.134 17.26a.526.526 0 01-.527.485zm13.523-11.171a.44.44 0 01-.242 0l-15.392-8.003a.525.525 0 01-.284-.526.543.543 0 01.064-.2.529.529 0 01.726-.242l15.392 8.004a.536.536 0 01.275.325.536.536 0 01-.055.422.552.552 0 01-.484.22z" fill="#000"/><path d="M76.684 125.686s-13.92 6.465-18.735-1.825c-4.816-8.289 0-20.053 0-20.053L29.055 93.166s-23.198 51.342-1.45 64.623c27.134 16.535 56.709 6.42 56.709 6.42l-7.63-38.523z" fill="#5FCF86"/><path d="M97.156 119.289s-6.751 11.632-18.801 6.443c-12.05-5.19 34.105 70.164 34.105 70.164l-6.179-65.965-9.125-10.642z" fill="#5FCF86"/><path d="M44.923 91.753a.463.463 0 01-.286 0 .472.472 0 01-.19-.49.469.469 0 01.076-.168c3.806-5.283 12.197-2.82 12.558-2.707a.477.477 0 01.34.4.464.464 0 01-.016.183.491.491 0 01-.24.281.5.5 0 01-.37.038s-8.048-2.388-11.416 2.35a.476.476 0 01-.456.113zm4.121 43.696a3.3 3.3 0 01-1.1-.198 1.8 1.8 0 01-1.385-1.451c-.352-3.122 9.235-9.257 11.17-10.444a.554.554 0 01.625.055.545.545 0 01.167.604c-.198.55-4.486 11.434-9.477 11.434zm7.762-10.224c-4.398 2.858-9.346 6.838-9.148 8.443 0 0 0 .352.638.55 3.188 1.231 6.772-5.057 8.598-8.949l-.088-.044zm-.858-11.763h-.198l-30.257-10.994a.554.554 0 01-.377-.493.55.55 0 01.751-.54l30.279 10.994a.55.55 0 01-.198 1.077v-.044zm114.607-47.824h-.176l-36.392-12.27a.552.552 0 01-.352-.682.572.572 0 01.704-.351l36.392 12.247a.569.569 0 01.352.704.554.554 0 01-.528.352zM62.413 168.937a.524.524 0 01-.528-.44 48.613 48.613 0 013.694-29.508.55.55 0 01.726-.241.527.527 0 01.242.747 47.603 47.603 0 00-3.606 28.783.526.526 0 01-.418.637l-.11.022zm22.143-41.336a16.694 16.694 0 01-6.399-1.363.56.56 0 01-.307-.298.553.553 0 010-.428.54.54 0 01.302-.294.567.567 0 01.423.008c11.896 4.925 17.855-5.739 18.097-6.178a.57.57 0 01.747-.242.544.544 0 01.285.542.546.546 0 01-.065.205c-.044.11-4.464 8.048-13.083 8.048z" fill="#000"/><path d="M57.18 87.23s4.397-18.778 8.245-16.271c3.848 2.507 1.298 20.888-.593 22.823a26.078 26.078 0 01-6.817 3.914l-.836-10.466z" fill="#F5C2A2"/><path d="M97.156 206.933a.572.572 0 01-.374-.154s-4.574-4.574-8.092-4.771c-3.519-.198-7.168 4.397-7.212 4.507a.575.575 0 01-.528.22.593.593 0 01-.418-.374s-2.199-5.849-6.047-6.992c-3.848-1.143-6.179 5.299-6.2 5.365a.553.553 0 01-.518.362.547.547 0 01-.517-.362c-.373-1.297-1.67-4.771-3.342-5.321-1.671-.55-4.398 1.605-5.431 2.485a.553.553 0 01-.936-.385.53.53 0 01.166-.385c.418-.374 3.98-3.562 6.597-2.726 1.781.593 2.99 3.122 3.606 4.727 1.056-2.067 3.496-5.761 6.949-4.727 3.452 1.033 5.607 5.035 6.398 6.838 1.276-1.429 4.398-4.398 7.52-4.244 3.123.154 6.883 3.298 8.269 4.552.923-1.737 3.628-6.157 7.256-6.157s5.497 3.628 6.311 5.431c1.078-1.539 3.386-4.507 5.145-4.705 1.76-.198 3.563 1.979 4.398 3.32.726-1.803 2.375-5.145 4.574-5.211 2.902 0 4.53 3.892 4.596 4.067a.559.559 0 01-.029.396.555.555 0 01-.684.282.553.553 0 01-.299-.26s-1.451-3.364-3.562-3.386c-1.759 0-3.474 4.09-3.936 5.497a.573.573 0 01-.462.374.643.643 0 01-.55-.264c-.879-1.517-2.704-3.87-4.002-3.716-1.297.154-3.738 3.188-4.947 5.079a.526.526 0 01-.528.242.546.546 0 01-.44-.374s-2.001-5.673-5.673-5.673-6.596 6.135-6.596 6.201a.547.547 0 01-.396.33l-.066-.088zm2.066-121s4.178-17.106 15.393-12.18c11.214 4.924.176 21.13-6.597 21.195-6.773.067-8.796-9.014-8.796-9.014z" fill="#000"/></g><g clip-path="url(#clip0_155_11970)"><path d="M158.078 34.744c5.395-8.343 3.005-19.479-5.337-24.873-8.342-5.395-19.478-3.006-24.873 5.337-5.395 8.342-3.005 19.478 5.337 24.873 8.342 5.394 19.478 3.005 24.873-5.337z" fill="#5CB3FF"/><path d="M138.149 15.816c2.231-.413 4.662 2.36 5.843 6.433 3.541-2.36 7.082-3.022 8.592-1.287 1.676 1.971 0 6.303-3.977 9.526a19.398 19.398 0 01-7.153 3.422c-1.782.425-2.184 0-2.892-1.038a17.539 17.539 0 01-3.364-7.177c-.98-5.004.46-9.442 2.951-9.879z" fill="#fff"/></g><defs><clipPath id="clip0_155_11970"><path fill="#fff" transform="translate(125 7)" d="M0 0h36v36H0z"/></clipPath></defs></svg>