<svg width="240" height="245" viewBox="0 0 240 245" fill="none" xmlns="http://www.w3.org/2000/svg">
<path d="M196.908 229.488L38.5597 224.304C21.7289 223.754 8.32649 213.655 8.6394 201.754L13.0209 21.0013C13.3017 9.08627 27.1752 -0.094543 44.007 0.445694L202.317 5.67427C219.135 6.23253 232.549 16.3328 232.237 28.2249L227.855 208.977C227.652 220.901 213.734 230.077 196.908 229.488Z" fill="#EFFAF3"/>
<path opacity="0.25" d="M201.774 44.8586L124.369 23.3709C121.339 22.531 118.197 24.3148 117.356 27.3549L83.6062 149.134C82.765 152.174 84.539 155.324 87.5685 156.164L181.691 182.306C184.72 183.146 187.863 181.363 188.704 178.322L217.808 73.3217L201.774 44.8586Z" fill="#5A8F62"/>
<path d="M199.091 41.954L121.689 20.4687C118.659 19.6289 115.517 21.4128 114.676 24.453L80.9226 146.235C80.0813 149.275 81.8552 152.425 84.8846 153.265L179.004 179.405C182.033 180.244 185.175 178.46 186.017 175.42L215.124 70.417L199.091 41.954Z" fill="white"/>
<path d="M194.446 58.7412C193.604 61.7815 195.378 64.9312 198.408 65.771L215.127 70.4086L199.092 41.9624L194.446 58.7412Z" fill="#F4F4F4"/>
<path d="M197.559 65.47L214.34 73.2487L215.127 70.4248L197.559 65.47Z" fill="#C6C6C6"/>
<path d="M184.963 66.9843L137.616 53.8376C136.342 53.4841 135.581 52.1386 135.935 50.859C136.289 49.5793 137.631 48.8137 138.906 49.1673L186.252 62.3139C187.527 62.6675 188.288 64.013 187.934 65.2926C187.577 66.5891 186.238 67.3378 184.963 66.9843Z" fill="#F26A2B"/>
<path d="M196.048 87.0866L117.795 65.3491C116.52 64.9956 115.759 63.65 116.113 62.3703C116.468 61.0906 117.81 60.3249 119.084 60.6785L197.334 82.4329C198.609 82.7864 199.37 84.132 199.016 85.4117C198.665 86.6745 197.323 87.4401 196.048 87.0866Z" fill="#E4ECF9"/>
<path d="M192.769 98.9474L114.517 77.21C113.242 76.8564 112.481 75.5109 112.835 74.2312C113.189 72.9515 114.531 72.1858 115.806 72.5394L194.059 94.2768C195.333 94.6304 196.095 95.9759 195.74 97.2556C195.369 98.5325 194.044 99.301 192.769 98.9474Z" fill="#E4ECF9"/>
<path d="M189.475 110.789L111.222 89.0513C109.947 88.6977 109.186 87.3522 109.54 86.0725C109.894 84.7928 111.236 84.0271 112.511 84.3807L190.764 106.118C192.039 106.472 192.8 107.817 192.445 109.097C192.088 110.394 190.749 111.142 189.475 110.789Z" fill="#E4ECF9"/>
<path d="M186.196 122.65L107.944 100.913C106.669 100.559 105.908 99.2135 106.262 97.9338C106.616 96.6541 107.958 95.8884 109.233 96.242L187.485 117.979C188.76 118.333 189.521 119.679 189.167 120.958C188.813 122.238 187.471 123.004 186.196 122.65Z" fill="#E4ECF9"/>
<path d="M182.92 134.495L104.667 112.757C103.392 112.404 102.631 111.058 102.986 109.778C103.34 108.499 104.682 107.733 105.956 108.086L184.209 129.824C185.484 130.177 186.245 131.523 185.891 132.803C185.517 134.097 184.195 134.848 182.92 134.495Z" fill="#E4ECF9"/>
<path d="M179.623 146.353L101.37 124.615C100.096 124.262 99.3345 122.916 99.6886 121.636C100.043 120.357 101.385 119.591 102.66 119.945L180.912 141.682C182.187 142.036 182.948 143.381 182.594 144.661C182.237 145.957 180.898 146.706 179.623 146.353Z" fill="#E4ECF9"/>
<path d="M150.633 155.503C150.682 155.111 150.318 154.806 149.952 155.023C149.471 155.307 148.976 155.572 148.447 155.726C148.194 155.788 147.944 155.833 147.691 155.895C147.177 156.069 146.941 155.821 146.999 155.17C147.486 154.852 147.021 154.113 146.523 154.394C145.89 154.757 145.063 155.244 144.305 155.012C144.092 154.942 143.856 154.798 143.62 154.654C143.792 154.561 143.966 154.451 144.129 154.305C144.27 154.189 144.265 154.015 144.223 153.851C144.154 153.439 143.997 153.135 143.891 152.839C146.058 151.291 148.044 149.173 149.178 146.965C149.39 146.531 148.933 146.158 148.533 146.369C146.694 147.312 144.971 148.587 143.706 150.235C143.261 150.82 142.858 151.465 142.85 152.229C142.856 152.3 142.858 152.387 142.881 152.46C142.355 152.807 141.834 153.119 141.305 153.378C140.568 153.741 139.812 154.013 138.997 154.12C138.412 154.195 137.541 154.327 137.262 153.723C138.628 153.223 139.807 152.395 139.476 151.071C138.98 149.075 136.57 151.555 136.204 153.111C135.549 153.296 134.874 153.391 134.192 153.433C133.613 153.475 133.65 154.385 134.229 154.343C134.704 154.302 135.465 154.204 136.261 154.007C137.006 156.062 140.684 154.699 141.956 154.043C142.335 153.846 142.721 153.616 143.089 153.382C143.265 153.881 143.293 153.816 142.582 154.131C142.225 154.297 142.148 154.754 142.51 154.971C143.152 155.375 143.8 155.953 144.592 155.982C144.834 155.988 145.081 155.96 145.317 155.895C145.314 156.017 145.361 156.146 145.451 156.231C146.545 157.249 148.209 156.834 149.539 156.24C149.1 157.61 148.094 158.849 146.885 159.549C144.963 160.669 142.849 159.949 140.927 159.225C140.388 159.031 139.959 159.828 140.498 160.023C142.583 160.808 144.846 161.571 146.984 160.505C148.848 159.619 150.404 157.586 150.633 155.503ZM137.935 151.681C138.717 151.256 138.071 152.208 137.796 152.405C137.618 152.532 137.41 152.636 137.205 152.723C137.27 152.438 137.724 151.802 137.935 151.681ZM143.979 151.393C144.264 150.728 145.002 150.053 145.52 149.549C146.1 148.985 146.739 148.484 147.42 148.042C146.464 149.394 145.211 150.662 143.877 151.689C143.908 151.607 143.925 151.506 143.979 151.393Z" fill="#E4ECF9"/>
<path d="M165.432 168.061C160.89 166.532 158.432 161.581 159.965 157.005C161.495 152.446 166.434 149.974 170.993 151.506C175.536 153.034 177.994 157.986 176.46 162.561C174.93 167.12 169.974 169.59 165.432 168.061ZM170.38 153.297C166.82 152.108 162.944 154.029 161.733 157.616C160.543 161.188 162.452 165.074 166.026 166.283C169.586 167.473 173.462 165.552 174.672 161.965C175.883 158.378 173.953 154.507 170.38 153.297Z" fill="#E4ECF9"/>
<path d="M190.487 151.709L190.365 151.717C189.111 151.708 187.901 151.792 186.71 151.936L184.963 152.189L183.26 152.535C180.996 153.016 178.8 153.624 176.697 154.392C174.55 155.065 172.505 156.015 170.49 156.97C169.355 157.498 168.268 158.091 167.176 158.712C166.704 158.144 166.231 157.576 165.725 157.031C165.048 156.256 164.275 155.522 163.506 154.76C162.703 154.022 161.896 153.311 160.958 152.664L160.88 152.594C160.827 152.556 160.74 152.541 160.672 152.588C160.575 152.629 160.523 152.764 160.567 152.857C162.294 156.454 164.122 159.981 165.945 163.536C166.033 163.723 166.29 163.795 166.484 163.713C170.538 161.836 174.563 159.955 178.574 157.984L184.594 155.087C186.609 154.133 188.575 153.112 190.566 152.125C190.634 152.079 190.672 152.028 190.686 151.944C190.681 151.799 190.608 151.701 190.487 151.709Z" fill="#5FCF86"/>
<path d="M29.5538 89.3767C29.7165 89.0651 29.9433 88.791 30.2193 88.5722C30.4953 88.3533 30.8144 88.1947 31.1556 88.1066C38.5416 86.2078 50.6852 78.0426 56.263 66.0702C56.6501 65.2372 57.8792 65.1957 58.7569 65.464C71.0227 69.2322 87.647 65.0168 93.3393 63.3416C93.9104 63.1743 94.522 63.2149 95.0641 63.4561C95.6063 63.6974 96.0435 64.1234 96.2973 64.6577C118.674 111.623 92.9936 140.625 87.4739 146.094C87.1761 146.389 86.8092 146.605 86.4068 146.722C86.0043 146.839 85.5792 146.854 85.1702 146.765C44.8961 138.034 36.8791 110.946 29.4355 91.4096C29.3105 91.0821 29.2563 90.7318 29.2767 90.3814C29.2971 90.0311 29.3915 89.6887 29.5538 89.3767Z" fill="#5CB3FF"/>
<path d="M85.2988 142.799C85.1619 142.848 85.0141 142.856 84.8728 142.824C69.3765 139.276 57.7254 132.593 49.2601 122.398C41.6968 113.29 37.7238 102.688 34.2193 93.3335C34.0625 92.9151 33.9066 92.4992 33.7515 92.0858C33.7163 91.9929 33.7001 91.8938 33.7041 91.7944C33.708 91.695 33.732 91.5973 33.7745 91.5072C33.8172 91.4158 33.8779 91.3338 33.953 91.2661C34.028 91.1984 34.1159 91.1463 34.2114 91.1129L34.2183 91.1105C38.3754 89.6361 42.9583 86.9289 47.1235 83.4863C51.8922 79.5445 55.8426 74.8584 58.5479 69.9343C58.6283 69.7877 58.7554 69.6718 58.909 69.6047C59.0626 69.5376 59.2341 69.5232 59.3965 69.5637C64.4267 70.8059 75.4446 72.1825 92.7174 67.4449C92.8906 67.3969 93.0751 67.4121 93.2375 67.4876C93.4 67.5632 93.5298 67.6942 93.6034 67.8569C102.025 86.272 103.746 103.758 98.7255 119.826C94.9767 131.826 88.2943 139.755 85.596 142.607C85.5137 142.694 85.4118 142.76 85.2988 142.799ZM85.4555 142.475L85.5256 142.541L85.4555 142.475C88.1441 139.633 94.8005 131.732 98.5377 119.771C103.543 103.749 101.822 86.3096 93.4233 67.9375C93.3687 67.8163 93.2722 67.7188 93.1513 67.6625C93.0305 67.6063 92.8932 67.595 92.7643 67.6307C89.2621 68.5911 83.8219 69.8736 77.7913 70.5279C70.7379 71.2903 64.5309 71.0326 59.3457 69.7501C59.2248 69.7204 59.0973 69.7315 58.9831 69.7816C58.8688 69.8316 58.7744 69.9179 58.7144 70.0269C55.9976 74.9718 52.0311 79.6775 47.2441 83.6349C43.0636 87.0898 38.4612 89.8109 34.2811 91.2934L34.2742 91.2959C34.203 91.3208 34.1374 91.3597 34.0814 91.4103C34.0254 91.4609 33.9801 91.5221 33.9482 91.5903C33.9165 91.6573 33.8986 91.73 33.8956 91.804C33.8926 91.8779 33.9046 91.9517 33.9308 92.0208C34.0858 92.4343 34.2417 92.8502 34.3985 93.2685C37.8981 102.609 41.8647 113.195 49.4077 122.278C57.8467 132.44 69.4617 139.1 84.9159 142.639C85.0118 142.661 85.1118 142.657 85.206 142.629C85.3002 142.6 85.3853 142.547 85.453 142.476L85.4555 142.475Z" fill="white"/>
<path d="M49.975 192.511H45.452C39.8685 192.511 35.3423 197.019 35.3423 202.58V229.567C35.3423 235.129 39.8685 239.637 45.452 239.637H49.975C55.5585 239.637 60.0847 235.129 60.0847 229.567V202.58C60.0847 197.019 55.5585 192.511 49.975 192.511Z" fill="#263D2A"/>
<path d="M189.313 192.511H184.79C179.207 192.511 174.68 197.019 174.68 202.58V229.567C174.68 235.129 179.207 239.637 184.79 239.637H189.313C194.897 239.637 199.423 235.129 199.423 229.567V202.58C199.423 197.019 194.897 192.511 189.313 192.511Z" fill="#263D2A"/>
<path d="M49.0588 152.51C48.7549 152.441 48.3642 152.173 48.3642 151.866V149.795C48.3991 148.832 48.1605 147.879 47.676 147.046C47.1915 146.212 46.4806 145.532 45.6251 145.082C44.5024 144.511 43.2633 144.204 42.0029 144.185C40.7425 144.165 39.4943 144.434 38.3543 144.97L34.209 146.976C33.2222 147.451 32.3943 148.2 31.8252 149.133C31.256 150.065 30.9698 151.142 31.0011 152.233V153.811C30.9767 155.205 31.4646 156.559 32.3728 157.618C33.2811 158.678 34.5469 159.371 35.9322 159.566L53.5776 161.965L55.6524 153.937L49.0588 152.51Z" fill="#5FCF86"/>
<path d="M186.966 152.51C187.27 152.441 187.269 152.173 187.269 151.866V149.795C187.269 147.802 188.611 145.978 190.399 145.083C191.557 144.512 192.828 144.205 194.12 144.186C195.411 144.167 196.691 144.435 197.865 144.97L202.371 146.976C204.42 147.927 205.935 150.003 205.935 152.234V153.812C205.902 155.233 205.359 156.596 204.403 157.652C203.447 158.708 202.142 159.387 200.726 159.566L182.95 161.966L180.615 153.937L186.966 152.51Z" fill="#5FCF86"/>
<path d="M200.114 170.262C197.548 161.646 184.309 153.531 184.309 153.531C184.309 153.531 173.201 119.444 161.26 119.444H75.0127C63.0539 119.444 51.9458 153.531 51.9458 153.531C51.9458 153.531 38.7063 161.572 36.1409 170.189C34.27 176.488 38.3114 200.963 40.651 213.467C41.4671 217.872 45.643 221.478 50.5221 221.478H185.733C190.608 221.478 194.783 217.911 195.604 213.501C197.922 201.002 201.985 176.562 200.114 170.262Z" fill="#5FCF86"/>
<path d="M198.446 206.683C198.049 206.274 197.568 205.955 197.037 205.748C196.505 205.541 195.934 205.45 195.364 205.481H40.8891C40.322 205.45 39.7548 205.54 39.2255 205.745C38.6962 205.95 38.217 206.266 37.82 206.67C37.4573 207.054 37.1973 207.522 37.0638 208.032C36.9303 208.542 36.9276 209.077 37.0561 209.589L39.5869 219.809C39.8183 220.65 40.3168 221.393 41.0078 221.927C41.6987 222.462 42.5448 222.759 43.4196 222.775H192.708C193.579 222.751 194.42 222.45 195.108 221.917C195.796 221.383 196.295 220.645 196.532 219.809L199.184 209.749C199.321 209.216 199.326 208.659 199.197 208.125C199.068 207.59 198.811 207.096 198.446 206.683Z" fill="#5FCF86"/>
<path d="M76.4058 190.933C76.4058 190.933 72.5642 179.445 67.7242 178.451C62.8843 177.457 42.3827 173.207 41.953 176.752C41.5233 180.297 37.3996 192.494 49.6449 193.614C61.8903 194.733 78.3808 195.693 76.4058 190.933Z" fill="white"/>
<path d="M159.848 190.933C159.848 190.933 163.69 179.445 168.53 178.451C173.37 177.457 193.871 173.207 194.297 176.752C194.722 180.297 198.855 192.494 186.609 193.614C174.364 194.733 157.873 195.693 159.848 190.933Z" fill="white"/>
<path d="M157.087 181.041C156.896 180.73 156.631 180.47 156.315 180.283C156 180.097 155.644 179.991 155.277 179.973H80.9761C80.5979 179.993 80.2308 180.107 79.9079 180.304C79.585 180.502 79.3166 180.776 79.1273 181.103C78.938 181.43 78.8337 181.799 78.8238 182.176C78.8139 182.553 78.8988 182.927 79.0707 183.263L83.2508 191.175C84.0088 192.612 85.1445 193.818 86.5367 194.662C87.9289 195.507 89.5253 195.959 91.1554 195.97H145.745C147.477 195.963 149.17 195.457 150.619 194.514C152.069 193.57 153.213 192.229 153.914 190.652L157.248 183.151C157.393 182.812 157.454 182.443 157.426 182.076C157.398 181.709 157.282 181.354 157.087 181.041Z" fill="#19281C"/>
<path d="M177.32 156.375C177.08 156.726 176.755 157.011 176.377 157.206C175.998 157.4 175.576 157.498 175.15 157.491H61.1177C60.6822 157.503 60.2509 157.403 59.8653 157.201C59.4797 156.998 59.1527 156.701 58.916 156.337C58.6792 155.972 58.5407 155.553 58.5135 155.12C58.4863 154.687 58.5715 154.254 58.7608 153.863C61.3653 148.429 66.2052 138.385 68.9269 132.76C69.0549 132.484 69.1999 132.215 69.361 131.956C70.0109 130.916 70.9137 130.057 71.9858 129.457C73.0579 128.856 74.2647 128.536 75.4945 128.523H161.694C162.933 128.538 164.149 128.865 165.226 129.475C166.304 130.084 167.21 130.956 167.858 132.008C168.043 132.319 168.207 132.643 168.348 132.977L177.525 153.919C177.698 154.314 177.77 154.744 177.734 155.173C177.698 155.602 177.556 156.015 177.32 156.375Z" fill="#263D2A"/>
<path d="M74.5695 175.308C74.4599 175.307 74.3543 175.266 74.2743 175.191L59.5156 161.261C59.4558 161.179 59.4266 161.079 59.433 160.978C59.4393 160.878 59.481 160.782 59.5506 160.709C59.6202 160.635 59.7134 160.588 59.8141 160.576C59.9148 160.564 60.0165 160.588 60.1017 160.642L74.882 174.573C74.941 174.633 74.9813 174.708 74.9979 174.79C75.0145 174.873 75.0067 174.958 74.9754 175.036C74.9441 175.114 74.8907 175.181 74.8218 175.229C74.7528 175.278 74.6711 175.305 74.5869 175.308H74.5695Z" fill="white"/>
<path d="M160.596 175.308C160.538 175.307 160.481 175.295 160.428 175.271C160.375 175.248 160.327 175.215 160.288 175.174C160.209 175.093 160.166 174.985 160.166 174.873C160.166 174.761 160.209 174.653 160.288 174.573L175.046 160.642C175.131 160.588 175.233 160.564 175.334 160.576C175.435 160.588 175.528 160.635 175.598 160.709C175.667 160.782 175.709 160.878 175.715 160.978C175.722 161.079 175.692 161.179 175.632 161.261L160.874 175.191C160.798 175.262 160.7 175.303 160.596 175.308Z" fill="white"/>
<path d="M82.7475 79.3298L72.3449 107.639L57.3553 102.022L56.1941 105.227L74.3655 112.033L85.9325 80.5467L82.7475 79.3298Z" fill="white"/>
</svg>
