<svg width="240" height="240" viewBox="0 0 240 240" fill="none" xmlns="http://www.w3.org/2000/svg">
<path d="M191.762 229.437L52.2012 229.385C34.7007 229.382 20.4192 215.994 20.293 199.49L19.1093 40.4355C18.9831 23.931 33.0744 10.561 50.5749 10.5636L190.136 10.6161C207.636 10.6187 221.918 24.0066 222.044 40.5111L223.215 199.564C223.341 216.069 209.25 229.439 191.762 229.437Z" fill="#EFFAF3"/>
<path d="M183.099 71.4935L178.15 101.552C177.193 107.363 181.128 112.85 186.939 113.807L216.998 118.756C222.809 119.712 228.296 115.777 229.253 109.966L234.202 79.9073C235.158 74.096 231.223 68.6094 225.412 67.6526L195.353 62.7037C189.542 61.7469 184.055 65.6822 183.099 71.4935Z" fill="#AAAAAA"/>
<path fill-rule="evenodd" clip-rule="evenodd" d="M210.25 93.9941C210.305 95.7413 209.188 96.9985 208.228 98.2363C207.745 98.8546 207.102 99.3285 206.369 99.6063C205.635 99.8842 204.84 99.9554 204.069 99.8121C200.51 99.1807 197.058 98.0545 193.812 96.4663C193.659 96.4028 193.537 96.2826 193.471 96.1309C193.463 96.038 193.482 95.9446 193.526 95.8622C193.569 95.7799 193.637 95.7122 193.718 95.6673C197.136 93.7263 200.909 93.1856 204.646 92.5851C206.076 92.3122 207.546 92.3426 208.963 92.6745C209.274 92.7643 209.555 92.9331 209.781 93.1644C210.007 93.3957 210.168 93.6816 210.25 93.9941ZM223.865 88.8146C225.328 90.4874 226.541 92.6326 225.647 94.836C224.213 98.0763 220.269 99.2733 217.144 99.9295C215.45 100.271 213.722 100.416 211.994 100.36C211.88 100.342 211.704 100.313 211.703 100.159L211.778 99.9737C214.609 97.5894 217.13 94.8611 219.285 91.8521C220.283 90.5485 221.236 89.1923 222.137 87.8187C222.234 87.7427 222.348 87.6905 222.469 87.6661C223.023 87.9186 223.505 88.3077 223.868 88.7971L223.865 88.8146ZM200.66 81.2926L200.573 81.4943C196.315 84.9812 193.184 89.284 190.167 93.6597C189.662 93.9908 189.313 93.375 188.965 93.1375C187.19 91.5033 185.74 89.0942 186.672 86.6628C188.087 83.5365 191.698 82.3387 194.708 81.6184C196.516 81.2476 198.357 81.0619 200.203 81.0641C200.341 81.0959 200.596 81.1378 200.66 81.2926ZM218.352 84.8809C218.536 85.0193 218.775 85.1036 218.864 85.3255C218.954 85.5473 218.696 85.6939 218.548 85.8228C215.383 87.402 211.964 88.4093 208.449 88.7982C206.708 88.9258 204.894 89.3837 203.066 88.6685C202.851 88.5726 202.656 88.4345 202.494 88.2625C202.332 88.0905 202.206 87.888 202.124 87.6667C201.87 86.31 202.723 85.0636 203.449 84.0483C204.399 82.7637 205.95 81.326 207.726 81.5913C211.405 82.1827 214.982 83.2902 218.352 84.8809ZM223.052 85.7628C225.676 87.8249 228.468 91.1576 227.545 94.7972C226.584 98.1695 222.98 100.044 219.884 101.011C210.861 103.632 199.108 101.823 191.046 96.9115C188.325 95.2207 185.398 92.5953 184.687 89.254C184.174 86.5216 185.764 84.0276 187.973 82.59C192.6 79.5962 197.927 79.1854 203.324 79.3355C209.12 79.5765 214.79 81.0975 219.928 83.7894C221.013 84.3679 222.058 85.0183 223.057 85.7365L223.052 85.7628Z" fill="white"/>
<path d="M130.219 12.0236L125.269 44.217C124.312 50.441 128.582 56.2624 134.806 57.2194L167 62.1694C173.224 63.1264 179.045 58.8566 180.002 52.6326L184.952 20.4392C185.909 14.2152 181.639 8.39381 175.415 7.43682L143.222 2.48681C136.998 1.52982 131.176 5.79957 130.219 12.0236Z" fill="#5CB3FF"/>
<path d="M152.063 43.6456C150.542 43.4117 148.888 42.9748 147.425 42.5479C141.227 40.7201 136.245 37.7334 133.742 34.3203C132.754 33.0703 132.164 31.5531 132.047 29.9643C132.024 29.5723 132.046 29.1791 132.112 28.7919C132.165 28.4028 132.262 28.021 132.402 27.6541C132.759 26.7052 133.314 25.8434 134.031 25.1263C136.227 23.1155 138.935 21.7491 141.858 21.177C148.331 19.8061 155.037 19.9937 161.423 21.7243C169.319 23.7651 175.458 27.7277 177.481 32.0186C177.935 32.9122 178.169 33.9011 178.166 34.9035C178.162 35.9059 177.92 36.893 177.459 37.7833C176.828 38.925 175.944 39.9071 174.874 40.6543C171.624 43.0385 166.382 44.3668 160.321 44.3962C157.551 44.3959 154.787 44.1478 152.062 43.655L152.063 43.6456ZM155.793 42.7098C158.718 43.0044 161.667 42.9448 164.578 42.532C166.626 42.2481 168.624 41.6749 170.512 40.8295C171.258 40.4919 171.967 40.0756 172.625 39.5876C173.345 39.0851 173.968 38.4583 174.467 37.7366C174.965 37.0638 175.288 36.2775 175.405 35.4487C175.542 34.6067 175.47 33.7439 175.196 32.9362C174.925 32.1156 174.52 31.3453 173.999 30.6564C173.059 29.4135 171.928 28.3278 170.648 27.4399C167.49 25.3224 163.969 23.8036 160.262 22.959C157.9 22.3844 155.494 22.0143 153.068 21.8529C147.174 21.485 141.914 22.4354 138.441 24.5162C137.877 24.8702 137.34 25.2665 136.836 25.7018C135.68 26.683 134.944 28.0697 134.779 29.5769C134.707 31.1818 135.228 32.7571 136.242 34.0029C137.165 35.2216 138.277 36.2851 139.536 37.153C143.248 39.6565 147.445 41.353 151.854 42.1329C152.417 42.2196 155.272 42.6585 155.826 42.7437L155.793 42.7098ZM140.138 35.9863C140.102 35.9617 140.071 35.9309 140.046 35.8953C140.008 35.8317 140.014 35.7941 140.823 30.4678L141.648 25.1054L141.593 25.0202C141.547 24.9458 141.528 24.9429 141.286 24.8959L141.032 24.8569L141.136 24.1808L144.78 24.741L144.845 24.8183L144.919 24.8971L144.622 26.8317C144.295 28.9541 144.307 28.879 144.448 28.9006C144.589 28.9223 144.587 28.8739 145.228 28.2035C146.932 26.4371 147.868 25.4755 147.946 25.4104C148.023 25.3454 148.067 25.2464 149.851 25.5208L151.438 25.7648L151.486 25.8298C151.516 25.8664 151.535 25.9105 151.541 25.9573C151.548 26.0041 151.541 26.0517 151.522 26.095L147.705 30.2281C147.382 30.5727 147.298 30.6847 147.288 30.7505C147.482 31.2692 147.728 31.7674 148.02 32.2378C150.535 37.2677 150.543 37.2785 150.538 37.3739C150.547 37.4021 150.549 37.4321 150.545 37.4615C150.54 37.4908 150.529 37.5187 150.512 37.5429L150.436 37.5985L148.783 37.3444C147.149 37.0931 147.121 37.0888 146.999 37.07C146.936 37.0316 146.882 36.9807 146.839 36.9205C146.839 36.9205 146.207 35.7178 145.516 34.333L144.217 31.778C144.205 31.7613 144.19 31.7472 144.173 31.7365C144.156 31.7258 144.136 31.7187 144.116 31.7156C144.096 31.7125 144.075 31.7135 144.056 31.7185C144.036 31.7235 144.017 31.7324 144.001 31.7448C143.994 31.7917 143.916 32.2988 143.643 34.0738L143.293 36.3465L143.216 36.4115L143.15 36.4686L141.732 36.2506C140.962 36.1321 140.304 36.0311 140.276 36.0267L140.138 35.9863ZM152.713 37.9198C152.674 37.8888 152.643 37.8476 152.626 37.8006C152.633 37.7537 152.816 36.561 153.456 32.4006L154.278 27.057L154.214 26.9703C154.149 26.893 154.139 26.8915 153.905 26.8554L153.67 26.8193L153.778 26.115L157.535 26.6926L157.598 26.7793L157.673 26.858L155.914 38.2966L155.838 38.3522L155.753 38.4064L154.307 38.1841C153.795 38.1401 153.287 38.062 152.785 37.9501L152.713 37.9198ZM158.104 38.7487C158.07 38.7275 158.044 38.6964 158.029 38.6596C158.014 38.6227 158.011 38.5822 158.02 38.5435C158.02 38.5435 158.551 37.462 159.184 36.223C159.817 34.9841 160.828 33.0342 161.43 31.8675C162.033 30.7008 162.663 29.4806 162.803 29.1945C162.943 28.9084 163.121 28.561 163.127 28.5234C163.128 28.4742 163.116 28.4257 163.091 28.3833C163.098 28.3363 163.034 28.3168 162.81 28.2727L162.566 28.2352L162.671 27.5496L164.897 27.8919C166.362 28.1171 167.16 28.2399 167.217 28.2485C167.264 28.2649 167.303 28.2984 167.327 28.3424C167.318 28.3988 167.486 29.184 168.12 32.8769C169.12 38.8756 169.388 40.2626 169.379 40.3189C169.373 40.3601 169.356 40.399 169.331 40.4321C169.306 40.4652 169.273 40.4914 169.234 40.5082C169.234 40.5082 168.746 40.4331 167.779 40.2844C167.277 40.2523 166.782 40.16 166.302 40.0093L166.187 39.8857C166.187 39.8857 166.064 39.2421 165.95 38.5515C164.899 31.9395 164.93 32.1172 164.89 32.063C164.85 32.0088 164.805 31.9922 164.749 32.0413C164.693 32.0904 164.584 32.3043 162.951 35.6101C162.477 36.5659 161.962 37.6019 161.811 37.8959C161.66 38.1899 161.473 38.5938 161.385 38.7917C161.217 39.1313 161.148 39.2071 161.017 39.2447C160.886 39.2823 158.192 38.8584 158.087 38.7942L158.104 38.7487Z" fill="white"/>
<path d="M62.9324 54.5041L68.9496 81.1123C70.1129 86.2565 75.2261 89.4837 80.3703 88.3204L106.979 82.3033C112.123 81.14 115.35 76.0267 114.187 70.8825L108.17 44.2742C107.006 39.13 101.893 35.9028 96.7488 37.0661L70.1405 43.0833C64.9963 44.2466 61.7691 49.3598 62.9324 54.5041Z" fill="#F26A2B"/>
<path fill-rule="evenodd" clip-rule="evenodd" d="M84.0865 64.1617C84.0443 63.9754 83.9618 63.6106 83.9618 63.6106C78.3353 63.9855 73.8466 62.5365 73.1131 59.7978C72.1412 61.6785 71.8483 63.8371 72.2839 65.9087C73.6425 71.9165 81.353 75.3457 89.8343 73.8846C87.626 73.1031 85.2239 69.1915 84.0865 64.1617ZM69.8751 66.9104C68.355 60.1884 75.4902 52.8473 85.806 50.5145C96.1217 48.1817 105.718 51.723 107.242 58.4604C108.765 65.1978 101.634 72.5217 91.3106 74.8563C80.9871 77.1908 71.3952 73.6323 69.8751 66.9104ZM92.1543 58.527C95.8984 57.0439 98.2932 55.0419 97.9263 53.4197C97.4348 51.2463 92.1541 50.5884 86.1695 51.9417C80.185 53.295 75.7012 56.1611 76.1926 58.3345C76.5595 59.9567 79.5904 60.7318 83.6006 60.4613C83.2779 56.1121 84.2932 52.7005 86.2803 52.2512C88.2673 51.8018 90.5725 54.4544 92.1543 58.527ZM92.2406 73.3405C100.525 71.0101 106.01 64.597 104.652 58.5892C104.153 56.5317 102.96 54.7092 101.274 53.4296C101.79 56.2175 98.3847 59.4515 93.1288 61.5376L93.2535 62.0887C94.3909 67.1185 93.9056 71.683 92.2406 73.3405ZM90.5018 59.121C89.4718 56.5146 88.0387 54.8316 86.8667 55.0966C85.6946 55.3617 85.1251 57.4975 85.3168 60.2935C87.0666 60.0474 88.793 59.657 90.4785 59.1263L90.5018 59.121ZM85.8171 63.444C86.7646 67.3092 88.7054 70.191 90.2035 69.8522C91.7015 69.5135 92.2258 66.1313 91.4057 62.1802C89.5854 62.7713 87.7147 63.1944 85.8171 63.444Z" fill="white"/>
<path d="M22.211 200.085C28.3192 200.062 33.2442 193.176 33.2111 184.706C33.1781 176.236 28.1995 169.389 22.0913 169.413C15.983 169.437 11.058 176.322 11.0911 184.792C11.1241 193.262 16.1027 200.109 22.211 200.085Z" fill="url(#paint0_linear_1258_24383)"/>
<path d="M28.0222 169.39L22.0918 169.413L22.2114 200.06L28.1418 200.037L28.0222 169.39Z" fill="url(#paint1_linear_1258_24383)"/>
<path d="M28.1417 200.062C32.7989 200.044 36.5475 193.163 36.5145 184.693C36.4814 176.223 32.6792 169.372 28.022 169.39C23.3648 169.408 19.6161 176.289 19.6492 184.759C19.6823 193.229 23.4845 200.08 28.1417 200.062Z" fill="url(#paint2_linear_1258_24383)"/>
<path d="M28.9315 197.226C32.3173 197.212 35.0402 191.604 35.0133 184.699C34.9863 177.794 32.2197 172.207 28.8339 172.22C25.4481 172.233 22.7252 177.842 22.7522 184.747C22.7791 191.652 25.5457 197.239 28.9315 197.226Z" fill="#13192E"/>
<path d="M45.9229 146.451L43.5366 144.124L39.9823 143.865C38.7308 143.77 37.7489 142.233 37.7416 140.344C37.734 138.405 38.7787 136.81 40.0799 136.805L42.1568 136.797C43.3329 136.792 44.4129 137.832 44.8946 139.446L45.4523 141.283L47.5364 143.114C48.2645 143.758 48.3956 145.274 47.7985 146.171C47.2759 146.894 46.5006 147.021 45.9229 146.451Z" fill="#0EA971"/>
<path d="M8.00882 190.198C8.01784 192.51 10.0002 193.919 16.7563 193.892C23.5124 193.866 50.3824 192.643 55.9624 192.621C61.5425 192.599 123.17 191.638 123.17 191.638C123.17 191.638 127.343 164.329 113.021 162.123C98.6992 159.917 8.00882 190.198 8.00882 190.198Z" fill="#13192E"/>
<path d="M100.416 202.34C108.597 202.308 115.197 194.103 115.158 184.013C115.118 173.923 108.454 165.77 100.273 165.802C92.0919 165.834 85.4916 174.039 85.531 184.129C85.5704 194.219 92.2345 202.372 100.416 202.34Z" fill="url(#paint3_linear_1258_24383)"/>
<path d="M108.206 165.771L100.274 165.802L100.416 202.315L108.348 202.285L108.206 165.771Z" fill="url(#paint4_linear_1258_24383)"/>
<path d="M108.348 202.309C114.581 202.285 119.601 194.086 119.562 183.996C119.523 173.906 114.438 165.747 108.205 165.771C101.973 165.795 96.9521 173.994 96.9915 184.084C97.0308 194.174 102.115 202.334 108.348 202.309Z" fill="url(#paint5_linear_1258_24383)"/>
<path d="M109.386 198.925C113.919 198.907 117.567 192.227 117.535 184.004C117.503 175.781 113.803 169.129 109.27 169.147C104.737 169.165 101.088 175.845 101.12 184.068C101.152 192.291 104.853 198.943 109.386 198.925Z" fill="#151C32"/>
<path d="M109.339 186.919C110.126 186.916 110.76 185.745 110.755 184.304C110.749 182.862 110.106 181.696 109.318 181.699C108.53 181.702 107.896 182.873 107.902 184.315C107.908 185.756 108.551 186.922 109.339 186.919Z" fill="url(#paint6_linear_1258_24383)"/>
<path d="M109.388 199.546C104.784 199.564 100.978 192.743 100.946 184.317C100.913 175.916 104.639 169.041 109.269 169.023C113.873 169.005 117.678 175.825 117.711 184.252C117.744 192.678 114.017 199.528 109.388 199.546ZM109.273 170.067C104.969 170.083 101.491 176.485 101.521 184.34C101.552 192.194 105.08 198.544 109.384 198.527C113.688 198.51 117.166 192.108 117.135 184.279C117.105 176.424 113.577 170.05 109.273 170.067Z" fill="url(#paint7_linear_1258_24383)"/>
<path d="M109.332 185.304L107.67 169.874C107.67 169.874 109.969 169.119 111.098 169.861L109.332 185.304Z" fill="url(#paint8_linear_1258_24383)"/>
<path d="M109.855 184.606L101.29 182.651C101.29 182.651 101.598 178.399 102.317 176.706L109.855 184.606Z" fill="url(#paint9_linear_1258_24383)"/>
<path d="M109.65 183.488L106.028 197.72C106.028 197.72 103.893 195.864 103.236 194.052L109.65 183.488Z" fill="url(#paint10_linear_1258_24383)"/>
<path d="M109 183.49L115.322 194.228C115.322 194.228 113.708 197.317 112.559 197.918L109 183.49Z" fill="url(#paint11_linear_1258_24383)"/>
<path d="M108.803 184.61L116.331 177.024C116.331 177.024 117.447 180.798 117.405 182.96L108.803 184.61Z" fill="url(#paint12_linear_1258_24383)"/>
<path d="M203.051 187.15L187.235 186.764L187.127 158.95L206.894 165.162L203.051 187.15Z" fill="#13192E"/>
<path d="M185.369 195.869C192.431 195.841 198.128 188.753 198.094 180.035C198.06 171.318 192.308 164.274 185.246 164.302C178.184 164.329 172.487 171.418 172.521 180.135C172.555 188.852 178.307 195.897 185.369 195.869Z" fill="url(#paint13_linear_1258_24383)"/>
<path d="M192.102 164.3L185.246 164.326L185.369 195.869L192.225 195.842L192.102 164.3Z" fill="url(#paint14_linear_1258_24383)"/>
<path d="M192.226 195.842C197.615 195.821 201.957 188.738 201.923 180.02C201.889 171.303 197.492 164.254 192.102 164.275C186.713 164.296 182.371 171.38 182.405 180.097C182.439 188.814 186.836 195.863 192.226 195.842Z" fill="url(#paint15_linear_1258_24383)"/>
<path d="M200.172 180.028C200.199 187.136 197.044 192.915 193.115 192.931C189.187 192.946 185.986 187.192 185.959 180.083C185.931 172.974 189.086 167.195 193.015 167.18C196.944 167.189 200.144 172.919 200.172 180.028Z" fill="#151C32"/>
<path d="M194.317 180.299C194.312 179.056 193.758 178.039 193.082 178.042C192.407 178.044 191.86 179.066 191.865 180.309C191.87 181.551 192.424 182.568 193.1 182.566C193.776 182.563 194.322 181.542 194.317 180.299Z" fill="url(#paint16_linear_1258_24383)"/>
<path d="M193.015 167.13C189.036 167.146 185.806 173.074 185.835 180.332C185.863 187.59 189.139 193.493 193.118 193.478C197.096 193.462 200.326 187.534 200.298 180.276C200.269 173.018 197.018 167.114 193.015 167.13ZM193.114 192.608C189.386 192.622 186.337 187.116 186.31 180.33C186.284 173.544 189.29 168.015 193.018 168C196.747 167.985 199.796 173.492 199.822 180.277C199.849 187.063 196.843 192.593 193.114 192.608Z" fill="url(#paint17_linear_1258_24383)"/>
<path d="M193.063 179.434L191.713 192.762C191.713 192.762 193.718 193.401 194.666 192.751L193.063 179.434Z" fill="url(#paint18_linear_1258_24383)"/>
<path d="M193.516 180.029L186.141 181.772C186.141 181.772 186.43 185.425 187.087 186.889L193.516 180.029Z" fill="url(#paint19_linear_1258_24383)"/>
<path d="M193.369 180.998L190.143 168.732C190.143 168.732 188.323 170.355 187.754 171.923L193.369 180.998Z" fill="url(#paint20_linear_1258_24383)"/>
<path d="M192.794 181.001L198.187 171.683C198.187 171.683 196.776 169.029 195.773 168.511L192.794 181.001Z" fill="url(#paint21_linear_1258_24383)"/>
<path d="M192.615 180.032L199.171 186.544C199.171 186.544 200.109 183.284 200.077 181.42L192.615 180.032Z" fill="url(#paint22_linear_1258_24383)"/>
<path d="M7.32275 193.929C3.45433 190.116 0.257535 185.282 0.257535 185.282L0.191967 168.479C0.191967 168.479 4.53 157.973 41.2623 144.755C41.2623 144.755 54.1006 132.326 75.5361 123.543C103.101 120.775 142.435 120.398 148.994 120.994C159.132 121.874 170.909 126.004 184.358 135.422C197.782 144.84 206.432 149.33 207.811 156.459C209.011 162.569 207.218 177.713 206.961 182.188C206.914 182.959 206.616 183.681 206.118 184.28L203.026 187.15C203.026 187.15 207.689 163.618 193.851 163.672C180.014 163.726 182.848 190.982 182.848 190.982L118.746 192.848C119.545 179.572 119.213 165.131 107.6 164.331C94.1587 163.415 91.92 179.679 91.9744 193.599L53.6897 193.748L50.0976 190.208L10.5618 190.362L7.32275 193.929Z" fill="#5FCF86"/>
<path d="M148.582 124.575C142.798 123.603 137.995 123.896 134.872 125.076C131.748 126.256 121.628 136.288 117.718 140.902C113.807 145.491 113.812 146.858 113.817 148.2C113.823 149.542 119.693 159.835 120.321 166.743C120.948 173.65 122.207 182.072 121.273 186.276L158.031 186.133C158.006 186.133 159.17 138.031 148.582 124.575Z" fill="#5FCF86"/>
<path d="M148.582 124.575C150.978 129.338 155.899 140.032 157.324 152.405C158.724 164.803 158.869 182.724 158.882 186.104C162.735 186.089 179.3 186.025 179.3 186.025C179.962 169.666 182.99 163.242 188.434 160.511C188.422 157.354 188.17 144.082 185.651 139.916C183.108 135.75 162.051 119.849 148.582 124.575Z" fill="#5FCF86"/>
<path d="M11.9907 165.401C10.089 165.408 5.81116 172.111 5.81116 172.111C5.81116 172.111 8.73804 184.727 12.0749 186.976C15.4073 188.081 44.3055 187.223 44.3055 187.223C44.3055 187.223 54.7746 176.817 56.2857 172.908C55.5242 170.127 48.9525 166.126 48.0734 165.285C40.8157 165.015 30.8349 165.874 27.2817 165.888C23.7284 165.902 15.5459 165.909 11.9907 165.401Z" fill="url(#paint23_linear_1258_24383)"/>
<path d="M55.8538 164.782C57.9937 168.079 59.1285 170.337 60.9076 170.951C62.6867 171.591 77.7486 171.085 83.099 169.92C88.4745 168.781 94.5126 164.308 94.9489 160.702C94.5532 155.484 84.4246 156.94 81.3968 156.952C78.3691 156.964 59.0261 163.328 55.8538 164.782Z" fill="#5DDCAF"/>
<path d="M10.1357 164.662C10.1386 165.408 6.90338 169.969 5.80239 169.973C4.70139 169.978 2.9369 166.679 2.93041 165.013C2.924 163.373 8.01359 159.5 9.41612 159.818C10.8186 160.135 10.1317 163.643 10.1357 164.662Z" fill="#5DDCAF"/>
<path d="M137.599 125.14C129.961 129.842 119.918 140.495 117.205 144.334C114.493 148.172 137.082 146.518 146.14 146.483C155.224 146.448 153.624 147.025 153.617 145.112C153.61 143.471 150.18 130.112 146.383 125.23C145.804 124.437 138.474 124.863 137.599 125.14Z" fill="url(#paint24_linear_1258_24383)"/>
<path d="M150.81 124.616C149.386 125.268 156.547 139.209 157.022 145.596C161.402 145.877 180.243 145.356 182.486 143.135C182.279 141.47 177.271 134.132 168.594 129.195C163.528 126.331 155.888 124.273 150.81 124.616Z" fill="url(#paint25_linear_1258_24383)"/>
<path d="M130.866 124.644C123.923 128.077 112.45 144.129 109.6 144.836C106.751 145.543 45.9388 144.065 45.9388 144.065C51.9165 136.933 69.8721 127.716 74.5174 125.411C79.1877 123.106 123.729 123.205 130.866 124.644Z" fill="url(#paint26_linear_1258_24383)"/>
<path d="M72.0921 164.445C71.9246 166.409 73.1825 168.144 74.8846 168.287C76.5867 168.429 78.1324 166.957 78.2998 164.968C78.4673 163.003 77.2094 161.268 75.5073 161.126C73.7801 160.983 72.2595 162.481 72.0921 164.445Z" fill="white"/>
<path d="M65.3671 165.863C65.2234 167.504 66.28 168.942 67.7067 169.061C69.1335 169.179 70.4049 167.957 70.5486 166.291C70.6923 164.65 69.6357 163.212 68.2089 163.093C66.7822 162.975 65.5108 164.197 65.3671 165.863Z" fill="white"/>
<path d="M69.8901 189.907C71.4518 189.901 72.711 188.182 72.7028 186.068C72.6945 183.954 71.4219 182.245 69.8603 182.251C68.2987 182.257 67.0394 183.976 67.0477 186.09C67.0559 188.204 68.3285 189.913 69.8901 189.907Z" fill="#0EA971"/>
<path d="M68.0483 186.086C68.0536 187.453 68.8837 188.568 69.8846 188.564C70.9106 188.56 71.7069 187.439 71.7016 186.072C71.6962 184.705 70.8661 183.589 69.8652 183.593C68.8393 183.597 68.0429 184.719 68.0483 186.086Z" fill="#0EA971"/>
<path d="M3.00772 184.824C3.015 186.688 3.9967 188.175 5.17277 188.171C6.37385 188.166 7.31889 186.671 7.31162 184.807C7.30434 182.943 6.32264 181.455 5.14658 181.46C3.97051 181.464 3.00045 182.959 3.00772 184.824Z" fill="#0EA971"/>
<path d="M3.75829 184.821C3.76295 186.014 4.39239 187.006 5.1681 187.003C5.9438 186.999 6.56558 186.028 6.56083 184.81C6.55608 183.592 5.92673 182.625 5.15102 182.628C4.40034 182.631 3.75354 183.603 3.75829 184.821Z" fill="#0EA971"/>
<path d="M38.5564 182.498L15.4355 182.588C15.0601 182.589 14.7337 182.292 14.7321 181.895L14.7139 177.222C14.7124 176.849 15.0115 176.524 15.4118 176.523L38.5327 176.433C38.9081 176.431 39.2345 176.728 39.2361 177.126L39.2543 181.799C39.2309 182.197 38.9318 182.496 38.5564 182.498Z" fill="url(#paint27_linear_1258_24383)"/>
<path d="M28.9578 172.12L24.5038 172.137C23.5279 172.141 22.724 171.349 22.7203 170.38C22.7165 169.41 23.5141 168.612 24.49 168.608L28.944 168.59C29.9199 168.587 30.7237 169.379 30.7275 170.348C30.7313 171.318 29.9337 172.116 28.9578 172.12Z" fill="url(#paint28_linear_1258_24383)"/>
<path d="M124.503 148.506L128.122 146.156L133.526 145.861C135.427 145.754 136.898 144.208 136.89 142.319C136.883 140.38 135.275 138.795 133.323 138.803L130.146 138.815C128.344 138.822 126.747 139.872 126.027 141.491L125.209 143.333L122.063 145.185C120.964 145.836 120.77 147.353 121.699 148.244C122.453 148.987 123.605 149.082 124.503 148.506Z" fill="#0EA971"/>
<path d="M145.098 154.963C145.101 155.734 146.229 156.252 148.331 156.243C150.433 156.235 154.736 155.945 154.88 154.478C153.901 153.736 146.396 154.237 145.098 154.963Z" fill="#0EA971"/>
<path d="M177.335 150.488C177.338 151.258 178.241 151.777 179.917 151.77C181.594 151.763 185.046 151.477 185.165 150.01C184.387 149.267 178.383 149.763 177.335 150.488Z" fill="#0EA971"/>
<path d="M199.663 146.051C201.84 146.042 206.336 150.449 206.345 152.761C206.354 155.047 194.112 153.405 193.097 149.979C192.667 148.613 196.359 145.691 199.663 146.051Z" fill="#F26A2B"/>
<defs>
<linearGradient id="paint0_linear_1258_24383" x1="22.2222" y1="200.139" x2="22.045" y2="154.743" gradientUnits="userSpaceOnUse">
<stop stop-color="#2C3E63"/>
<stop offset="1" stop-color="#13192E"/>
</linearGradient>
<linearGradient id="paint1_linear_1258_24383" x1="25.1886" y1="200.128" x2="25.0115" y2="154.731" gradientUnits="userSpaceOnUse">
<stop stop-color="#2C3E63"/>
<stop offset="1" stop-color="#13192E"/>
</linearGradient>
<linearGradient id="paint2_linear_1258_24383" x1="28.1544" y1="200.116" x2="27.9773" y2="154.72" gradientUnits="userSpaceOnUse">
<stop stop-color="#2C3E63"/>
<stop offset="1" stop-color="#13192E"/>
</linearGradient>
<linearGradient id="paint3_linear_1258_24383" x1="100.416" y1="202.409" x2="100.205" y2="148.313" gradientUnits="userSpaceOnUse">
<stop stop-color="#2C3E63"/>
<stop offset="1" stop-color="#13192E"/>
</linearGradient>
<linearGradient id="paint4_linear_1258_24383" x1="104.388" y1="202.393" x2="104.177" y2="148.297" gradientUnits="userSpaceOnUse">
<stop stop-color="#2C3E63"/>
<stop offset="1" stop-color="#13192E"/>
</linearGradient>
<linearGradient id="paint5_linear_1258_24383" x1="108.359" y1="202.378" x2="108.148" y2="148.282" gradientUnits="userSpaceOnUse">
<stop stop-color="#2C3E63"/>
<stop offset="1" stop-color="#13192E"/>
</linearGradient>
<linearGradient id="paint6_linear_1258_24383" x1="109.398" y1="200.203" x2="109.28" y2="169.993" gradientUnits="userSpaceOnUse">
<stop stop-color="#EBEFF7"/>
<stop offset="1" stop-color="#B3B6C2"/>
</linearGradient>
<linearGradient id="paint7_linear_1258_24383" x1="109.398" y1="200.203" x2="109.28" y2="169.993" gradientUnits="userSpaceOnUse">
<stop stop-color="#EBEFF7"/>
<stop offset="1" stop-color="#B3B6C2"/>
</linearGradient>
<linearGradient id="paint8_linear_1258_24383" x1="109.503" y1="200.202" x2="109.385" y2="169.992" gradientUnits="userSpaceOnUse">
<stop stop-color="#EBEFF7"/>
<stop offset="1" stop-color="#B3B6C2"/>
</linearGradient>
<linearGradient id="paint9_linear_1258_24383" x1="105.646" y1="200.217" x2="105.528" y2="170.007" gradientUnits="userSpaceOnUse">
<stop stop-color="#EBEFF7"/>
<stop offset="1" stop-color="#B3B6C2"/>
</linearGradient>
<linearGradient id="paint10_linear_1258_24383" x1="106.497" y1="200.214" x2="106.379" y2="170.004" gradientUnits="userSpaceOnUse">
<stop stop-color="#EBEFF7"/>
<stop offset="1" stop-color="#B3B6C2"/>
</linearGradient>
<linearGradient id="paint11_linear_1258_24383" x1="112.214" y1="200.191" x2="112.096" y2="169.982" gradientUnits="userSpaceOnUse">
<stop stop-color="#EBEFF7"/>
<stop offset="1" stop-color="#B3B6C2"/>
</linearGradient>
<linearGradient id="paint12_linear_1258_24383" x1="113.182" y1="200.188" x2="113.065" y2="169.978" gradientUnits="userSpaceOnUse">
<stop stop-color="#EBEFF7"/>
<stop offset="1" stop-color="#B3B6C2"/>
</linearGradient>
<linearGradient id="paint13_linear_1258_24383" x1="185.37" y1="195.945" x2="185.187" y2="149.21" gradientUnits="userSpaceOnUse">
<stop stop-color="#2C3E63"/>
<stop offset="1" stop-color="#13192E"/>
</linearGradient>
<linearGradient id="paint14_linear_1258_24383" x1="188.801" y1="195.931" x2="188.618" y2="149.197" gradientUnits="userSpaceOnUse">
<stop stop-color="#2C3E63"/>
<stop offset="1" stop-color="#13192E"/>
</linearGradient>
<linearGradient id="paint15_linear_1258_24383" x1="192.232" y1="195.918" x2="192.049" y2="149.184" gradientUnits="userSpaceOnUse">
<stop stop-color="#2C3E63"/>
<stop offset="1" stop-color="#13192E"/>
</linearGradient>
<linearGradient id="paint16_linear_1258_24383" x1="193.023" y1="166.564" x2="193.124" y2="192.663" gradientUnits="userSpaceOnUse">
<stop stop-color="#EBEFF7"/>
<stop offset="1" stop-color="#B3B6C2"/>
</linearGradient>
<linearGradient id="paint17_linear_1258_24383" x1="193.023" y1="166.564" x2="193.125" y2="192.663" gradientUnits="userSpaceOnUse">
<stop stop-color="#EBEFF7"/>
<stop offset="1" stop-color="#B3B6C2"/>
</linearGradient>
<linearGradient id="paint18_linear_1258_24383" x1="193.113" y1="166.564" x2="193.215" y2="192.663" gradientUnits="userSpaceOnUse">
<stop stop-color="#EBEFF7"/>
<stop offset="1" stop-color="#B3B6C2"/>
</linearGradient>
<linearGradient id="paint19_linear_1258_24383" x1="189.782" y1="166.577" x2="189.884" y2="192.675" gradientUnits="userSpaceOnUse">
<stop stop-color="#EBEFF7"/>
<stop offset="1" stop-color="#B3B6C2"/>
</linearGradient>
<linearGradient id="paint20_linear_1258_24383" x1="190.517" y1="166.574" x2="190.618" y2="192.672" gradientUnits="userSpaceOnUse">
<stop stop-color="#EBEFF7"/>
<stop offset="1" stop-color="#B3B6C2"/>
</linearGradient>
<linearGradient id="paint21_linear_1258_24383" x1="195.455" y1="166.554" x2="195.557" y2="192.653" gradientUnits="userSpaceOnUse">
<stop stop-color="#EBEFF7"/>
<stop offset="1" stop-color="#B3B6C2"/>
</linearGradient>
<linearGradient id="paint22_linear_1258_24383" x1="196.293" y1="166.551" x2="196.394" y2="192.65" gradientUnits="userSpaceOnUse">
<stop stop-color="#EBEFF7"/>
<stop offset="1" stop-color="#B3B6C2"/>
</linearGradient>
<linearGradient id="paint23_linear_1258_24383" x1="5.82145" y1="176.48" x2="56.2816" y2="176.283" gradientUnits="userSpaceOnUse">
<stop stop-color="#2C3E63"/>
<stop offset="1" stop-color="#13192E"/>
</linearGradient>
<linearGradient id="paint24_linear_1258_24383" x1="116.95" y1="135.904" x2="153.71" y2="135.76" gradientUnits="userSpaceOnUse">
<stop stop-color="#2C3E63"/>
<stop offset="1" stop-color="#13192E"/>
</linearGradient>
<linearGradient id="paint25_linear_1258_24383" x1="150.648" y1="135.138" x2="182.428" y2="135.014" gradientUnits="userSpaceOnUse">
<stop stop-color="#2C3E63"/>
<stop offset="1" stop-color="#13192E"/>
</linearGradient>
<linearGradient id="paint26_linear_1258_24383" x1="81.2654" y1="126.637" x2="104.372" y2="151.979" gradientUnits="userSpaceOnUse">
<stop stop-color="#2C3E63"/>
<stop offset="1" stop-color="#13192E"/>
</linearGradient>
<linearGradient id="paint27_linear_1258_24383" x1="40.8382" y1="171.506" x2="4.5557" y2="192.757" gradientUnits="userSpaceOnUse">
<stop stop-color="#EBEFF7"/>
<stop offset="1" stop-color="#B3B6C2"/>
</linearGradient>
<linearGradient id="paint28_linear_1258_24383" x1="26.7232" y1="168.595" x2="26.7315" y2="170.718" gradientUnits="userSpaceOnUse">
<stop stop-color="#EBEFF7"/>
<stop offset="1" stop-color="#B3B6C2"/>
</linearGradient>
</defs>
</svg>
