<svg width="240" height="240" viewBox="0 0 240 240" fill="none" xmlns="http://www.w3.org/2000/svg">
<g clip-path="url(#clip0_1258_24191)">
<path d="M213.239 225.958L51.8233 235.062C36.6632 235.918 23.6656 224.296 22.7995 209.096L13.3616 43.1353C12.4974 27.9466 24.1009 14.9304 39.261 14.0742L200.675 4.95901C215.835 4.10281 228.833 15.7245 229.699 30.9246L239.139 196.897C239.992 212.087 228.399 225.102 213.239 225.958Z" fill="#EFFAF3"/>
<path d="M213.239 225.958L51.8233 235.062C36.6632 235.918 23.6656 224.296 22.7995 209.096L13.3616 43.1353C12.4974 27.9466 24.1009 14.9304 39.261 14.0742L200.675 4.95901C215.835 4.10281 228.833 15.7245 229.699 30.9246L239.139 196.897C239.992 212.087 228.399 225.102 213.239 225.958Z" fill="#EFFAF3"/>
<path d="M18.0231 205.754C22.5486 205.737 26.1974 200.635 26.1729 194.36C26.1484 188.085 22.4599 183.012 17.9344 183.03C13.4089 183.047 9.76009 188.149 9.78457 194.424C9.80906 200.699 13.4976 205.772 18.0231 205.754Z" fill="url(#paint0_linear_1258_24191)"/>
<path d="M22.3278 183.013L17.9341 183.03L18.0227 205.736L22.4164 205.719L22.3278 183.013Z" fill="url(#paint1_linear_1258_24191)"/>
<path d="M22.4168 205.737C25.8673 205.724 28.6445 200.626 28.62 194.35C28.5956 188.075 25.7786 182.999 22.3281 183.012C18.8777 183.026 16.1004 188.124 16.1249 194.399C16.1494 200.674 18.9664 205.751 22.4168 205.737Z" fill="url(#paint2_linear_1258_24191)"/>
<path d="M23.0017 203.635C25.5102 203.626 27.5276 199.471 27.5076 194.355C27.4876 189.239 25.4379 185.1 22.9295 185.109C20.421 185.119 18.4036 189.274 18.4236 194.39C18.4436 199.506 20.4933 203.645 23.0017 203.635Z" fill="#13192E"/>
<path d="M35.5911 166.018L33.8232 164.294L31.1899 164.102C30.2627 164.032 29.5352 162.893 29.5297 161.493C29.5241 160.057 30.2982 158.875 31.2622 158.872L32.8009 158.866C33.6722 158.862 34.4724 159.633 34.8293 160.828L35.2425 162.189L36.7865 163.546C37.326 164.023 37.4231 165.146 36.9807 165.81C36.5935 166.346 36.0192 166.44 35.5911 166.018Z" fill="#0EA971"/>
<path d="M7.5005 198.429C7.50718 200.142 8.97584 201.186 13.9813 201.166C18.9868 201.147 38.8942 200.241 43.0284 200.224C47.1625 200.208 92.8215 199.496 92.8215 199.496C92.8215 199.496 95.9127 179.263 85.302 177.629C74.6913 175.995 7.5005 198.429 7.5005 198.429Z" fill="#13192E"/>
<path d="M75.9639 207.425C82.0252 207.401 86.9152 201.322 86.886 193.847C86.8569 186.372 81.9196 180.331 75.8583 180.354C69.797 180.378 64.9069 186.457 64.9361 193.933C64.9653 201.408 69.9026 207.449 75.9639 207.425Z" fill="url(#paint3_linear_1258_24191)"/>
<path d="M81.7354 180.331L75.8586 180.354L75.9642 207.407L81.841 207.384L81.7354 180.331Z" fill="url(#paint4_linear_1258_24191)"/>
<path d="M81.8411 207.402C86.4588 207.384 90.1785 201.31 90.1493 193.834C90.1201 186.359 86.3532 180.314 81.7355 180.332C77.1179 180.35 73.3982 186.424 73.4273 193.9C73.4565 201.375 77.2235 207.42 81.8411 207.402Z" fill="url(#paint5_linear_1258_24191)"/>
<path d="M82.6099 204.895C85.9682 204.882 88.6714 199.933 88.6476 193.84C88.6238 187.748 85.8821 182.82 82.5238 182.833C79.1655 182.846 76.4624 187.796 76.4862 193.888C76.5099 199.98 79.2516 204.908 82.6099 204.895Z" fill="#151C32"/>
<path d="M82.575 196C83.1586 195.998 83.6283 195.13 83.6241 194.062C83.62 192.994 83.1435 192.13 82.5599 192.133C81.9763 192.135 81.5066 193.002 81.5107 194.07C81.5149 195.138 81.9914 196.002 82.575 196Z" fill="url(#paint6_linear_1258_24191)"/>
<path d="M82.6115 205.355C79.2003 205.369 76.3812 200.315 76.3569 194.072C76.3326 187.848 79.0936 182.755 82.5232 182.741C85.9344 182.728 88.7535 187.781 88.7779 194.024C88.8022 200.267 86.0412 205.342 82.6115 205.355ZM82.5263 183.515C79.3376 183.527 76.7606 188.27 76.7833 194.089C76.806 199.909 79.4199 204.613 82.6085 204.6C85.7972 204.588 88.3742 199.845 88.3515 194.044C88.3288 188.225 85.7149 183.502 82.5263 183.515Z" fill="url(#paint7_linear_1258_24191)"/>
<path d="M82.57 194.803L81.3388 183.372C81.3388 183.372 83.0423 182.812 83.8787 183.362L82.57 194.803Z" fill="url(#paint8_linear_1258_24191)"/>
<path d="M82.9577 194.286L76.6117 192.837C76.6117 192.837 76.8404 189.687 77.3731 188.433L82.9577 194.286Z" fill="url(#paint9_linear_1258_24191)"/>
<path d="M82.8055 193.458L80.1214 204.002C80.1214 204.002 78.5402 202.627 78.0529 201.284L82.8055 193.458Z" fill="url(#paint10_linear_1258_24191)"/>
<path d="M82.324 193.46L87.0083 201.415C87.0083 201.415 85.8122 203.704 84.9612 204.149L82.324 193.46Z" fill="url(#paint11_linear_1258_24191)"/>
<path d="M82.1786 194.289L87.7555 188.669C87.7555 188.669 88.5821 191.465 88.5513 193.067L82.1786 194.289Z" fill="url(#paint12_linear_1258_24191)"/>
<path d="M152.005 196.171L140.287 195.885L140.207 175.279L154.852 179.881L152.005 196.171Z" fill="#13192E"/>
<path d="M138.904 202.631C144.136 202.61 148.357 197.358 148.332 190.9C148.307 184.442 144.045 179.223 138.813 179.243C133.581 179.263 129.36 184.516 129.385 190.974C129.41 197.432 133.672 202.651 138.904 202.631Z" fill="url(#paint13_linear_1258_24191)"/>
<path d="M143.892 179.242L138.813 179.262L138.904 202.631L143.984 202.611L143.892 179.242Z" fill="url(#paint14_linear_1258_24191)"/>
<path d="M143.983 202.611C147.977 202.596 151.193 197.347 151.168 190.889C151.143 184.431 147.885 179.208 143.892 179.223C139.899 179.239 136.683 184.487 136.708 190.946C136.733 197.404 139.99 202.627 143.983 202.611Z" fill="url(#paint15_linear_1258_24191)"/>
<path d="M149.87 190.894C149.891 196.161 147.553 200.442 144.643 200.454C141.732 200.465 139.361 196.202 139.34 190.935C139.32 185.668 141.658 181.387 144.568 181.375C147.479 181.382 149.85 185.627 149.87 190.894Z" fill="#151C32"/>
<path d="M145.533 191.095C145.529 190.174 145.119 189.421 144.618 189.423C144.118 189.425 143.713 190.182 143.716 191.102C143.72 192.023 144.131 192.777 144.631 192.775C145.132 192.773 145.537 192.016 145.533 191.095Z" fill="url(#paint16_linear_1258_24191)"/>
<path d="M144.568 181.338C141.62 181.35 139.227 185.742 139.248 191.12C139.269 196.497 141.696 200.87 144.644 200.859C147.592 200.847 149.985 196.455 149.964 191.078C149.943 185.7 147.534 181.327 144.568 181.338ZM144.642 200.214C141.879 200.225 139.62 196.146 139.601 191.118C139.581 186.091 141.808 181.994 144.57 181.983C147.333 181.972 149.592 186.052 149.611 191.079C149.631 196.107 147.404 200.204 144.642 200.214Z" fill="url(#paint17_linear_1258_24191)"/>
<path d="M144.603 190.454L143.604 200.329C143.604 200.329 145.089 200.802 145.791 200.32L144.603 190.454Z" fill="url(#paint18_linear_1258_24191)"/>
<path d="M144.939 190.895L139.475 192.187C139.475 192.187 139.69 194.893 140.176 195.978L144.939 190.895Z" fill="url(#paint19_linear_1258_24191)"/>
<path d="M144.831 191.613L142.441 182.525C142.441 182.525 141.092 183.728 140.67 184.889L144.831 191.613Z" fill="url(#paint20_linear_1258_24191)"/>
<path d="M144.404 191.615L148.4 184.712C148.4 184.712 147.354 182.745 146.611 182.362L144.404 191.615Z" fill="url(#paint21_linear_1258_24191)"/>
<path d="M144.271 190.897L149.129 195.722C149.129 195.722 149.824 193.306 149.8 191.925L144.271 190.897Z" fill="url(#paint22_linear_1258_24191)"/>
<path d="M6.99274 201.194C4.1267 198.369 1.75826 194.787 1.75826 194.787L1.70968 182.338C1.70968 182.338 4.92364 174.554 32.1379 164.761C32.1379 164.761 41.6496 155.553 57.5307 149.046C77.9527 146.995 107.095 146.716 111.954 147.157C119.465 147.809 128.19 150.869 138.154 157.847C148.1 164.824 154.509 168.151 155.531 173.432C156.42 177.959 155.092 189.179 154.901 192.495C154.866 193.066 154.645 193.601 154.276 194.044L151.986 196.171C151.986 196.171 155.44 178.736 145.188 178.776C134.936 178.816 137.036 199.01 137.036 199.01L89.5441 200.393C90.1361 190.556 89.8904 179.858 81.2859 179.265C71.3278 178.586 69.6692 190.636 69.7095 200.949L41.3451 201.06L38.6838 198.436L9.3925 198.551L6.99274 201.194Z" fill="#5FCF86"/>
<path d="M111.65 149.811C107.364 149.091 103.806 149.307 101.492 150.182C99.1776 151.056 91.6797 158.489 88.7824 161.907C85.8851 165.307 85.889 166.319 85.8929 167.314C85.8968 168.308 90.2462 175.934 90.7111 181.052C91.176 186.169 92.1087 192.409 91.4164 195.524L118.65 195.417C118.631 195.417 119.493 159.78 111.65 149.811Z" fill="#5FCF86"/>
<path d="M111.649 149.81C113.424 153.339 117.07 161.262 118.126 170.429C119.163 179.614 119.27 192.892 119.28 195.396C122.135 195.385 134.407 195.337 134.407 195.337C134.898 183.218 137.141 178.458 141.175 176.434C141.165 174.096 140.979 164.262 139.113 161.176C137.228 158.089 121.628 146.309 111.649 149.81Z" fill="#5FCF86"/>
<path d="M10.4517 180.057C9.04279 180.063 5.87345 185.029 5.87345 185.029C5.87345 185.029 8.04192 194.376 10.5141 196.042C12.983 196.861 34.3932 196.225 34.3932 196.225C34.3932 196.225 42.1495 188.515 43.2691 185.62C42.7049 183.559 37.8361 180.595 37.1847 179.971C31.8076 179.771 24.413 180.408 21.7805 180.418C19.148 180.428 13.0858 180.434 10.4517 180.057Z" fill="url(#paint23_linear_1258_24191)"/>
<path d="M42.9484 179.599C44.5337 182.042 45.3745 183.715 46.6926 184.17C48.0107 184.643 59.1698 184.268 63.1338 183.406C67.1164 182.562 71.5899 179.248 71.9132 176.576C71.62 172.71 64.1159 173.789 61.8727 173.798C59.6295 173.806 45.2987 178.522 42.9484 179.599Z" fill="#5DDCAF"/>
<path d="M9.07712 179.51C9.07927 180.063 6.68238 183.442 5.86667 183.445C5.05097 183.448 3.74369 181.004 3.73888 179.77C3.73414 178.555 7.50491 175.686 8.54402 175.921C9.58312 176.157 9.07417 178.755 9.07712 179.51Z" fill="#5DDCAF"/>
<path d="M103.512 150.229C97.8529 153.713 90.4124 161.606 88.4028 164.45C86.3931 167.293 103.129 166.068 109.84 166.042C116.57 166.015 115.385 166.444 115.379 165.026C115.375 163.81 112.833 153.913 110.02 150.296C109.591 149.708 104.16 150.024 103.512 150.229Z" fill="url(#paint24_linear_1258_24191)"/>
<path d="M113.299 149.841C112.244 150.324 117.55 160.653 117.902 165.384C121.147 165.592 135.105 165.206 136.768 163.561C136.614 162.328 132.904 156.891 126.475 153.233C122.722 151.112 117.062 149.587 113.299 149.841Z" fill="url(#paint25_linear_1258_24191)"/>
<path d="M98.5237 149.862C93.3798 152.405 84.8797 164.298 82.7683 164.822C80.6569 165.345 35.6027 164.251 35.6027 164.251C40.0314 158.966 53.3344 152.137 56.776 150.43C60.2361 148.722 93.2359 148.796 98.5237 149.862Z" fill="url(#paint26_linear_1258_24191)"/>
<path d="M54.9787 179.349C54.8546 180.804 55.7866 182.09 57.0477 182.196C58.3088 182.301 59.4539 181.21 59.5779 179.736C59.702 178.281 58.7701 176.996 57.509 176.89C56.2294 176.784 55.1028 177.894 54.9787 179.349Z" fill="white"/>
<path d="M49.9959 180.4C49.8894 181.616 50.6722 182.681 51.7293 182.769C52.7863 182.857 53.7283 181.951 53.8347 180.716C53.9412 179.501 53.1584 178.435 52.1013 178.348C51.0443 178.26 50.1023 179.166 49.9959 180.4Z" fill="white"/>
<path d="M53.3477 198.213C54.5047 198.209 55.4377 196.935 55.4315 195.369C55.4254 193.803 54.4826 192.537 53.3256 192.541C52.1686 192.546 51.2357 193.819 51.2418 195.386C51.2479 196.952 52.1908 198.218 53.3477 198.213Z" fill="#0EA971"/>
<path d="M51.9833 195.383C51.9872 196.395 52.6022 197.222 53.3438 197.219C54.1039 197.216 54.6939 196.385 54.6899 195.372C54.686 194.359 54.071 193.533 53.3294 193.536C52.5693 193.539 51.9793 194.37 51.9833 195.383Z" fill="#0EA971"/>
<path d="M3.79657 194.447C3.80196 195.828 4.52928 196.931 5.4006 196.927C6.29047 196.924 6.99063 195.816 6.98524 194.435C6.97985 193.054 6.25252 191.952 5.3812 191.955C4.50988 191.958 3.79118 193.066 3.79657 194.447Z" fill="#0EA971"/>
<path d="M4.35276 194.445C4.35621 195.329 4.82255 196.064 5.39726 196.062C5.97196 196.06 6.43263 195.34 6.4291 194.437C6.42558 193.535 5.95931 192.818 5.38461 192.821C4.82844 192.823 4.34924 193.543 4.35276 194.445Z" fill="#0EA971"/>
<path d="M30.1335 192.724L13.0037 192.791C12.7256 192.792 12.4837 192.572 12.4826 192.277L12.4691 188.815C12.468 188.539 12.6895 188.299 12.9861 188.298L30.116 188.231C30.3941 188.23 30.6359 188.45 30.6371 188.744L30.6506 192.206C30.6332 192.501 30.4116 192.723 30.1335 192.724Z" fill="url(#paint27_linear_1258_24191)"/>
<path d="M23.0219 185.036L19.722 185.049C18.999 185.051 18.4034 184.464 18.4006 183.746C18.3978 183.028 18.9887 182.436 19.7118 182.434L23.0117 182.421C23.7347 182.418 24.3302 183.005 24.333 183.723C24.3358 184.441 23.7449 185.033 23.0219 185.036Z" fill="url(#paint28_linear_1258_24191)"/>
<path d="M93.8097 167.541L96.4911 165.799L100.495 165.581C101.903 165.502 102.993 164.356 102.987 162.956C102.982 161.52 101.79 160.346 100.344 160.352L97.99 160.361C96.6552 160.366 95.4718 161.144 94.9388 162.343L94.3324 163.708L92.0018 165.08C91.188 165.562 91.044 166.686 91.7325 167.346C92.2909 167.897 93.1439 167.967 93.8097 167.541Z" fill="#0EA971"/>
<path d="M109.067 172.325C109.069 172.896 109.905 173.279 111.462 173.273C113.02 173.267 116.207 173.052 116.314 171.965C115.589 171.415 110.029 171.787 109.067 172.325Z" fill="#0EA971"/>
<path d="M132.951 169.009C132.954 169.579 133.622 169.964 134.865 169.959C136.107 169.954 138.664 169.741 138.753 168.654C138.176 168.104 133.728 168.471 132.951 169.009Z" fill="#0EA971"/>
<path d="M149.494 165.721C151.107 165.715 154.438 168.98 154.445 170.693C154.452 172.387 145.381 171.17 144.63 168.631C144.311 167.62 147.046 165.455 149.494 165.721Z" fill="url(#paint29_linear_1258_24191)"/>
<mask id="mask0_1258_24191" style="mask-type:alpha" maskUnits="userSpaceOnUse" x="13" y="4" width="227" height="232">
<path d="M213.241 225.958L51.825 235.062C36.6649 235.918 23.6674 224.297 22.8013 209.096L13.3634 43.1357C12.4992 27.947 24.1027 14.9309 39.2628 14.0747L200.677 4.95947C215.837 4.10327 228.835 15.725 229.701 30.9251L239.14 196.897C239.993 212.088 228.401 225.102 213.241 225.958Z" fill="#EFFAF3"/>
</mask>
<g mask="url(#mask0_1258_24191)">
<path d="M115.799 90.6023L119.275 91.3694L120.299 107.049L108.289 104.402C104.217 103.507 101.649 99.4856 102.544 95.4134C103.062 93.0784 104.61 91.2211 106.609 90.2539C108.084 89.5286 109.807 89.2894 111.532 89.6683L115.799 90.6023Z" fill="#F5C2A2"/>
<path d="M127.434 93.1703L128.232 105.396L126.176 108.351L124.256 107.921L120.3 107.049L119.275 91.3694L125.801 92.8179L127.434 93.1703Z" fill="#2F2738"/>
<path d="M116.983 108.785L120.459 109.552L121.484 125.232L109.473 122.584C105.401 121.689 102.833 117.668 103.728 113.596C104.246 111.261 105.794 109.404 107.794 108.437C109.268 107.711 110.992 107.472 112.717 107.851L116.983 108.785Z" fill="#F26A2B"/>
<path d="M128.617 111.353L129.415 123.579L127.359 126.534L125.439 126.104L121.483 125.232L120.458 109.553L126.982 110.989L128.617 111.353Z" fill="#2F2738"/>
<path d="M116.981 108.773L120.457 109.54L121.482 125.22L109.472 122.573C105.412 121.676 102.831 117.656 103.74 113.595C104.258 111.26 105.806 109.403 107.806 108.436C109.28 107.71 111.004 107.471 112.729 107.85L116.981 108.773Z" fill="#F5C2A2"/>
<path d="M118.177 126.954L121.653 127.721L122.678 143.401L110.668 140.754C106.596 139.859 104.028 135.838 104.923 131.765C105.441 129.43 106.989 127.573 108.988 126.606C110.462 125.881 112.186 125.641 113.911 126.02L118.177 126.954Z" fill="#F5C2A2"/>
<path d="M129.8 129.524L130.598 141.75L128.555 144.703L126.622 144.274L122.679 143.401L121.654 127.721L128.167 129.171L129.8 129.524Z" fill="#2F2738"/>
<path d="M177.232 29.3774L125.713 32.7424C122.084 32.9783 119.343 36.1063 119.578 39.723L125.828 135.441L127.057 154.186C127.293 157.816 130.421 160.556 134.037 160.322L185.557 156.957C189.173 156.722 191.914 153.594 191.679 149.978L190.451 131.232L184.2 35.5142C183.977 31.8835 180.849 29.1431 177.232 29.3774Z" fill="white"/>
<path d="M119.579 39.7355L125.83 135.454L190.463 131.231L184.213 35.5127C183.977 31.8835 180.849 29.1431 177.232 29.3774L125.713 32.7424C122.084 32.9783 119.343 36.1063 119.579 39.7355Z" fill="#EEF7FF"/>
<path d="M125.83 135.454L127.059 154.199C127.294 157.828 130.422 160.568 134.039 160.334L185.558 156.969C189.175 156.735 191.916 153.607 191.681 149.99L190.453 131.245L125.83 135.454Z" fill="white"/>
<path d="M183.02 138.449L134.124 141.638L134.845 152.694L183.741 149.505L183.02 138.449Z" fill="#5CB3FF"/>
<path d="M135.468 73.3386L136.241 85.2649L125.317 85.9771L125.392 87.1915L136.316 86.4793L137.195 99.9694L126.271 100.682L126.346 101.896L137.27 101.184L139.122 129.528L143.966 129.217L143.036 114.913L158.228 113.923L161.815 109.076L166.612 112.051L153.511 128.978L155.126 128.879L174.578 103.758L186.514 112.722L186.1 106.34L178.88 100.915L177.763 83.7838L184.609 83.3381L184.534 82.1237L177.688 82.5694L176.281 61.0585L183.126 60.6128L183.051 59.3984L176.206 59.8441L174.977 40.998L170.134 41.3089L171.362 60.155L160.4 60.8718L159.172 42.0257L155.53 42.2631L156.759 61.1092L145.297 61.8628L127.385 44.0902L125.77 44.1897L150.93 69.1367L140.498 75.9565L140.143 70.5509L123.626 60.0482L124.018 66.0549L135.468 73.3386ZM157.035 65.1623L151.982 68.4637L146.459 62.9928L156.857 62.3081L157.035 65.1623ZM172.843 82.8678L154.497 84.0594L153.693 71.6827L160.811 67.0275L160.485 62.0598L171.436 61.3569L172.843 82.8678ZM142.125 100.859L160.496 99.6644L161.049 108.086L157.6 112.727L142.972 113.684L142.125 100.859ZM141.171 86.1545L172.918 84.0822L174.116 102.377L167.364 111.099L162.251 107.911L161.634 98.3626L142.05 99.6446L141.171 86.1545ZM140.777 80.1354L152.528 72.458L153.284 84.1468L141.096 84.9401L140.777 80.1354Z" fill="white"/>
<path d="M129.278 130.153L135.387 129.755L133.662 103.308L127.553 103.706L129.278 130.153Z" fill="#CDE8FF"/>
<path d="M168.1 126.247L178.95 112.213L174.632 108.874L163.782 122.909L168.1 126.247Z" fill="#CDE8FF"/>
<path d="M164.223 101.191L170.944 100.753L170.043 86.936L163.322 87.3743L164.223 101.191Z" fill="#CDE8FF"/>
<path d="M145.135 95.771L160.788 94.7502L160.32 87.5669L144.666 88.5877L145.135 95.771Z" fill="#CDE8FF"/>
<path d="M127.237 98.738L133.346 98.3396L132.761 89.3698L126.652 89.7682L127.237 98.738Z" fill="#CDE8FF"/>
<path d="M147.293 128.976L150.441 128.77L149.676 117.04L146.528 117.245L147.293 128.976Z" fill="#CDE8FF"/>
<path d="M161.499 78.9774L157.383 79.2485L157.576 82.0252L169.112 81.2623L168.132 66.2456L160.953 70.6057L161.499 78.9774Z" fill="#CDE8FF"/>
<path d="M144.54 80.5645L144.685 82.855L150.58 82.4768L150.229 77.1084L144.54 80.5645Z" fill="#CDE8FF"/>
<path d="M142.373 71.0581L145.259 70.8699L144.893 65.2607L142.008 65.4488L142.373 71.0581Z" fill="#CDE8FF"/>
<path d="M131.736 60.7812L136.771 65.7842L139.913 62.6225L134.877 57.6195L131.736 60.7812Z" fill="#CDE8FF"/>
<path d="M126.416 55.4959L128.6 57.6665L131.742 54.5049L129.557 52.3342L126.416 55.4959Z" fill="#CDE8FF"/>
<path d="M162.616 59.5375L167.676 59.2075L167.459 55.8845L162.4 56.2144L162.616 59.5375Z" fill="#CDE8FF"/>
<path d="M162.216 53.3697L167.275 53.0398L166.796 45.6941L161.737 46.024L162.216 53.3697Z" fill="#CDE8FF"/>
<path d="M152.546 63.5497C153.322 63.5038 154 64.0883 154.048 64.8772C154.094 65.6536 153.509 66.3317 152.72 66.3791C151.944 66.425 151.266 65.8405 151.218 65.0516C151.173 64.2752 151.769 63.5956 152.546 63.5497Z" fill="#CDE8FF"/>
<path d="M162.281 111.604C163.058 111.559 163.736 112.143 163.783 112.932C163.829 113.708 163.244 114.386 162.456 114.434C161.679 114.48 161.001 113.895 160.954 113.106C160.908 112.33 161.494 111.664 162.281 111.604Z" fill="#CDE8FF"/>
<path d="M180.589 79.0371L182.925 78.8848L181.935 63.7061L179.599 63.8585L180.589 79.0371Z" fill="#CDE8FF"/>
<path d="M178.367 44.9297L180.703 44.7773L180.432 40.6298L178.096 40.7821L178.367 44.9297Z" fill="#CDE8FF"/>
<path d="M146.16 59.974L153.705 59.4819L152.594 42.4419L145.049 42.934L146.16 59.974Z" fill="#CDE8FF"/>
<path d="M178.154 126.968L186.037 126.454L185.523 118.571L177.64 119.085L178.154 126.968Z" fill="#CDE8FF"/>
<path d="M136.417 48.8178L141.714 48.4724L141.368 43.1755L136.072 43.5209L136.417 48.8178Z" fill="#CDE8FF"/>
<path d="M181.532 93.4026L183.868 93.2502L183.457 86.9539L181.121 87.1063L181.532 93.4026Z" fill="#CDE8FF"/>
<path d="M125.879 77.9597L131.988 77.5613L131.795 74.6005L125.686 74.9989L125.879 77.9597Z" fill="#CDE8FF"/>
<path d="M158.283 65.6637L157.296 50.6983L158.509 50.6108L159.534 66.2906L139.055 79.8825L141.257 113.797L151.455 113.124L151.53 114.338L140.131 115.084L137.792 79.2572L158.283 65.6637Z" fill="#5CB3FF"/>
<path d="M158.149 52.4846C159.158 52.3595 159.874 51.4403 159.749 50.4317C159.623 49.423 158.704 48.7068 157.696 48.832C156.687 48.9571 155.971 49.8763 156.096 50.8849C156.221 51.8936 157.14 52.6098 158.149 52.4846Z" fill="white"/>
<path d="M157.852 49.4813C158.502 49.4384 159.069 49.9358 159.097 50.5756C159.14 51.2263 158.643 51.7926 158.003 51.8215C157.353 51.8644 156.786 51.367 156.757 50.7272C156.702 50.0781 157.201 49.5242 157.852 49.4813Z" fill="#5FCF86"/>
<path d="M149.778 113.232L153.333 113.005C153.085 112.228 152.323 111.679 151.472 111.735C150.609 111.791 149.931 112.43 149.778 113.232Z" fill="white"/>
<path d="M149.747 113.69C149.768 113.965 149.838 114.221 149.967 114.445C150.295 115.06 150.963 115.456 151.7 115.403C152.45 115.347 153.049 114.882 153.294 114.221C153.391 113.982 153.435 113.724 153.413 113.449C153.407 113.299 153.376 113.151 153.32 113.007L149.766 113.233C149.747 113.387 149.741 113.539 149.747 113.69Z" fill="white"/>
<path d="M151.514 112.385C152.165 112.342 152.731 112.84 152.76 113.479C152.803 114.13 152.306 114.696 151.666 114.725C151.015 114.768 150.449 114.271 150.42 113.631C150.366 112.994 150.863 112.428 151.514 112.385Z" fill="#5FCF86"/>
<path d="M150.554 101.996C150.641 101.985 150.741 101.973 150.829 101.974C150.916 101.963 151.017 101.964 151.106 101.965C154.345 101.942 156.322 105.569 154.662 108.361L151.586 113.562L147.854 108.802C145.86 106.249 147.337 102.395 150.554 101.996Z" fill="#5FCF86"/>
<path d="M168.622 43.1493C169.908 44.5666 169.802 46.7622 168.385 48.0482C166.967 49.3342 164.772 49.2282 163.486 47.8109C162.2 46.3936 162.306 44.198 163.723 42.912C165.139 41.6135 167.336 41.732 168.622 43.1493Z" fill="white"/>
<path d="M166.648 44.9332L168.812 45.901L164.131 47.2136L165.89 42.6809L166.648 44.9332Z" fill="#5FCF86"/>
<path d="M177.151 28.2143L125.632 31.5793C121.377 31.855 118.139 35.5493 118.414 39.8043L125.883 154.282C126.158 158.537 129.853 161.774 134.108 161.499L185.627 158.134C185.778 158.128 185.927 158.109 186.076 158.091C188.053 157.858 189.773 156.875 190.996 155.449C192.263 153.967 192.979 152.011 192.844 149.909L185.376 35.4314C185.1 31.1765 181.406 27.9386 177.151 28.2143ZM128.221 154.118L120.753 39.6402C120.562 36.6742 122.816 34.0985 125.794 33.9056L177.313 30.5405C180.292 30.3476 182.868 32.6015 183.061 35.58L190.529 150.057C190.722 153.036 188.468 155.611 185.489 155.804L133.97 159.169C130.991 159.362 128.414 157.096 128.221 154.118Z" fill="#2F2738"/>
<path d="M154.089 98.8574C154.212 99.9522 154.748 100.92 155.527 101.606C156.376 102.346 157.5 102.761 158.689 102.689L162.966 102.487L162.698 98.2937L154.089 98.8574Z" fill="white"/>
<path d="M186.581 192.657L231.969 189.699L224.892 161.537C224.876 161.514 224.85 161.505 224.836 161.494L209.244 99.179L188.57 84.348L190.094 107.711L183.868 101.76C180.848 98.88 176.766 97.3934 172.61 97.6567L162.698 98.2938L162.966 102.487L158.689 102.689C157.501 102.774 156.376 102.346 155.527 101.606C154.748 100.92 154.212 99.9523 154.089 98.8574L148.983 99.1882L149.176 102.066C149.291 103.906 149.868 105.613 150.771 107.091C152.509 109.915 155.502 111.878 158.99 112.227L173.208 113.654L182.067 125.473L183.784 151.815C183.926 153.98 184.676 156.057 185.926 157.794C185.988 157.887 186.062 157.979 186.137 158.07C186.124 158.072 186.099 158.075 186.087 158.077C185.938 158.095 185.789 158.114 185.638 158.12L163.539 159.562L167.19 162.654L185.639 178.254L186.581 192.657Z" fill="#F5C2A2"/>
<path d="M190.093 107.712L198.552 115.795L202.396 104.785L202.149 100.867L190.093 107.712Z" fill="#2F2738"/>
<path d="M189.303 161.223L167.192 162.667L162.257 158.485L186.138 158.083C186.577 158.672 187.072 159.203 187.614 159.704L188.992 160.946L189.303 161.223Z" fill="#2F2738"/>
<path d="M196.262 177.569L185.643 178.261L185.787 180.46L196.405 179.767L196.262 177.569Z" fill="#2F2738"/>
<path d="M241.948 227.316L239.187 185.032C238.946 181.265 236.679 177.938 233.275 176.329L227.995 173.831L169.54 200.398L189.065 230.775L241.948 227.316Z" fill="#F26A2B"/>
</g>
<path d="M131.898 141.831L131.611 137.573L133.573 137.441C133.619 137.438 133.679 137.436 133.752 137.435C133.824 137.432 133.892 137.433 133.954 137.439C134.231 137.458 134.463 137.524 134.65 137.639C134.838 137.753 134.982 137.903 135.081 138.091C135.182 138.276 135.24 138.486 135.256 138.721C135.271 138.953 135.242 139.169 135.167 139.368C135.092 139.566 134.968 139.733 134.797 139.872C134.627 140.01 134.407 140.107 134.137 140.163C134.076 140.175 134.009 140.185 133.934 140.194C133.862 140.203 133.804 140.209 133.76 140.212L132.593 140.29L132.693 141.778L131.898 141.831ZM132.548 139.625L133.682 139.549C133.726 139.546 133.775 139.54 133.83 139.533C133.885 139.525 133.935 139.514 133.98 139.499C134.11 139.46 134.21 139.401 134.279 139.321C134.351 139.241 134.399 139.153 134.424 139.056C134.45 138.959 134.461 138.865 134.455 138.775C134.448 138.684 134.426 138.592 134.386 138.5C134.349 138.405 134.289 138.323 134.207 138.254C134.128 138.184 134.021 138.138 133.887 138.118C133.84 138.109 133.789 138.106 133.734 138.107C133.679 138.107 133.629 138.108 133.585 138.111L132.451 138.188L132.548 139.625Z" fill="white"/>
<path d="M138.531 141.385L138.244 137.126L139.038 137.073L139.325 141.331L138.531 141.385Z" fill="white"/>
<path d="M144.681 141.06C144.207 141.092 143.794 141.026 143.443 140.864C143.092 140.699 142.814 140.457 142.609 140.136C142.406 139.815 142.29 139.434 142.26 138.995C142.231 138.555 142.295 138.162 142.453 137.817C142.613 137.472 142.856 137.195 143.182 136.987C143.508 136.777 143.908 136.656 144.383 136.624C144.93 136.587 145.394 136.679 145.776 136.901C146.157 137.121 146.436 137.434 146.611 137.84L145.823 138.092C145.712 137.82 145.54 137.614 145.308 137.473C145.075 137.331 144.782 137.271 144.428 137.295C144.109 137.316 143.848 137.398 143.643 137.541C143.441 137.683 143.293 137.874 143.201 138.114C143.111 138.352 143.076 138.627 143.095 138.938C143.116 139.25 143.187 139.518 143.308 139.744C143.431 139.967 143.604 140.136 143.825 140.25C144.047 140.364 144.318 140.41 144.636 140.388C144.99 140.364 145.273 140.266 145.484 140.094C145.696 139.921 145.838 139.693 145.912 139.411L146.726 139.555C146.607 139.981 146.373 140.33 146.025 140.601C145.677 140.87 145.229 141.023 144.681 141.06Z" fill="white"/>
<path d="M149.891 140.62L149.604 136.361L150.399 136.308L150.532 138.283L152.294 136.18L153.27 136.114L151.37 138.34L153.695 140.363L152.687 140.431L150.552 138.579L150.685 140.566L149.891 140.62Z" fill="white"/>
<path d="M161.98 139.895C161.602 139.92 161.264 139.874 160.967 139.755C160.672 139.636 160.434 139.457 160.255 139.218C160.078 138.978 159.977 138.69 159.955 138.353L159.775 135.682L160.579 135.622L160.758 138.281C160.769 138.44 160.808 138.581 160.876 138.704C160.946 138.826 161.036 138.927 161.145 139.009C161.254 139.089 161.377 139.147 161.514 139.183C161.651 139.22 161.791 139.233 161.934 139.223C162.082 139.214 162.22 139.181 162.348 139.127C162.479 139.071 162.594 138.996 162.691 138.902C162.788 138.806 162.862 138.694 162.913 138.563C162.964 138.433 162.984 138.289 162.974 138.132L162.795 135.473L163.599 135.419L163.779 138.095C163.802 138.432 163.74 138.731 163.595 138.993C163.451 139.254 163.24 139.463 162.961 139.621C162.685 139.778 162.358 139.869 161.98 139.895Z" fill="white"/>
<path d="M167.162 139.457L166.875 135.198L168.837 135.066C168.883 135.063 168.943 135.061 169.015 135.06C169.088 135.057 169.156 135.058 169.218 135.064C169.495 135.083 169.727 135.15 169.914 135.264C170.102 135.378 170.246 135.529 170.345 135.716C170.446 135.901 170.504 136.111 170.52 136.346C170.535 136.579 170.506 136.794 170.431 136.994C170.356 137.191 170.232 137.358 170.061 137.497C169.891 137.635 169.671 137.732 169.401 137.788C169.34 137.8 169.272 137.81 169.198 137.819C169.126 137.828 169.068 137.834 169.024 137.837L167.857 137.916L167.957 139.403L167.162 139.457ZM167.812 137.25L168.946 137.174C168.99 137.171 169.039 137.166 169.094 137.158C169.149 137.15 169.199 137.139 169.244 137.124C169.374 137.086 169.474 137.026 169.543 136.946C169.615 136.866 169.663 136.778 169.688 136.681C169.714 136.584 169.725 136.491 169.718 136.4C169.712 136.309 169.69 136.218 169.65 136.125C169.613 136.031 169.553 135.949 169.471 135.879C169.392 135.809 169.285 135.764 169.151 135.743C169.104 135.734 169.053 135.731 168.998 135.732C168.943 135.732 168.893 135.734 168.849 135.737L167.715 135.813L167.812 137.25Z" fill="white"/>
</g>
<defs>
<linearGradient id="paint0_linear_1258_24191" x1="18.0314" y1="205.794" x2="17.9001" y2="172.161" gradientUnits="userSpaceOnUse">
<stop stop-color="#2C3E63"/>
<stop offset="1" stop-color="#13192E"/>
</linearGradient>
<linearGradient id="paint1_linear_1258_24191" x1="20.2285" y1="205.786" x2="20.0972" y2="172.152" gradientUnits="userSpaceOnUse">
<stop stop-color="#2C3E63"/>
<stop offset="1" stop-color="#13192E"/>
</linearGradient>
<linearGradient id="paint2_linear_1258_24191" x1="22.4262" y1="205.777" x2="22.295" y2="172.144" gradientUnits="userSpaceOnUse">
<stop stop-color="#2C3E63"/>
<stop offset="1" stop-color="#13192E"/>
</linearGradient>
<linearGradient id="paint3_linear_1258_24191" x1="75.9641" y1="207.476" x2="75.8077" y2="167.397" gradientUnits="userSpaceOnUse">
<stop stop-color="#2C3E63"/>
<stop offset="1" stop-color="#13192E"/>
</linearGradient>
<linearGradient id="paint4_linear_1258_24191" x1="78.907" y1="207.464" x2="78.7506" y2="167.385" gradientUnits="userSpaceOnUse">
<stop stop-color="#2C3E63"/>
<stop offset="1" stop-color="#13192E"/>
</linearGradient>
<linearGradient id="paint5_linear_1258_24191" x1="81.8493" y1="207.453" x2="81.6929" y2="167.374" gradientUnits="userSpaceOnUse">
<stop stop-color="#2C3E63"/>
<stop offset="1" stop-color="#13192E"/>
</linearGradient>
<linearGradient id="paint6_linear_1258_24191" x1="82.6189" y1="205.841" x2="82.5316" y2="183.459" gradientUnits="userSpaceOnUse">
<stop stop-color="#EBEFF7"/>
<stop offset="1" stop-color="#B3B6C2"/>
</linearGradient>
<linearGradient id="paint7_linear_1258_24191" x1="82.6189" y1="205.842" x2="82.5316" y2="183.46" gradientUnits="userSpaceOnUse">
<stop stop-color="#EBEFF7"/>
<stop offset="1" stop-color="#B3B6C2"/>
</linearGradient>
<linearGradient id="paint8_linear_1258_24191" x1="82.6965" y1="205.841" x2="82.6091" y2="183.459" gradientUnits="userSpaceOnUse">
<stop stop-color="#EBEFF7"/>
<stop offset="1" stop-color="#B3B6C2"/>
</linearGradient>
<linearGradient id="paint9_linear_1258_24191" x1="79.8391" y1="205.852" x2="79.7518" y2="183.47" gradientUnits="userSpaceOnUse">
<stop stop-color="#EBEFF7"/>
<stop offset="1" stop-color="#B3B6C2"/>
</linearGradient>
<linearGradient id="paint10_linear_1258_24191" x1="80.4693" y1="205.85" x2="80.382" y2="183.468" gradientUnits="userSpaceOnUse">
<stop stop-color="#EBEFF7"/>
<stop offset="1" stop-color="#B3B6C2"/>
</linearGradient>
<linearGradient id="paint11_linear_1258_24191" x1="84.705" y1="205.833" x2="84.6177" y2="183.452" gradientUnits="userSpaceOnUse">
<stop stop-color="#EBEFF7"/>
<stop offset="1" stop-color="#B3B6C2"/>
</linearGradient>
<linearGradient id="paint12_linear_1258_24191" x1="85.4229" y1="205.831" x2="85.3356" y2="183.449" gradientUnits="userSpaceOnUse">
<stop stop-color="#EBEFF7"/>
<stop offset="1" stop-color="#B3B6C2"/>
</linearGradient>
<linearGradient id="paint13_linear_1258_24191" x1="138.904" y1="202.687" x2="138.769" y2="168.062" gradientUnits="userSpaceOnUse">
<stop stop-color="#2C3E63"/>
<stop offset="1" stop-color="#13192E"/>
</linearGradient>
<linearGradient id="paint14_linear_1258_24191" x1="141.446" y1="202.677" x2="141.311" y2="168.053" gradientUnits="userSpaceOnUse">
<stop stop-color="#2C3E63"/>
<stop offset="1" stop-color="#13192E"/>
</linearGradient>
<linearGradient id="paint15_linear_1258_24191" x1="143.988" y1="202.667" x2="143.853" y2="168.043" gradientUnits="userSpaceOnUse">
<stop stop-color="#2C3E63"/>
<stop offset="1" stop-color="#13192E"/>
</linearGradient>
<linearGradient id="paint16_linear_1258_24191" x1="144.574" y1="180.919" x2="144.649" y2="200.255" gradientUnits="userSpaceOnUse">
<stop stop-color="#EBEFF7"/>
<stop offset="1" stop-color="#B3B6C2"/>
</linearGradient>
<linearGradient id="paint17_linear_1258_24191" x1="144.574" y1="180.919" x2="144.65" y2="200.255" gradientUnits="userSpaceOnUse">
<stop stop-color="#EBEFF7"/>
<stop offset="1" stop-color="#B3B6C2"/>
</linearGradient>
<linearGradient id="paint18_linear_1258_24191" x1="144.641" y1="180.919" x2="144.716" y2="200.255" gradientUnits="userSpaceOnUse">
<stop stop-color="#EBEFF7"/>
<stop offset="1" stop-color="#B3B6C2"/>
</linearGradient>
<linearGradient id="paint19_linear_1258_24191" x1="142.173" y1="180.929" x2="142.248" y2="200.264" gradientUnits="userSpaceOnUse">
<stop stop-color="#EBEFF7"/>
<stop offset="1" stop-color="#B3B6C2"/>
</linearGradient>
<linearGradient id="paint20_linear_1258_24191" x1="142.717" y1="180.926" x2="142.793" y2="200.262" gradientUnits="userSpaceOnUse">
<stop stop-color="#EBEFF7"/>
<stop offset="1" stop-color="#B3B6C2"/>
</linearGradient>
<linearGradient id="paint21_linear_1258_24191" x1="146.375" y1="180.912" x2="146.451" y2="200.248" gradientUnits="userSpaceOnUse">
<stop stop-color="#EBEFF7"/>
<stop offset="1" stop-color="#B3B6C2"/>
</linearGradient>
<linearGradient id="paint22_linear_1258_24191" x1="146.997" y1="180.91" x2="147.072" y2="200.246" gradientUnits="userSpaceOnUse">
<stop stop-color="#EBEFF7"/>
<stop offset="1" stop-color="#B3B6C2"/>
</linearGradient>
<linearGradient id="paint23_linear_1258_24191" x1="5.88108" y1="188.266" x2="43.266" y2="188.12" gradientUnits="userSpaceOnUse">
<stop stop-color="#2C3E63"/>
<stop offset="1" stop-color="#13192E"/>
</linearGradient>
<linearGradient id="paint24_linear_1258_24191" x1="88.2138" y1="158.204" x2="115.449" y2="158.097" gradientUnits="userSpaceOnUse">
<stop stop-color="#2C3E63"/>
<stop offset="1" stop-color="#13192E"/>
</linearGradient>
<linearGradient id="paint25_linear_1258_24191" x1="113.179" y1="157.636" x2="136.725" y2="157.545" gradientUnits="userSpaceOnUse">
<stop stop-color="#2C3E63"/>
<stop offset="1" stop-color="#13192E"/>
</linearGradient>
<linearGradient id="paint26_linear_1258_24191" x1="61.7754" y1="151.338" x2="78.8949" y2="170.114" gradientUnits="userSpaceOnUse">
<stop stop-color="#2C3E63"/>
<stop offset="1" stop-color="#13192E"/>
</linearGradient>
<linearGradient id="paint27_linear_1258_24191" x1="31.824" y1="184.58" x2="4.94304" y2="200.325" gradientUnits="userSpaceOnUse">
<stop stop-color="#EBEFF7"/>
<stop offset="1" stop-color="#B3B6C2"/>
</linearGradient>
<linearGradient id="paint28_linear_1258_24191" x1="21.3663" y1="182.424" x2="21.3725" y2="183.997" gradientUnits="userSpaceOnUse">
<stop stop-color="#EBEFF7"/>
<stop offset="1" stop-color="#B3B6C2"/>
</linearGradient>
<linearGradient id="paint29_linear_1258_24191" x1="148.758" y1="165.665" x2="150.593" y2="175.107" gradientUnits="userSpaceOnUse">
<stop stop-color="#FF5521"/>
<stop offset="1" stop-color="#DE3214"/>
</linearGradient>
<clipPath id="clip0_1258_24191">
<rect width="240" height="240" fill="white"/>
</clipPath>
</defs>
</svg>
